<?xml version="1.0" encoding="us-ascii" standalone="no"?><svg xmlns="http://www.w3.org/2000/svg" xmlns:xlink="http://www.w3.org/1999/xlink" contentStyleType="text/css" height="801.0417px" preserveAspectRatio="none" style="width:420px;height:801px;" version="1.1" viewBox="0 0 420 801" width="420.8333px" zoomAndPan="magnify"><defs><filter height="300%" id="fgjqx0nhjazde" width="300%" x="-1" y="-1"><feGaussianBlur result="blurOut" stdDeviation="2.0833333333333335"/><feColorMatrix in="blurOut" result="blurOut2" type="matrix" values="0 0 0 0 0 0 0 0 0 0 0 0 0 0 0 0 0 0 .4 0"/><feOffset dx="4.166666666666667" dy="4.166666666666667" in="blurOut2" result="blurOut3"/><feBlend in="SourceGraphic" in2="blurOut3" mode="normal"/></filter><linearGradient id="ggjqx0nhjazde0" x1="50%" x2="50%" y1="0%" y2="100%"><stop offset="0%" stop-color="#FFFFFF"/><stop offset="100%" stop-color="#ECDED4"/></linearGradient><linearGradient id="ggjqx0nhjazde1" x1="50%" x2="50%" y1="0%" y2="100%"><stop offset="0%" stop-color="#0090F4"/><stop offset="100%" stop-color="#0078CB"/></linearGradient><linearGradient id="ggjqx0nhjazde2" x1="50%" x2="50%" y1="0%" y2="100%"><stop offset="0%" stop-color="#FFFFFF"/><stop offset="100%" stop-color="#F3F3F8"/></linearGradient></defs><g><text fill="#5C524E" font-family="Telia Sans" font-size="20.8333" font-weight="bold" lengthAdjust="spacing" textLength="355.2083" x="31.25" y="51.0833">Activity Diagram - telia-brown theme</text><ellipse cx="202.8646" cy="87.8125" fill="#0078CB" filter="url(#fgjqx0nhjazde)" rx="10.4167" ry="10.4167" style="stroke:#222222;stroke-width:1.0416666666666667;"/><rect fill="url(#ggjqx0nhjazde0)" filter="url(#fgjqx0nhjazde)" height="56.2292" rx="4.1667" ry="4.1667" style="stroke:#7F7F7F;stroke-width:1.0416666666666667;" width="65.625" x="170.0521" y="119.0625"/><text fill="#1E1E20" font-family="Telia Sans" font-size="12.5" lengthAdjust="spacing" textLength="23.9583" x="190.8854" y="151.7958">start</text><rect fill="#5C524E" filter="url(#fgjqx0nhjazde)" height="6.25" rx="2.6042" ry="2.6042" style="stroke:#5C524E;stroke-width:1.0416666666666667;" width="311.9792" x="51.3021" y="196.125"/><rect fill="none" filter="url(#fgjqx0nhjazde)" height="217.6458" rx="4.1667" ry="4.1667" style="stroke:#1E1E20;stroke-width:1.5625;" width="99.4792" x="63.8021" y="212.7917"/><path d="M161.7188,212.7917 L161.7188,240.8958 L151.3021,251.3125 L63.8021,251.3125 " fill="none" style="stroke:#1E1E20;stroke-width:1.5625;"/><text fill="#1E1E20" font-family="Telia Sans" font-size="12.5" lengthAdjust="spacing" textLength="66.6667" x="76.3021" y="236.15">My Partition</text><rect fill="url(#ggjqx0nhjazde0)" filter="url(#fgjqx0nhjazde)" height="56.2292" rx="4.1667" ry="4.1667" style="stroke:#7F7F7F;stroke-width:1.0416666666666667;" width="65.625" x="84.1146" y="269.0208"/><text fill="#1E1E20" font-family="Telia Sans" font-size="12.5" lengthAdjust="spacing" textLength="23.9583" x="104.9479" y="301.7542">foo1</text><rect fill="url(#ggjqx0nhjazde0)" filter="url(#fgjqx0nhjazde)" height="56.2292" rx="4.1667" ry="4.1667" style="stroke:#7F7F7F;stroke-width:1.0416666666666667;" width="67.7083" x="83.0729" y="361.7083"/><text fill="#1E1E20" font-family="Telia Sans" font-size="12.5" lengthAdjust="spacing" textLength="26.0417" x="103.9063" y="394.4417">foo2</text><path d="M280.9896,302.875 L280.9896,321.6146 L260.1563,325.7813 L280.9896,329.9479 L280.9896,348.6875 A0,0 0 0 0 280.9896,348.6875 L350.7813,348.6875 A0,0 0 0 0 350.7813,348.6875 L350.7813,313.2917 L340.3646,302.875 L280.9896,302.875 A0,0 0 0 0 280.9896,302.875 " fill="url(#ggjqx0nhjazde1)" filter="url(#fgjqx0nhjazde)" style="stroke:#0078CB;stroke-width:1.0416666666666667;"/><path d="M340.3646,302.875 L340.3646,313.2917 L350.7813,313.2917 L340.3646,302.875 " fill="url(#ggjqx0nhjazde1)" style="stroke:#0078CB;stroke-width:1.0416666666666667;"/><text fill="#FFFFFF" font-family="Telia Sans" font-size="12.5" lengthAdjust="spacing" textLength="27.0833" x="297.6563" y="330.4">Note</text><rect fill="url(#ggjqx0nhjazde0)" filter="url(#fgjqx0nhjazde)" height="56.2292" rx="4.1667" ry="4.1667" style="stroke:#7F7F7F;stroke-width:1.0416666666666667;" width="67.7083" x="192.4479" y="297.6667"/><text fill="#1E1E20" font-family="Telia Sans" font-size="12.5" lengthAdjust="spacing" textLength="26.0417" x="213.2813" y="330.4">foo3</text><rect fill="#5C524E" filter="url(#fgjqx0nhjazde)" height="6.25" rx="2.6042" ry="2.6042" style="stroke:#5C524E;stroke-width:1.0416666666666667;" width="311.9792" x="51.3021" y="451.2708"/><rect fill="url(#ggjqx0nhjazde0)" filter="url(#fgjqx0nhjazde)" height="56.2292" rx="4.1667" ry="4.1667" style="stroke:#7F7F7F;stroke-width:1.0416666666666667;" width="67.7083" x="169.0104" y="550.1979"/><text fill="#1E1E20" font-family="Telia Sans" font-size="12.5" lengthAdjust="spacing" textLength="26.0417" x="189.8438" y="582.9312">foo5</text><polygon fill="url(#ggjqx0nhjazde2)" filter="url(#fgjqx0nhjazde)" points="179.4271,478.3542,226.3021,478.3542,238.8021,496.0521,226.3021,513.75,179.4271,513.75,166.9271,496.0521,179.4271,478.3542" style="stroke:#B5B5D4;stroke-width:1.0416666666666667;"/><text fill="#1E1E20" font-family="Telia Sans" font-size="12.5" lengthAdjust="spacing" textLength="17.7083" x="217.4479" y="536.0667">yes</text><text fill="#1E1E20" font-family="Telia Sans" font-size="12.5" lengthAdjust="spacing" textLength="26.0417" x="189.8438" y="500.6708">foo4</text><text fill="#1E1E20" font-family="Telia Sans" font-size="12.5" lengthAdjust="spacing" textLength="14.5833" x="249.2188" y="482.9729">no</text><ellipse cx="297.1354" cy="496.0521" fill="none" filter="url(#fgjqx0nhjazde)" rx="11.4583" ry="11.4583" style="stroke:#222222;stroke-width:1.0416666666666667;"/><ellipse cx="297.1354" cy="496.0521" fill="#222222" rx="6.25" ry="6.25" style="stroke:#111111;stroke-width:1.0416666666666667;"/><rect fill="url(#ggjqx0nhjazde0)" filter="url(#fgjqx0nhjazde)" height="56.2292" rx="4.1667" ry="4.1667" style="stroke:#7F7F7F;stroke-width:1.0416666666666667;" width="67.7083" x="169.0104" y="616.8437"/><text fill="#1E1E20" font-family="Telia Sans" font-size="12.5" lengthAdjust="spacing" textLength="26.0417" x="189.8438" y="649.5771">foo6</text><rect fill="url(#ggjqx0nhjazde0)" filter="url(#fgjqx0nhjazde)" height="56.2292" rx="4.1667" ry="4.1667" style="stroke:#7F7F7F;stroke-width:1.0416666666666667;" width="67.7083" x="169.0104" y="683.4896"/><text fill="#1E1E20" font-family="Telia Sans" font-size="12.5" lengthAdjust="spacing" textLength="26.0417" x="189.8438" y="716.2229">foo7</text><ellipse cx="202.8646" cy="772.0104" fill="none" filter="url(#fgjqx0nhjazde)" rx="11.4583" ry="11.4583" style="stroke:#222222;stroke-width:1.0416666666666667;"/><ellipse cx="202.8646" cy="772.0104" fill="#222222" rx="6.25" ry="6.25" style="stroke:#111111;stroke-width:1.0416666666666667;"/><line style="stroke:#5C524E;stroke-width:3.125;" x1="202.8646" x2="202.8646" y1="98.2292" y2="119.0625"/><polygon fill="#5C524E" points="198.6979,108.6458,202.8646,119.0625,207.0313,108.6458,202.8646,112.8125" style="stroke:#5C524E;stroke-width:1.0416666666666667;"/><line style="stroke:#5C524E;stroke-width:3.125;" x1="116.9271" x2="116.9271" y1="325.25" y2="361.7083"/><polygon fill="#5C524E" points="112.7604,351.2917,116.9271,361.7083,121.0938,351.2917,116.9271,355.4583" style="stroke:#5C524E;stroke-width:1.0416666666666667;"/><line style="stroke:#5C524E;stroke-width:3.125;" x1="116.9271" x2="116.9271" y1="202.375" y2="269.0208"/><polygon fill="#5C524E" points="112.7604,258.6042,116.9271,269.0208,121.0938,258.6042,116.9271,262.7708" style="stroke:#5C524E;stroke-width:1.0416666666666667;"/><line style="stroke:#7F7F7F;stroke-width:3.125;" x1="226.3021" x2="226.3021" y1="202.375" y2="297.6667"/><polygon fill="#7F7F7F" points="222.1354,287.25,226.3021,297.6667,230.4688,287.25,226.3021,291.4167" style="stroke:#7F7F7F;stroke-width:1.0416666666666667;"/><line style="stroke:#5C524E;stroke-width:3.125;" x1="116.9271" x2="116.9271" y1="417.9375" y2="451.2708"/><polygon fill="#5C524E" points="112.7604,440.8542,116.9271,451.2708,121.0938,440.8542,116.9271,445.0208" style="stroke:#5C524E;stroke-width:1.0416666666666667;"/><line style="stroke:#5C524E;stroke-width:3.125;" x1="202.8646" x2="202.8646" y1="175.2917" y2="196.125"/><polygon fill="#5C524E" points="198.6979,185.7083,202.8646,196.125,207.0313,185.7083,202.8646,189.875" style="stroke:#5C524E;stroke-width:1.0416666666666667;"/><line style="stroke:#5C524E;stroke-width:3.125;" x1="202.8646" x2="202.8646" y1="513.75" y2="550.1979"/><polygon fill="#5C524E" points="198.6979,539.7812,202.8646,550.1979,207.0313,539.7812,202.8646,543.9479" style="stroke:#5C524E;stroke-width:1.0416666666666667;"/><line style="stroke:#5C524E;stroke-width:3.125;" x1="238.8021" x2="285.6771" y1="496.0521" y2="496.0521"/><polygon fill="#5C524E" points="275.2604,491.8854,285.6771,496.0521,275.2604,500.2187,279.4271,496.0521" style="stroke:#5C524E;stroke-width:1.0416666666666667;"/><line style="stroke:#5C524E;stroke-width:3.125;" x1="202.8646" x2="202.8646" y1="457.5208" y2="478.3542"/><polygon fill="#5C524E" points="198.6979,467.9375,202.8646,478.3542,207.0313,467.9375,202.8646,472.1042" style="stroke:#5C524E;stroke-width:1.0416666666666667;"/><line style="stroke:#5C524E;stroke-width:3.125;" x1="202.8646" x2="202.8646" y1="739.7187" y2="760.5521"/><polygon fill="#5C524E" points="198.6979,750.1354,202.8646,760.5521,207.0313,750.1354,202.8646,754.3021" style="stroke:#5C524E;stroke-width:1.0416666666666667;"/><!--SRC=[fLfjKziu4FuS_meJO0vcZhaaKA25CXCW0URQq27SzEvJHx6LeCEnSxPIchlXlzzAbcozvgM4pZJUVRHlMkrAShPs7czxdtlXnx19SKBGmIZFNj9c40HRP1pkfXdTs_sESe962Vw6Vv225dlDdSkRg_jFzm_D_VrWIpvm4JbAYndASKgRmHPEOp8EWkAPf413qt24ekT9ditJ-2fBiZoKGnN8lC2NcA8XNIGu7AEam639pjVRkqTkutQ_tmV9EpSFtR_uy_7nCNl-yd3tkVjGadfNrxtheoORD-nTtG-k9QD_27-d33xyu-ggDnnoQgjzUdhKOTIxGV- -9BLEJgCH8ttjFWpk1ZUSEXw_Fssr6FMwExZfSOUtyL7xv5t4Y9_kRcuV1N1SeXv-vyzjtCOTFh0BQWSbwDtLkyvHJ-8k7-w_3ZZzfC_-kFNzAh0SKxlvxR7tvwD2hjmq6H8lRTjDoEI9udHFSduDEwrz1IXiterH_ko0rOfiYHNF1fjIBIYBl4Ca8siGKv05aFxpXAadscLkoQcC5K3BL3VCr2FonA57SAG02JJrU62cdZBpgj6Lbf8kHmjKPOnKuaIPAieSTNXICkHe0JFzK471rYpF8XpFSnpk5FCemaMnjpCj9lj169wFivI64Qi37sLOByv75upFIqSrLfSpHYI1BsuvfKlhY7b1UKhIYLkCYFuwScOvcQ9yyQs8dl0Kx-q7ZJu84kLDNQv1upBBOvmBLhNe9VtnYKJFAKGeR0F9B9JQGZwGZyiCAsW-ZoXyLKnBinY7_mMDjUKt6fz8YWMcd5gWCGy7Q8h3vYDh6U4GYduJw0LcDPm2bkbm3dqDs3-KGvCfGPOb5TGr7iO-GJhobFICrrRYWNnaGvS4Qu9IIgj0WUGGFcutJJbrwuhn6CqJMWqhFzfW9tX8_fNWTaU5p4XeVzgjbe8fdb2SlK0YQnYOUjKm7fueorESAw1J1V45vPH4P0PX-8BYMCWxKZLTPZyKblne40UV6wn0kcpcovbIFd9-5Ryepd565pCi9kFAccYZ5mcKkiRq1iG1NLkCsY44HXEYD0RElhD4gELMGFIbNjLipkqjprc1KIMeJOEp1vQ8keCAW3g-wfsGlNMCAQ49BmTLnMfOsLQjF9ce75BZEYsxVjNSbbt9TEbo__UgxX8JF84LnWpppxbHJOsPLckmS3lOAYWaUJ4VXSKBcIOeLLU8976bgc3flkbZ9sWyil1PxfbfUQ3Qp8VO_K7K5B1DDHD5b7mdTA66HjAOdOxMSubCkuTCcf85GQEdfKpGk2PecgNngkMb-W4984SjcmI1KVpLzwbkjsTrAL8zLyWUvvKQPi-MBy9PReItR5vhzyTrayLEI9Szh3XgziW-MSiw31g6DaLqlrfE3ka5_cUEqmYh2YJDollAGL_AMY5IZdvwsbKZUcOqcSuVbxup8MUgDh4p7wUQmMnSumGjBEedCiPi3s7jkqoMDbCLQrM_QTm0T-QmaDCjQpZr5YD0ktd-G0X5yM85f9Jk1rr3xN01-Cx_OAVk7X9e-MOnrT0fJCl31po6XWwPvhUkXjWXhNX-mLPeo_8sh3OIldsvlmfHagLM3M94QxcukyxIDU9K2-UF14TCHQ4gLiZkukSHbj8yItH1dEIfe8hzPIuunOBnHbSgAMyIEc91We7QRP6WlKamcc2zaN22gyPlPp0x4wpFxFPx_b6rRH_oZrjTcb6jmBBdEbkMd_7gBTo1I5vh4wTvNHxOFPs4aZ5qCxsPb3HdVzDAGCEn0XMzdE39kEaiIus0LyGDKfUai6p1M2sM5T7bWR4BrroGl3NRS06R0CWIhK-M97Vet0TEs2Ivzl3w32gtFBvyYeryYl7odR5ZsscNAbQg7IcvLdYY99l7sWGpWZYcBL-dVg4necY42irNILkz_fSPYmgzb3B2nX7qT5RHHmwqwrDFpn4TmGvwbzASZERK1ciSValGRhlTp4P_OtsrbnHFwDvkeB6Jty3KUO4ZOw85oNUeiVTeovgwMsiEmO3gdcXwAw9s2FOrxpMMs1kDd856e_08alUyzoOJdKQCimHWgWqbPLdRiAzYrgvzwzi5fcYXuOItM6KrLBNfhhG7lb2ZHo2wF8UDtQTCiytFx1kM3FrwXTjvVWuDELzyoQ2fNbpmukqL2gCTmtyG-lEZewUCH7ZrK4VSuS0wr-BE2PjiYr6kjozuTgRHflknwWMK9u69NdtOyzjQkNjdvatNwDcOYUXvWx3DS5x0SKWfJPpWxVjE8Nyp4OtpWhtTlGWQxF6Qe0aJ1vPmGQxt5gz1Ou6coPhGyz-4V8S1_AAVMooDa7UHd5DhKAyfyooZ1id_Va15l6fF51NF3Z5sw1ot_g7oCaJMZyiR2oblu8-Nc26E92ubPZ9NUyKbrlY1BB5lh0LbGNNhr7T8ApJNwyGH2Kivx34oVfpqnzc_l_7REuLL3AU3T8sGQhSEFcnPiu_zVFx3249HGY8do79SkxfSFwOhvecIAIIzq-tLwq9tjkESF4z9T4prpqmRd5aA77lcp7l4ywu7tvdERS1hK7vVLgZu2qOukjHbIb2y1PV9NIOHyGiaHM19s5GU-rMG_OCW_YEYvdvGlbFgojSKifuUXE9dHfG91sdiTprkRFMpeL-KTu_6X8oIifanruBm0___B82DQlxC0bLTqpK_ByfNc-ofMNhwOPnbxJFvhNF6_UH3GpH199MSGuxXnJ9dhvi_X0DsjmEq64FhV0f2iBFK227PWn57-yozDDnRu69VYdbtfWq1lyEzD6Dig1epBWISvT1ZW4eWUpw1PmRw7m00]--></g></svg>