<?xml version="1.0" encoding="us-ascii" standalone="no"?><svg xmlns="http://www.w3.org/2000/svg" xmlns:xlink="http://www.w3.org/1999/xlink" contentStyleType="text/css" height="578.125px" preserveAspectRatio="none" style="width:420px;height:578px;" version="1.1" viewBox="0 0 420 578" width="420.8333px" zoomAndPan="magnify"><defs><filter height="300%" id="f1fw2brzht83r" width="300%" x="-1" y="-1"><feGaussianBlur result="blurOut" stdDeviation="2.0833333333333335"/><feColorMatrix in="blurOut" result="blurOut2" type="matrix" values="0 0 0 0 0 0 0 0 0 0 0 0 0 0 0 0 0 0 .4 0"/><feOffset dx="4.166666666666667" dy="4.166666666666667" in="blurOut2" result="blurOut3"/><feBlend in="SourceGraphic" in2="blurOut3" mode="normal"/></filter><linearGradient id="g1fw2brzht83r0" x1="50%" x2="50%" y1="0%" y2="100%"><stop offset="0%" stop-color="#FFFFFF"/><stop offset="100%" stop-color="#ECDED4"/></linearGradient><linearGradient id="g1fw2brzht83r1" x1="50%" x2="50%" y1="0%" y2="100%"><stop offset="0%" stop-color="#FFFFFF"/><stop offset="100%" stop-color="#F3F3F8"/></linearGradient><linearGradient id="g1fw2brzht83r2" x1="50%" x2="50%" y1="0%" y2="100%"><stop offset="0%" stop-color="#0090F4"/><stop offset="100%" stop-color="#0078CB"/></linearGradient></defs><g><text fill="#5C524E" font-family="Telia Sans" font-size="20.8333" font-weight="bold" lengthAdjust="spacing" textLength="355.2083" x="31.25" y="51.0833">Activity Diagram - telia-brown theme</text><ellipse cx="149.7396" cy="87.8125" fill="#0078CB" filter="url(#f1fw2brzht83r)" rx="10.4167" ry="10.4167" style="stroke:#222222;stroke-width:1.0416666666666667;"/><rect fill="url(#g1fw2brzht83r0)" filter="url(#f1fw2brzht83r)" height="56.2292" rx="4.1667" ry="4.1667" style="stroke:#7F7F7F;stroke-width:1.0416666666666667;" width="59.375" x="120.0521" y="119.0625"/><text fill="#1E1E20" font-family="Telia Sans" font-size="12.5" lengthAdjust="spacing" textLength="17.7083" x="140.8854" y="151.7958">init</text><polygon fill="url(#g1fw2brzht83r1)" filter="url(#f1fw2brzht83r)" points="122.1354,221.1042,177.3438,221.1042,189.8438,238.8021,177.3438,256.5,122.1354,256.5,109.6354,238.8021,122.1354,221.1042" style="stroke:#B5B5D4;stroke-width:1.0416666666666667;"/><text fill="#1E1E20" font-family="Telia Sans" font-size="12.5" lengthAdjust="spacing" textLength="34.375" x="132.5521" y="243.4208">color?</text><text fill="#FF0000" font-family="Telia Sans" font-size="12.5" lengthAdjust="spacing" textLength="17.7083" x="81.5104" y="225.7229">red</text><rect fill="url(#g1fw2brzht83r0)" filter="url(#f1fw2brzht83r)" height="56.2292" rx="4.1667" ry="4.1667" style="stroke:#7F7F7F;stroke-width:1.0416666666666667;" width="88.5417" x="45.3125" y="266.9167"/><text fill="#1E1E20" font-family="Telia Sans" font-size="12.5" lengthAdjust="spacing" textLength="46.875" x="66.1458" y="299.65">print red</text><path d="M285.9375,272.125 L285.9375,290.8646 L265.1042,295.0312 L285.9375,299.1979 L285.9375,317.9375 A0,0 0 0 0 285.9375,317.9375 L374.4792,317.9375 A0,0 0 0 0 374.4792,317.9375 L374.4792,282.5417 L364.0625,272.125 L285.9375,272.125 A0,0 0 0 0 285.9375,272.125 " fill="url(#g1fw2brzht83r2)" filter="url(#f1fw2brzht83r)" style="stroke:#0078CB;stroke-width:1.0416666666666667;"/><path d="M364.0625,272.125 L364.0625,282.5417 L374.4792,282.5417 L364.0625,272.125 " fill="url(#g1fw2brzht83r2)" style="stroke:#0078CB;stroke-width:1.0416666666666667;"/><text fill="#FFFFFF" font-family="Telia Sans" font-size="12.5" lengthAdjust="spacing" textLength="45.8333" x="302.6042" y="299.65">no color</text><rect fill="url(#g1fw2brzht83r0)" filter="url(#f1fw2brzht83r)" height="56.2292" rx="4.1667" ry="4.1667" style="stroke:#7F7F7F;stroke-width:1.0416666666666667;" width="110.4167" x="154.6875" y="266.9167"/><text fill="#1E1E20" font-family="Telia Sans" font-size="12.5" lengthAdjust="spacing" textLength="68.75" x="175.5208" y="299.65">print not red</text><polygon fill="url(#g1fw2brzht83r1)" filter="url(#f1fw2brzht83r)" points="149.7396,333.5625,162.2396,346.0625,149.7396,358.5625,137.2396,346.0625,149.7396,333.5625" style="stroke:#B5B5D4;stroke-width:1.0416666666666667;"/><rect fill="none" filter="url(#f1fw2brzht83r)" height="124.9583" rx="4.1667" ry="4.1667" style="stroke:#1E1E20;stroke-width:1.5625;" width="83.3333" x="108.0729" y="368.9792"/><path d="M161.1979,368.9792 L161.1979,397.0833 L150.7813,407.5 L108.0729,407.5 " fill="none" style="stroke:#1E1E20;stroke-width:1.5625;"/><text fill="#1E1E20" font-family="Telia Sans" font-size="12.5" lengthAdjust="spacing" textLength="21.875" x="121.6146" y="392.3375">End</text><rect fill="url(#g1fw2brzht83r0)" filter="url(#f1fw2brzht83r)" height="56.2292" rx="4.1667" ry="4.1667" style="stroke:#7F7F7F;stroke-width:1.0416666666666667;" width="62.5" x="118.4896" y="425.2083"/><text fill="#1E1E20" font-family="Telia Sans" font-size="12.5" lengthAdjust="spacing" textLength="20.8333" x="139.3229" y="457.9417">end</text><ellipse cx="149.7396" cy="550.1667" fill="none" filter="url(#f1fw2brzht83r)" rx="10.4167" ry="10.4167" style="stroke:#0078CB;stroke-width:1.5625;"/><line style="stroke:#0078CB;stroke-width:2.604166666666667;" x1="143.2946" x2="156.1846" y1="543.7217" y2="556.6116"/><line style="stroke:#0078CB;stroke-width:2.604166666666667;" x1="156.1846" x2="143.2946" y1="543.7217" y2="556.6116"/><line style="stroke:#5C524E;stroke-width:3.125;" x1="149.7396" x2="149.7396" y1="98.2292" y2="119.0625"/><polygon fill="#5C524E" points="145.5729,108.6458,149.7396,119.0625,153.9063,108.6458,149.7396,112.8125" style="stroke:#5C524E;stroke-width:1.0416666666666667;"/><line style="stroke:#5C524E;stroke-width:3.125;" x1="109.6354" x2="89.5833" y1="238.8021" y2="238.8021"/><line style="stroke:#5C524E;stroke-width:3.125;" x1="89.5833" x2="89.5833" y1="238.8021" y2="266.9167"/><polygon fill="#5C524E" points="85.4167,256.5,89.5833,266.9167,93.75,256.5,89.5833,260.6667" style="stroke:#5C524E;stroke-width:1.0416666666666667;"/><line style="stroke:#5C524E;stroke-width:3.125;" x1="189.8438" x2="209.8958" y1="238.8021" y2="238.8021"/><line style="stroke:#5C524E;stroke-width:3.125;" x1="209.8958" x2="209.8958" y1="238.8021" y2="266.9167"/><polygon fill="#5C524E" points="205.7292,256.5,209.8958,266.9167,214.0625,256.5,209.8958,260.6667" style="stroke:#5C524E;stroke-width:1.0416666666666667;"/><line style="stroke:#5C524E;stroke-width:3.125;" x1="89.5833" x2="89.5833" y1="323.1458" y2="346.0625"/><line style="stroke:#5C524E;stroke-width:3.125;" x1="89.5833" x2="137.2396" y1="346.0625" y2="346.0625"/><polygon fill="#5C524E" points="126.8229,341.8958,137.2396,346.0625,126.8229,350.2292,130.9896,346.0625" style="stroke:#5C524E;stroke-width:1.0416666666666667;"/><line style="stroke:#5C524E;stroke-width:3.125;" x1="209.8958" x2="209.8958" y1="323.1458" y2="346.0625"/><line style="stroke:#5C524E;stroke-width:3.125;" x1="209.8958" x2="162.2396" y1="346.0625" y2="346.0625"/><polygon fill="#5C524E" points="172.6563,341.8958,162.2396,346.0625,172.6563,350.2292,168.4896,346.0625" style="stroke:#5C524E;stroke-width:1.0416666666666667;"/><line style="stroke:#5C524E;stroke-width:3.125;" x1="149.7396" x2="149.7396" y1="175.2917" y2="221.1042"/><polygon fill="#5C524E" points="145.5729,210.6875,149.7396,221.1042,153.9063,210.6875,149.7396,214.8542" style="stroke:#5C524E;stroke-width:1.0416666666666667;"/><text fill="#1E1E20" font-family="Telia Sans" font-size="12.5" lengthAdjust="spacing" textLength="65.625" x="164.3229" y="198.7083">test of color</text><line style="stroke:#5C524E;stroke-width:3.125;" x1="149.7396" x2="149.7396" y1="358.5625" y2="425.2083"/><polygon fill="#5C524E" points="145.5729,414.7917,149.7396,425.2083,153.9063,414.7917,149.7396,418.9583" style="stroke:#5C524E;stroke-width:1.0416666666666667;"/><line style="stroke:#5C524E;stroke-width:3.125;" x1="149.7396" x2="149.7396" y1="481.4375" y2="539.75"/><polygon fill="#5C524E" points="145.5729,529.3333,149.7396,539.75,153.9063,529.3333,149.7396,533.5" style="stroke:#5C524E;stroke-width:1.0416666666666667;"/><text fill="#1E1E20" font-family="Telia Sans" font-size="12.5" lengthAdjust="spacing" textLength="76.0417" x="164.3229" y="517.3542">this is the end</text><!--SRC=[fLhhKzj64Fzi_HN2a1cOgQSs8OGGIiU0JPWc9eFffFsKEKjdSqMMNEcSX7RutxltakxfHt4UO-t-Rb-tjtjtyixU_OV1fq7yIzocE2EeCocBxtaxYg8TCerVvGNTV_KDbGHDClmL_o0LhVRRUnVNbxSVR-_Q1mVHZdhW8agKLmjKufosensSfsGQHTKZoO66vl449O-pibZcwMMH5MMiXcgGPOKlC4LZ-fJXU8go2eCbUry-tDnp6tU7mo58thk-w__9du-FZzdpvxkRJ_qxGHfSNWskZjfit7XmUJkwKepXQ_Xpmk3Ztoyl1-CnftPx9oT7XunwCnhU2bBtxKaoOQGl_RlHpUYQKwVJToVTBgDUzKVN0-xmBZxglNsJCEB7c-iFzn8u5QYxt_Xp3_Vm8H_O1xKZ0Nfp-URmQA1m5tUtNqQS_dR8_d3hXtLWEQPny-lzu8zxZLoxQJCKNjdsAYEp1uhpVSNvAJxi7cX0QVEh59MF7bYZo9LOyromBTM1iiXxH3Ao0R45EG3bFq-OPg9zvWfERQm4EgRwOROUcISUFPAZ12YWhIS0i_M8pAj7rre4NOsMgDeOfSIBibM87FLu8XXgj8JPVkYWQ6TH5WbEboMEzwfbak2gsj-RLxE3A8xFfaLEuuJLWLzKMC_F9kUCpqj7FTQKCqKaWoz-ESAbJSHyHsLEyfbVZ8p-9d8M9PcZykbhbJpWETu_Y5f342JBcxvSezP5KQQubAnwqIlw_GD97dE8KDm3abqeZONSKO-h3AjekKmeVDLCouiKn_z6hOtbjreVIOubHamjq9Y78pJ7SVkUjOnu34M_3VGAinfE0SjqU8S-H-mlAg79291ZIGtrZOUn3v2EF2K3uusLs56FREYAOCrGJcaTA90SmyVlfYsdQLqfdg9bHkjXucCCzeB7v1y5xXtga0M9tK-lszKmrGDAY- -Go0O6fbutZ8SdASeSbnheH4DyHYKb2Lb063wZD9NoZdHD5yKFZQK-1iJ3vmPha3wRUJ5JsaVDh-ONnIKkwDC2oycuT2RQwaKIfQynim5nGDyLetS8YJ64Q8s1isyS4NgvbH1pgTSrctC7gtDMOdG9UjFWx94ZekcW4g2FhtidP6yJOqfenij1NR5QJhRLAqybAeSqkCEkMxyQRjUjPAPqjVzxrdU96Px12cE6XUVSggRMJEirMBeTxLGKahnQJkBgEvbdADTNY29nfRfWvRxjus7KkcVXSzopqxAZsyo7kFr1rXImJJSJ9PHy8_H93usYCJizhUS2sNQFcJGj2wBMm4YPg7L5qBp8qtNBI_S34a2DMZK94gFvQ-vJ_MulcbAaUwwH0yvhDSoThL24Yz8AhsXU6_V7JPF5JKYVFQmu6lQeFjd8UXsrB6sQw66zd3pIA_pt4kS9rXKecfFtjOEXb7L2f1tzpBIhHmpiQ3ATFov2PqBEr6rYPpvEjOFPki8PUdAe7yaKips4i- -oMSPCrQnr_QPr3To5nq9ETwpXr0yO0ThF2mT2AagVra24z33e2cg73y1t_fszfdieeEERmzH3fp4T3-_m51ewP5hOkWRYXhJcXGKxeHNbRLnl94Bxyd0LegJ8dHh4YCvoyNUTbMl4gnRE7nbEc8fALwoH_SKl82odPP6PWZWfK44r-qKkUCM2yLPN4fGN2Psm8C50uxP8qbua6CsmsKWumLVZTmkOdHasPtRt7V_esdPVyuzVNLvGey2ovoPRLf_ncYrSHoQliuapl1O7za0deMGAtSni9eBcxMz62MXvLg2cbnC26JTV5BaLy9guHUgI79Oj66l4iYRwFB1suOOBYhTX6wvW4m1POlH9GVA7pd_WX4sIRmzlpg1sonFAfzJAfnIltXbxjfrkgMAbsfEI6uKdoOfbQamm8yXZskfr6XQQ8eecg39yLRJrwt-LiQWoIoaZR1t1G6ULVQHZN9y6Uexi26xG-vIMPBAaBjZWy5k2Ni_lPZ7v2vkhNL02eNkvWTPEVWjJbnLEh8cMfD2XnjsZhMhgVgqb10EgUsRehOd68JZKl3TOOYyqSW4QhS8ZIS7ptejCz1enBJA0wJO8oggsuLx5R5pxDhSBJ352mmaliSffg7hJNMiFVA5MZq1qTGvRkq-LPjkVsRSi6URr2hVpx0mQSldqkO2cUdxEYtTGA8ps3Fz1wFyVdJmK9C7hXthY3WVMfH5tJjXcMunAitt1ipUDjjsFrI-W0WbCpEh3db_Molqxis2w9e_MJ2IFMuHjWSiAZaDQQUA4OD_t2lcBYMYTLUpjxddKOezN1CsOEB242_AzjtYEMazedcq8FVjPolSOm2_wkSNA27KNoJcD1lsQiYmAQf72xmTqnBFnH57rw17ZXivpwnzhBqDK_RYuTf3g1lvuXHdoIE9JOYTplLTSOKqOo1BxsbbG3jIqJd-7j4PpiquyaN2KmnwZuCV9S9p3-vkmlNDOnN0wo3S8gN7h4CAAcdqSvlCVHX2ACf9uGOxZnjNbvZ5TCq-Kp27flMwlNnUciuVUoGkKHCzK_vzfWpDBXTF0d0MFUC7r43hJ-GruZiJtLOMAls24eqjJfYGbM72Pt5KI4Rz0qWGAmhRosA-2t1y4yHyHjGyYyKwfhrvJg7hQYUNFZ2WJ3jBOxthysEPdGypmw9JaXBwFEkSnXNKM5rFnZlvz17Riyw-_7iIaYlVF-CDfYTDp-7V0DENWmodubLFOwgVl8wOrRcXG20LTriIIlLK-XUz2HIJiQ2xz1hb8c5DWl8SfP3OzW6hu2yfYJeN__WC0]--></g></svg>