<?xml version="1.0" encoding="us-ascii" standalone="no"?><svg xmlns="http://www.w3.org/2000/svg" xmlns:xlink="http://www.w3.org/1999/xlink" contentStyleType="text/css" height="602.0833px" preserveAspectRatio="none" style="width:609px;height:602px;" version="1.1" viewBox="0 0 609 602" width="609.375px" zoomAndPan="magnify"><defs><linearGradient id="g71dh5h1yyysf0" x1="50%" x2="50%" y1="0%" y2="100%"><stop offset="0%" stop-color="#FFFFFF"/><stop offset="100%" stop-color="#F3F3F8"/></linearGradient><filter height="300%" id="f71dh5h1yyysf" width="300%" x="-1" y="-1"><feGaussianBlur result="blurOut" stdDeviation="2.0833333333333335"/><feColorMatrix in="blurOut" result="blurOut2" type="matrix" values="0 0 0 0 0 0 0 0 0 0 0 0 0 0 0 0 0 0 .4 0"/><feOffset dx="4.166666666666667" dy="4.166666666666667" in="blurOut2" result="blurOut3"/><feBlend in="SourceGraphic" in2="blurOut3" mode="normal"/></filter><linearGradient id="g71dh5h1yyysf1" x1="50%" x2="50%" y1="0%" y2="100%"><stop offset="0%" stop-color="#ECDED4"/><stop offset="100%" stop-color="#D1AE96"/></linearGradient></defs><g><text fill="#5C524E" font-family="Telia Sans" font-size="20.8333" font-weight="bold" lengthAdjust="spacing" textLength="335.4167" x="129.6875" y="40.6667">Class Diagram - telia-brown theme</text><!--class AbstractList--><g id="elem_AbstractList"><rect codeLine="10" fill="url(#g71dh5h1yyysf0)" filter="url(#f71dh5h1yyysf)" height="61.2656" id="AbstractList" rx="4.1667" ry="4.1667" style="stroke:#181818;stroke-width:1.0416666666666667;" width="114.5833" x="190.1042" y="337.0417"/><rect fill="url(#g71dh5h1yyysf1)" height="44.599" rx="4.1667" ry="4.1667" style="stroke:url(#g71dh5h1yyysf1);stroke-width:1.0416666666666667;" width="114.5833" x="190.1042" y="337.0417"/><rect fill="url(#g71dh5h1yyysf1)" height="4.1667" style="stroke:url(#g71dh5h1yyysf1);stroke-width:1.0416666666666667;" width="114.5833" x="190.1042" y="377.474"/><rect codeLine="10" fill="none" height="61.2656" id="AbstractList" rx="4.1667" ry="4.1667" style="stroke:#181818;stroke-width:1.0416666666666667;" width="114.5833" x="190.1042" y="337.0417"/><ellipse cx="204.6875" cy="359.3411" fill="#A9DCDF" rx="10.4167" ry="10.4167" style="stroke:#181818;stroke-width:1.0416666666666667;"/><path d="M204.2806,356.0432 L203.4322,359.7725 L205.1351,359.7725 Z M203.182,354.3953 L205.3853,354.3953 L207.8451,363.5078 L206.0445,363.5078 L205.483,361.2556 L203.0721,361.2556 L202.5228,363.5078 L200.7222,363.5078 Z " fill="#000000"/><text fill="#1E1E20" font-family="Telia Sans" font-size="11.4583" font-style="italic" lengthAdjust="spacing" textLength="62.5" x="228.6458" y="363.575">AbstractList</text><line style="stroke:#181818;stroke-width:1.0416666666666667;" x1="191.1458" x2="303.6458" y1="381.6406" y2="381.6406"/><line style="stroke:#181818;stroke-width:1.0416666666666667;" x1="191.1458" x2="303.6458" y1="389.974" y2="389.974"/></g><!--class AbstractCollection--><g id="elem_AbstractCollection"><rect codeLine="11" fill="url(#g71dh5h1yyysf0)" filter="url(#f71dh5h1yyysf)" height="61.2656" id="AbstractCollection" rx="4.1667" ry="4.1667" style="stroke:#181818;stroke-width:1.0416666666666667;" width="146.875" x="7.2917" y="337.0417"/><rect fill="url(#g71dh5h1yyysf1)" height="44.599" rx="4.1667" ry="4.1667" style="stroke:url(#g71dh5h1yyysf1);stroke-width:1.0416666666666667;" width="146.875" x="7.2917" y="337.0417"/><rect fill="url(#g71dh5h1yyysf1)" height="4.1667" style="stroke:url(#g71dh5h1yyysf1);stroke-width:1.0416666666666667;" width="146.875" x="7.2917" y="377.474"/><rect codeLine="11" fill="none" height="61.2656" id="AbstractCollection" rx="4.1667" ry="4.1667" style="stroke:#181818;stroke-width:1.0416666666666667;" width="146.875" x="7.2917" y="337.0417"/><ellipse cx="21.875" cy="359.3411" fill="#A9DCDF" rx="10.4167" ry="10.4167" style="stroke:#181818;stroke-width:1.0416666666666667;"/><path d="M21.4681,356.0432 L20.6197,359.7725 L22.3226,359.7725 Z M20.3695,354.3953 L22.5728,354.3953 L25.0326,363.5078 L23.232,363.5078 L22.6705,361.2556 L20.2596,361.2556 L19.7103,363.5078 L17.9097,363.5078 Z " fill="#000000"/><text fill="#1E1E20" font-family="Telia Sans" font-size="11.4583" font-style="italic" lengthAdjust="spacing" textLength="94.7917" x="45.8333" y="363.575">AbstractCollection</text><line style="stroke:#181818;stroke-width:1.0416666666666667;" x1="8.3333" x2="153.125" y1="381.6406" y2="381.6406"/><line style="stroke:#181818;stroke-width:1.0416666666666667;" x1="8.3333" x2="153.125" y1="389.974" y2="389.974"/></g><!--class List--><g id="elem_List"><rect codeLine="12" fill="url(#g71dh5h1yyysf0)" filter="url(#f71dh5h1yyysf)" height="61.2656" id="List" rx="4.1667" ry="4.1667" style="stroke:#181818;stroke-width:1.0416666666666667;" width="70.8333" x="205.7292" y="125.5417"/><rect fill="url(#g71dh5h1yyysf1)" height="44.599" rx="4.1667" ry="4.1667" style="stroke:url(#g71dh5h1yyysf1);stroke-width:1.0416666666666667;" width="70.8333" x="205.7292" y="125.5417"/><rect fill="url(#g71dh5h1yyysf1)" height="4.1667" style="stroke:url(#g71dh5h1yyysf1);stroke-width:1.0416666666666667;" width="70.8333" x="205.7292" y="165.974"/><rect codeLine="12" fill="none" height="61.2656" id="List" rx="4.1667" ry="4.1667" style="stroke:#181818;stroke-width:1.0416666666666667;" width="70.8333" x="205.7292" y="125.5417"/><ellipse cx="220.3125" cy="147.8411" fill="#B4A7E5" rx="10.4167" ry="10.4167" style="stroke:#181818;stroke-width:1.0416666666666667;"/><path d="M217.7165,145.003 L217.7165,143.4161 L223.1425,143.4161 L223.1425,145.003 L221.3298,145.003 L221.3298,150.9417 L223.1425,150.9417 L223.1425,152.5286 L217.7165,152.5286 L217.7165,150.9417 L219.5292,150.9417 L219.5292,145.003 Z " fill="#000000"/><text fill="#1E1E20" font-family="Telia Sans" font-size="11.4583" font-style="italic" lengthAdjust="spacing" textLength="18.75" x="244.2708" y="152.075">List</text><line style="stroke:#181818;stroke-width:1.0416666666666667;" x1="206.7708" x2="275.5208" y1="170.1406" y2="170.1406"/><line style="stroke:#181818;stroke-width:1.0416666666666667;" x1="206.7708" x2="275.5208" y1="178.474" y2="178.474"/></g><!--class Collection--><g id="elem_Collection"><rect codeLine="13" fill="url(#g71dh5h1yyysf0)" filter="url(#f71dh5h1yyysf)" height="61.2656" id="Collection" rx="4.1667" ry="4.1667" style="stroke:#181818;stroke-width:1.0416666666666667;" width="103.125" x="61.4583" y="125.5417"/><rect fill="url(#g71dh5h1yyysf1)" height="44.599" rx="4.1667" ry="4.1667" style="stroke:url(#g71dh5h1yyysf1);stroke-width:1.0416666666666667;" width="103.125" x="61.4583" y="125.5417"/><rect fill="url(#g71dh5h1yyysf1)" height="4.1667" style="stroke:url(#g71dh5h1yyysf1);stroke-width:1.0416666666666667;" width="103.125" x="61.4583" y="165.974"/><rect codeLine="13" fill="none" height="61.2656" id="Collection" rx="4.1667" ry="4.1667" style="stroke:#181818;stroke-width:1.0416666666666667;" width="103.125" x="61.4583" y="125.5417"/><ellipse cx="76.0417" cy="147.8411" fill="#B4A7E5" rx="10.4167" ry="10.4167" style="stroke:#181818;stroke-width:1.0416666666666667;"/><path d="M73.4456,145.003 L73.4456,143.4161 L78.8717,143.4161 L78.8717,145.003 L77.0589,145.003 L77.0589,150.9417 L78.8717,150.9417 L78.8717,152.5286 L73.4456,152.5286 L73.4456,150.9417 L75.2584,150.9417 L75.2584,145.003 Z " fill="#000000"/><text fill="#1E1E20" font-family="Telia Sans" font-size="11.4583" font-style="italic" lengthAdjust="spacing" textLength="51.0417" x="100" y="152.075">Collection</text><line style="stroke:#181818;stroke-width:1.0416666666666667;" x1="62.5" x2="163.5417" y1="170.1406" y2="170.1406"/><line style="stroke:#181818;stroke-width:1.0416666666666667;" x1="62.5" x2="163.5417" y1="178.474" y2="178.474"/></g><!--class ArrayList--><g id="elem_ArrayList"><rect codeLine="22" fill="url(#g71dh5h1yyysf0)" filter="url(#f71dh5h1yyysf)" height="129.6302" id="ArrayList" rx="4.1667" ry="4.1667" style="stroke:#181818;stroke-width:1.0416666666666667;" width="146.875" x="173.9583" y="460.8021"/><rect fill="url(#g71dh5h1yyysf1)" height="44.599" rx="4.1667" ry="4.1667" style="stroke:url(#g71dh5h1yyysf1);stroke-width:1.0416666666666667;" width="146.875" x="173.9583" y="460.8021"/><rect fill="url(#g71dh5h1yyysf1)" height="4.1667" style="stroke:url(#g71dh5h1yyysf1);stroke-width:1.0416666666666667;" width="146.875" x="173.9583" y="501.2344"/><rect codeLine="22" fill="none" height="129.6302" id="ArrayList" rx="4.1667" ry="4.1667" style="stroke:#181818;stroke-width:1.0416666666666667;" width="146.875" x="173.9583" y="460.8021"/><ellipse cx="210.5729" cy="483.1016" fill="#ADD1B2" rx="10.4167" ry="10.4167" style="stroke:#181818;stroke-width:1.0416666666666667;"/><path d="M212.4833,487.5266 Q212.0561,487.7463 211.5861,487.8562 Q211.1161,487.9661 210.5973,487.9661 Q208.7541,487.9661 207.7836,486.7515 Q206.8132,485.5369 206.8132,483.2419 Q206.8132,480.9409 207.7836,479.7263 Q208.7541,478.5117 210.5973,478.5117 Q211.1161,478.5117 211.5922,478.6216 Q212.0683,478.7314 212.4833,478.9512 L212.4833,480.9531 Q212.0194,480.5259 211.583,480.3275 Q211.1466,480.1292 210.6828,480.1292 Q209.694,480.1292 209.1905,480.9135 Q208.6869,481.6978 208.6869,483.2419 Q208.6869,484.78 209.1905,485.5643 Q209.694,486.3486 210.6828,486.3486 Q211.1466,486.3486 211.583,486.1503 Q212.0194,485.9519 212.4833,485.5247 Z " fill="#000000"/><text fill="#1E1E20" font-family="Telia Sans" font-size="11.4583" lengthAdjust="spacing" textLength="45.8333" x="239.4271" y="487.3354">ArrayList</text><line style="stroke:#181818;stroke-width:1.0416666666666667;" x1="175" x2="319.7917" y1="505.401" y2="505.401"/><text fill="#1E1E20" font-family="Telia Sans" font-size="11.4583" lengthAdjust="spacing" textLength="113.5417" x="190.625" y="530.8927">Object[] elementData</text><line style="stroke:#181818;stroke-width:1.0416666666666667;" x1="175" x2="319.7917" y1="547.9167" y2="547.9167"/><text fill="#1E1E20" font-family="Telia Sans" font-size="11.4583" lengthAdjust="spacing" textLength="28.125" x="190.625" y="573.4083">size()</text></g><!--class TimeUnit--><g id="elem_TimeUnit"><rect codeLine="27" fill="url(#g71dh5h1yyysf0)" filter="url(#f71dh5h1yyysf)" height="163.8125" id="TimeUnit" rx="4.1667" ry="4.1667" style="stroke:#181818;stroke-width:1.0416666666666667;" width="98.9583" x="312.5" y="74.2708"/><rect fill="url(#g71dh5h1yyysf1)" height="44.599" rx="4.1667" ry="4.1667" style="stroke:url(#g71dh5h1yyysf1);stroke-width:1.0416666666666667;" width="98.9583" x="312.5" y="74.2708"/><rect fill="url(#g71dh5h1yyysf1)" height="4.1667" style="stroke:url(#g71dh5h1yyysf1);stroke-width:1.0416666666666667;" width="98.9583" x="312.5" y="114.7031"/><rect codeLine="27" fill="none" height="163.8125" id="TimeUnit" rx="4.1667" ry="4.1667" style="stroke:#181818;stroke-width:1.0416666666666667;" width="98.9583" x="312.5" y="74.2708"/><ellipse cx="327.0833" cy="96.5703" fill="#EB937F" rx="10.4167" ry="10.4167" style="stroke:#181818;stroke-width:1.0416666666666667;"/><path d="M330.1392,101.2578 L324.4629,101.2578 L324.4629,92.1453 L330.1392,92.1453 L330.1392,93.7322 L326.2634,93.7322 L326.2634,95.6975 L329.7729,95.6975 L329.7729,97.2844 L326.2634,97.2844 L326.2634,99.6709 L330.1392,99.6709 Z " fill="#000000"/><text fill="#1E1E20" font-family="Telia Sans" font-size="11.4583" lengthAdjust="spacing" textLength="46.875" x="351.0417" y="100.8042">TimeUnit</text><line style="stroke:#181818;stroke-width:1.0416666666666667;" x1="313.5417" x2="410.4167" y1="118.8698" y2="118.8698"/><text fill="#1E1E20" font-family="Telia Sans" font-size="11.4583" lengthAdjust="spacing" textLength="29.1667" x="329.1667" y="144.3615">DAYS</text><text fill="#1E1E20" font-family="Telia Sans" font-size="11.4583" lengthAdjust="spacing" textLength="39.5833" x="329.1667" y="178.5438">HOURS</text><text fill="#1E1E20" font-family="Telia Sans" font-size="11.4583" lengthAdjust="spacing" textLength="47.9167" x="329.1667" y="212.726">MINUTES</text><line style="stroke:#181818;stroke-width:1.0416666666666667;" x1="313.5417" x2="410.4167" y1="229.75" y2="229.75"/></g><!--class SuppressWarnings--><g id="elem_SuppressWarnings"><rect codeLine="33" fill="url(#g71dh5h1yyysf0)" filter="url(#f71dh5h1yyysf)" height="61.2656" id="SuppressWarnings" rx="4.1667" ry="4.1667" style="stroke:#181818;stroke-width:1.0416666666666667;" width="148.9583" x="447.9167" y="125.5417"/><rect fill="url(#g71dh5h1yyysf1)" height="44.599" rx="4.1667" ry="4.1667" style="stroke:url(#g71dh5h1yyysf1);stroke-width:1.0416666666666667;" width="148.9583" x="447.9167" y="125.5417"/><rect fill="url(#g71dh5h1yyysf1)" height="4.1667" style="stroke:url(#g71dh5h1yyysf1);stroke-width:1.0416666666666667;" width="148.9583" x="447.9167" y="165.974"/><rect codeLine="33" fill="none" height="61.2656" id="SuppressWarnings" rx="4.1667" ry="4.1667" style="stroke:#181818;stroke-width:1.0416666666666667;" width="148.9583" x="447.9167" y="125.5417"/><ellipse cx="462.5" cy="147.8411" fill="#E3664A" rx="10.4167" ry="10.4167" style="stroke:#181818;stroke-width:1.0416666666666667;"/><path d="M464.2721,147.9001 Q464.2721,147.2105 463.9608,146.8198 Q463.6495,146.4292 463.1063,146.4292 Q462.5631,146.4292 462.2548,146.8198 Q461.9466,147.2105 461.9466,147.9001 Q461.9466,148.5959 462.2548,148.9866 Q462.5631,149.3772 463.1063,149.3772 Q463.6495,149.3772 463.9608,148.9866 Q464.2721,148.5959 464.2721,147.9001 Z M465.4073,150.4026 L464.211,150.4026 L464.211,149.9021 Q463.9791,150.2256 463.6648,150.3751 Q463.3504,150.5247 462.911,150.5247 Q461.91,150.5247 461.2966,149.8044 Q460.6832,149.0842 460.6832,147.9001 Q460.6832,146.7222 461.2935,146.005 Q461.9039,145.2878 462.911,145.2878 Q463.3443,145.2878 463.6739,145.4374 Q464.0035,145.5869 464.211,145.8738 L464.211,145.6235 Q464.211,144.7935 463.7563,144.3418 Q463.3016,143.8901 462.4593,143.8901 Q461.1898,143.8901 460.3872,145.0071 Q459.5846,146.124 459.5846,147.9124 Q459.5846,149.7861 460.5123,150.8939 Q461.44,152.0017 462.9842,152.0017 Q463.4725,152.0017 463.9303,151.8583 Q464.388,151.7148 464.8092,151.428 L465.3707,152.5022 Q464.8763,152.8379 464.2934,153.0057 Q463.7105,153.1736 463.0452,153.1736 Q460.909,153.1736 459.6395,151.7515 Q458.37,150.3293 458.37,147.9124 Q458.37,145.5503 459.5113,144.1312 Q460.6527,142.7122 462.5326,142.7122 Q463.8631,142.7122 464.6352,143.5148 Q465.4073,144.3174 465.4073,145.7029 Z " fill="#000000"/><text fill="#1E1E20" font-family="Telia Sans" font-size="11.4583" lengthAdjust="spacing" textLength="96.875" x="486.4583" y="152.075">SuppressWarnings</text><line style="stroke:#181818;stroke-width:1.0416666666666667;" x1="448.9583" x2="595.8333" y1="170.1406" y2="170.1406"/><line style="stroke:#181818;stroke-width:1.0416666666666667;" x1="448.9583" x2="595.8333" y1="178.474" y2="178.474"/></g><!--reverse link List to AbstractList--><g id="link_List_AbstractList"><path codeLine="15" d="M242.7083,209.5417 C243.9063,249.6563 245.5104,303.5833 246.5,336.6875 " fill="none" id="List-backto-AbstractList" style="stroke:#5C524E;stroke-width:3.125;"/><polygon fill="none" points="235.4167,209.8438,242.0833,188.8021,250,209.4063,235.4167,209.8438" style="stroke:#5C524E;stroke-width:3.125;"/><text fill="#1E1E20" font-family="Telia Sans" font-size="12.5" lengthAdjust="spacing" textLength="90.625" x="256.7708" y="292.6917">this is a message</text></g><!--reverse link Collection to AbstractCollection--><g id="link_Collection_AbstractCollection"><path codeLine="16" d="M105,209.2604 C98.8021,249.4063 90.4583,303.5104 85.3438,336.6875 " fill="none" id="Collection-backto-AbstractCollection" style="stroke:#5C524E;stroke-width:3.125;"/><polygon fill="none" points="97.7708,208.2604,108.1563,188.7813,112.1875,210.4792,97.7708,208.2604" style="stroke:#5C524E;stroke-width:3.125;"/></g><!--reverse link Collection to List--><g id="link_Collection_List"><path codeLine="18" d="M187.0417,156.1771 C193.3542,156.1771 199.5417,156.1771 205.3333,156.1771 " fill="none" id="Collection-backto-List" style="stroke:#5C524E;stroke-width:3.125;"/><polygon fill="none" points="187.1771,163.4688,166.3438,156.1771,187.1771,148.8854,187.1771,163.4688" style="stroke:#5C524E;stroke-width:3.125;"/></g><!--reverse link AbstractCollection to AbstractList--><g id="link_AbstractCollection_AbstractList"><path codeLine="19" d="M176.625,367.6771 C181.0521,367.6771 185.4375,367.6771 189.7188,367.6771 " fill="none" id="AbstractCollection-backto-AbstractList" style="stroke:#5C524E;stroke-width:3.125;"/><polygon fill="none" points="176.7292,374.9688,155.8958,367.6771,176.7292,360.3854,176.7292,374.9688" style="stroke:#5C524E;stroke-width:3.125;"/></g><!--reverse link AbstractList to ArrayList--><g id="link_AbstractList_ArrayList"><path codeLine="20" d="M247.3958,420.8229 C247.3958,433.5208 247.3958,447.2396 247.3958,460.4271 " fill="none" id="AbstractList-backto-ArrayList" style="stroke:#5C524E;stroke-width:3.125;"/><polygon fill="none" points="240.1042,421.1771,247.3958,400.3438,254.6875,421.1771,240.1042,421.1771" style="stroke:#5C524E;stroke-width:3.125;"/></g><!--SRC=[fLfjRzis4Fvi_Gh5IR44c34xJTDqo08uVac2fKvXk-YAOIXeYNQuo98dqMszBVzzHugKI96KxSK9aEZkuRtnU4TIFZYQtWxU3_nV_2R54K6jMPfyYvkUvnsGkVygJkZngwye9MWMuI_uEybeTjmykhxfFTm_Z9id9zw1VE0YKXHdAvJYc3Qz0no7PEvvsHE9WOQM_Wm5JuiqMSTXBucIr9T35SWwmzUOeWdTHDYVeoZ3OCdHfzkxARVnS3WSWkIZct7tCty-Fpzdpn_6T- -xuvmqwFK7_RCc6pSPz1v6VSaOleQV2mQVVEpr1fC9fxOx5nTdfunwDne-vAJssujWnaYVkkFHtUY6K-VpTnVjDgFskwER0NVu49zrthu96F7-xkPsAe3p73N-bJztS0UVye5TK3lAGMzwRqxF1X9tFNxuDEBqjqFsmwqV5e7bcDBDBzF1RrE5NBXPPKYyjErLH1QF5CV7alEZVze-KO32vbSXIfyii5AHAR7WcU2gL0FA8cyHoSWQf2h804Z_USAK4sqpD-SKnWgWOQeTLjKZyiIYHt2a00ciwd70gdhop2j65rfokXmjK8KnKeaLLLMHvwZ5avmXHmjOrGyLv1siqYJ0uJh5_b6s3WASPST7osnnuld-vJo9gH-mEl2B3ElLvUoAyNdfACRgSkQ8HF2FNKxkqYvYlg4q9l72BaP4VnSvgvGiKRhvaWMFU8cFJxp640I9ygOkLwzndQGXJWMhMFIIFdqamLCC4V8xGAeMIcqXj-HZdM4PJTS1XNyLq-8anFu_NcDd-Ot6FOcnmEHJ2pJcuGWjiT-SifRXJw3eDu6UOLR3AM2P3klGPu_zeXIQJ0uoB2cWjl4mzX7IaQUaOxos4bloaGsj2TO2nPGMWGB9FdpiRbRbbAqhn7EqZcWnBFzeWwtW2VbRWZkdAcH5VFFJQRSLJFQ8mkGR9BA6WQbN3UFX2P8qnga2kb0G7r1AIK1M48OFA0o5l3DLqtNoNM79ZmQnyBd12gJBPZwVAUKZvrVnY-8K9tIpmc8oUiP4LtgHGAbhJ6z07D0rnQWTGc0q8KfZuEmxGuHQRWL4N-f5pURSGNtE2emgGMqQd3qoH9GTL03KyKNlXEmjOqm9ZNWvA2fMmyYsOkN9HEMG4dVQDkjNoMsRbKoNBlT_p-ekCS8BM67CCFUSLwffPQRL6YpSzWuo2acUhMT-zeqi8nIhAqIIk59Li7I_wkEfrvYoy1dkLTEofThCXvZzGTGKi4qr4mMKV2LqeuP6qfYTbjPpZQfsJvWq9Gkyna1B6Q_H9sYPnE6svQNw0GaWHzLDWi0e_khxLBlRgx8KgPuhP8VpIWqpPyiLuIIjX3TlNZltnrsJnKn8cpsiE6hso3vPodhjDIhQ5D73OZbPf6VuhpME0wmga3GZxmi7NIbhX4Wv-kbfLumOLAF9T7w_Tfq9ELErYPtvEBKQp4OVHsXZKE_97BCzXB7lghAqcIfOs_fDumQuAuk5d6vOmwct607QpdC7GYWADriWkNGtg0-rmmRWE__MKTaz9D3mpM2geLEOXeTZF8U63fdcjgw4c24jU6x1HcZpyZOfDXAkVRcx2b6In4ODOaHZkTYxJkqQiQg5yqU40wOYKnKhP7lnSmYBQPf4kY1ESbHGnVuy5wnYmVXALyefBn8wOq62WTfjaQ2zI31QOBsHS8AjnXycC3iBhC_iuJl-KRKTlkOVkxeueLg1PSzbjjIVySejN4iahx69qxpE3-oEJaB97BgPtanochM_QIMWOLc1YbvES6JSSfN4bO0Nn3rIbyImRC5OBPO5qUP1PHUkkI1vExRX33O1a2LQdyn9zj3P3vomIRBjuVKPL6vvNFaKLl8fnFKxOyksqonLh5HRKdAdy0HHiWwr2MO4SKohNwTkeI6YQ8OopLT9sxx-wun5cLvA6M7l23ewg-WZBUtwrD5pH4SmWzwbD2MpDJN16eVV4dGwTZUJsPzON-qvnH6wbnjOsSdlOUewmq5beWN9TQWnzsXrJTskDOLWG7MFDBq5KJi4kvht3aliXKQkG6Eby0YIyxpt8XEjHioJ262g3JcbhcsOLp4xrxxTxG9JjD1mmakiCXggsdItsWF_q4gFGBG-XokxJvbc-v_PzomP-lKAj_Fo4XfoklcGG5EzkkB5soaKHbk6VoVq_uyE7XCIuEr3BN670-jQYpidxBCjHgdUlk3PcaRxxiUA5r2E12PwzM7FBslbzfsPCrs3fyfC14zxX6s5qmoEGqffuWHdtxSA-PE9Q5ncxEtkbTTWZts25amSMC85sTvRF7kD3Lf6Eq8lVnBoBGRmYtvkiJH2taLoJgb1lQPCauHMIExt0ohYMNkYA7koY353PxdrzvMN8R9-NDyOI7a3VrvZXZYIs9HKaxdOAzPOumQonBun5fG1rQrJto5jqLok4qia3EMmnqZuST8TP_V-nctl4bOnd0xY7KAgtJgui7dDFdVp-HSZ24KH2QmWmt7jwdBtc6wP9qgMaFHMjxUl2ztPK-laEKgYPQh_pxJ1cIN3eMFEd4SyvtfmdUdi1Znx-VzrXOg_O8IZIrcc1CLPS9dSEec8No0f0dF2llBOjuBCBmJnBn4rJxpydLAF7x9aCMtvuZj6b4a6KUnBFHPWyOMX7vItZZKtQ1wQGGTWDnhveQuh7k_1ff8dgRtY3iqhBn8uj7nKC1vZ-PV_jbgQt9_12PBvy8ly9Sm6swwNetIyAat7v7fD7ETfRgWFGdgQeWtdUS9jIU0p-S3FVR__uUC8WXtJFXoYWPp1IkDDsSFnUkbFOVL-Z4a-fD_zF84_jmyVn-pl-xlHn-bWmh0eXcQ1k6MJzMgLWiEVykzDPDv_]--></g></svg>