<?xml version="1.0" encoding="us-ascii" standalone="no"?><svg xmlns="http://www.w3.org/2000/svg" xmlns:xlink="http://www.w3.org/1999/xlink" contentStyleType="text/css" height="741.6667px" preserveAspectRatio="none" style="width:769px;height:741px;" version="1.1" viewBox="0 0 769 741" width="769.7917px" zoomAndPan="magnify"><defs><linearGradient id="gz8k18n4fuasq0" x1="50%" x2="50%" y1="0%" y2="100%"><stop offset="0%" stop-color="#FFFFFF"/><stop offset="100%" stop-color="#F3F3F8"/></linearGradient><filter height="300%" id="fz8k18n4fuasq" width="300%" x="-1" y="-1"><feGaussianBlur result="blurOut" stdDeviation="2.0833333333333335"/><feColorMatrix in="blurOut" result="blurOut2" type="matrix" values="0 0 0 0 0 0 0 0 0 0 0 0 0 0 0 0 0 0 .4 0"/><feOffset dx="4.166666666666667" dy="4.166666666666667" in="blurOut2" result="blurOut3"/><feBlend in="SourceGraphic" in2="blurOut3" mode="normal"/></filter><linearGradient id="gz8k18n4fuasq1" x1="50%" x2="50%" y1="0%" y2="100%"><stop offset="0%" stop-color="#ECDED4"/><stop offset="100%" stop-color="#D1AE96"/></linearGradient></defs><g><text fill="#5C524E" font-family="Telia Sans" font-size="20.8333" font-weight="bold" lengthAdjust="spacing" textLength="560.4167" x="97.3958" y="40.6667">Class Diagram With Abstract Interface- telia-brown theme</text><!--class AbstractList--><g id="elem_AbstractList"><rect codeLine="8" fill="url(#gz8k18n4fuasq0)" filter="url(#fz8k18n4fuasq)" height="61.2656" id="AbstractList" rx="4.1667" ry="4.1667" style="stroke:#181818;stroke-width:1.0416666666666667;" width="114.5833" x="289.0625" y="388.3229"/><rect fill="url(#gz8k18n4fuasq1)" height="44.599" rx="4.1667" ry="4.1667" style="stroke:url(#gz8k18n4fuasq1);stroke-width:1.0416666666666667;" width="114.5833" x="289.0625" y="388.3229"/><rect fill="url(#gz8k18n4fuasq1)" height="4.1667" style="stroke:url(#gz8k18n4fuasq1);stroke-width:1.0416666666666667;" width="114.5833" x="289.0625" y="428.7552"/><rect codeLine="8" fill="none" height="61.2656" id="AbstractList" rx="4.1667" ry="4.1667" style="stroke:#181818;stroke-width:1.0416666666666667;" width="114.5833" x="289.0625" y="388.3229"/><ellipse cx="303.6458" cy="410.6224" fill="#A9DCDF" rx="10.4167" ry="10.4167" style="stroke:#181818;stroke-width:1.0416666666666667;"/><path d="M303.2389,407.3245 L302.3905,411.0537 L304.0934,411.0537 Z M302.1403,405.6765 L304.3437,405.6765 L306.8034,414.7891 L305.0028,414.7891 L304.4413,412.5369 L302.0304,412.5369 L301.4811,414.7891 L299.6806,414.7891 Z " fill="#000000"/><text fill="#1E1E20" font-family="Telia Sans" font-size="11.4583" font-style="italic" lengthAdjust="spacing" textLength="62.5" x="327.6042" y="414.8563">AbstractList</text><line style="stroke:#181818;stroke-width:1.0416666666666667;" x1="290.1042" x2="402.6042" y1="432.9219" y2="432.9219"/><line style="stroke:#181818;stroke-width:1.0416666666666667;" x1="290.1042" x2="402.6042" y1="441.2552" y2="441.2552"/></g><!--class AbstractCollection--><g id="elem_AbstractCollection"><rect codeLine="9" fill="url(#gz8k18n4fuasq0)" filter="url(#fz8k18n4fuasq)" height="61.2656" id="AbstractCollection" rx="4.1667" ry="4.1667" style="stroke:#181818;stroke-width:1.0416666666666667;" width="146.875" x="7.2917" y="388.3229"/><rect fill="url(#gz8k18n4fuasq1)" height="44.599" rx="4.1667" ry="4.1667" style="stroke:url(#gz8k18n4fuasq1);stroke-width:1.0416666666666667;" width="146.875" x="7.2917" y="388.3229"/><rect fill="url(#gz8k18n4fuasq1)" height="4.1667" style="stroke:url(#gz8k18n4fuasq1);stroke-width:1.0416666666666667;" width="146.875" x="7.2917" y="428.7552"/><rect codeLine="9" fill="none" height="61.2656" id="AbstractCollection" rx="4.1667" ry="4.1667" style="stroke:#181818;stroke-width:1.0416666666666667;" width="146.875" x="7.2917" y="388.3229"/><ellipse cx="21.875" cy="410.6224" fill="#A9DCDF" rx="10.4167" ry="10.4167" style="stroke:#181818;stroke-width:1.0416666666666667;"/><path d="M21.4681,407.3245 L20.6197,411.0537 L22.3226,411.0537 Z M20.3695,405.6765 L22.5728,405.6765 L25.0326,414.7891 L23.232,414.7891 L22.6705,412.5369 L20.2596,412.5369 L19.7103,414.7891 L17.9097,414.7891 Z " fill="#000000"/><text fill="#1E1E20" font-family="Telia Sans" font-size="11.4583" font-style="italic" lengthAdjust="spacing" textLength="94.7917" x="45.8333" y="414.8563">AbstractCollection</text><line style="stroke:#181818;stroke-width:1.0416666666666667;" x1="8.3333" x2="153.125" y1="432.9219" y2="432.9219"/><line style="stroke:#181818;stroke-width:1.0416666666666667;" x1="8.3333" x2="153.125" y1="441.2552" y2="441.2552"/></g><!--class List--><g id="elem_List"><rect codeLine="10" fill="url(#gz8k18n4fuasq0)" filter="url(#fz8k18n4fuasq)" height="61.2656" id="List" rx="4.1667" ry="4.1667" style="stroke:#181818;stroke-width:1.0416666666666667;" width="70.8333" x="276.5625" y="125.5521"/><rect fill="url(#gz8k18n4fuasq1)" height="44.599" rx="4.1667" ry="4.1667" style="stroke:url(#gz8k18n4fuasq1);stroke-width:1.0416666666666667;" width="70.8333" x="276.5625" y="125.5521"/><rect fill="url(#gz8k18n4fuasq1)" height="4.1667" style="stroke:url(#gz8k18n4fuasq1);stroke-width:1.0416666666666667;" width="70.8333" x="276.5625" y="165.9844"/><rect codeLine="10" fill="none" height="61.2656" id="List" rx="4.1667" ry="4.1667" style="stroke:#181818;stroke-width:1.0416666666666667;" width="70.8333" x="276.5625" y="125.5521"/><ellipse cx="291.1458" cy="147.8516" fill="#B4A7E5" rx="10.4167" ry="10.4167" style="stroke:#181818;stroke-width:1.0416666666666667;"/><path d="M288.5498,145.0134 L288.5498,143.4265 L293.9758,143.4265 L293.9758,145.0134 L292.1631,145.0134 L292.1631,150.9521 L293.9758,150.9521 L293.9758,152.5391 L288.5498,152.5391 L288.5498,150.9521 L290.3625,150.9521 L290.3625,145.0134 Z " fill="#000000"/><text fill="#1E1E20" font-family="Telia Sans" font-size="11.4583" font-style="italic" lengthAdjust="spacing" textLength="18.75" x="315.1042" y="152.0854">List</text><line style="stroke:#181818;stroke-width:1.0416666666666667;" x1="277.6042" x2="346.3542" y1="170.151" y2="170.151"/><line style="stroke:#181818;stroke-width:1.0416666666666667;" x1="277.6042" x2="346.3542" y1="178.4844" y2="178.4844"/></g><!--class Collection--><g id="elem_Collection"><rect codeLine="11" fill="url(#gz8k18n4fuasq0)" filter="url(#fz8k18n4fuasq)" height="61.2656" id="Collection" rx="4.1667" ry="4.1667" style="stroke:#181818;stroke-width:1.0416666666666667;" width="103.125" x="47.9167" y="125.5521"/><rect fill="url(#gz8k18n4fuasq1)" height="44.599" rx="4.1667" ry="4.1667" style="stroke:url(#gz8k18n4fuasq1);stroke-width:1.0416666666666667;" width="103.125" x="47.9167" y="125.5521"/><rect fill="url(#gz8k18n4fuasq1)" height="4.1667" style="stroke:url(#gz8k18n4fuasq1);stroke-width:1.0416666666666667;" width="103.125" x="47.9167" y="165.9844"/><rect codeLine="11" fill="none" height="61.2656" id="Collection" rx="4.1667" ry="4.1667" style="stroke:#181818;stroke-width:1.0416666666666667;" width="103.125" x="47.9167" y="125.5521"/><ellipse cx="62.5" cy="147.8516" fill="#B4A7E5" rx="10.4167" ry="10.4167" style="stroke:#181818;stroke-width:1.0416666666666667;"/><path d="M59.904,145.0134 L59.904,143.4265 L65.33,143.4265 L65.33,145.0134 L63.5173,145.0134 L63.5173,150.9521 L65.33,150.9521 L65.33,152.5391 L59.904,152.5391 L59.904,150.9521 L61.7167,150.9521 L61.7167,145.0134 Z " fill="#000000"/><text fill="#1E1E20" font-family="Telia Sans" font-size="11.4583" font-style="italic" lengthAdjust="spacing" textLength="51.0417" x="86.4583" y="152.0854">Collection</text><line style="stroke:#181818;stroke-width:1.0416666666666667;" x1="48.9583" x2="150" y1="170.151" y2="170.151"/><line style="stroke:#181818;stroke-width:1.0416666666666667;" x1="48.9583" x2="150" y1="178.4844" y2="178.4844"/></g><!--class ArrayList--><g id="elem_ArrayList"><rect codeLine="20" fill="url(#gz8k18n4fuasq0)" filter="url(#fz8k18n4fuasq)" height="129.6302" id="ArrayList" rx="4.1667" ry="4.1667" style="stroke:#181818;stroke-width:1.0416666666666667;" width="146.875" x="272.9167" y="599.8125"/><rect fill="url(#gz8k18n4fuasq1)" height="44.599" rx="4.1667" ry="4.1667" style="stroke:url(#gz8k18n4fuasq1);stroke-width:1.0416666666666667;" width="146.875" x="272.9167" y="599.8125"/><rect fill="url(#gz8k18n4fuasq1)" height="4.1667" style="stroke:url(#gz8k18n4fuasq1);stroke-width:1.0416666666666667;" width="146.875" x="272.9167" y="640.2448"/><rect codeLine="20" fill="none" height="129.6302" id="ArrayList" rx="4.1667" ry="4.1667" style="stroke:#181818;stroke-width:1.0416666666666667;" width="146.875" x="272.9167" y="599.8125"/><ellipse cx="309.5313" cy="622.112" fill="#ADD1B2" rx="10.4167" ry="10.4167" style="stroke:#181818;stroke-width:1.0416666666666667;"/><path d="M311.4417,626.537 Q311.0144,626.7568 310.5444,626.8666 Q310.0745,626.9765 309.5557,626.9765 Q307.7124,626.9765 306.7419,625.7619 Q305.7715,624.5473 305.7715,622.2524 Q305.7715,619.9513 306.7419,618.7367 Q307.7124,617.5221 309.5557,617.5221 Q310.0745,617.5221 310.5505,617.632 Q311.0266,617.7419 311.4417,617.9616 L311.4417,619.9635 Q310.9778,619.5363 310.5414,619.3379 Q310.105,619.1396 309.6411,619.1396 Q308.6523,619.1396 308.1488,619.9239 Q307.6453,620.7082 307.6453,622.2524 Q307.6453,623.7904 308.1488,624.5747 Q308.6523,625.3591 309.6411,625.3591 Q310.105,625.3591 310.5414,625.1607 Q310.9778,624.9623 311.4417,624.5351 Z " fill="#000000"/><text fill="#1E1E20" font-family="Telia Sans" font-size="11.4583" lengthAdjust="spacing" textLength="45.8333" x="338.3854" y="626.3458">ArrayList</text><line style="stroke:#181818;stroke-width:1.0416666666666667;" x1="273.9583" x2="418.75" y1="644.4115" y2="644.4115"/><text fill="#1E1E20" font-family="Telia Sans" font-size="11.4583" lengthAdjust="spacing" textLength="113.5417" x="289.5833" y="669.9031">Object[] elementData</text><line style="stroke:#181818;stroke-width:1.0416666666666667;" x1="273.9583" x2="418.75" y1="686.9271" y2="686.9271"/><text fill="#1E1E20" font-family="Telia Sans" font-size="11.4583" lengthAdjust="spacing" textLength="28.125" x="289.5833" y="712.4188">size()</text></g><!--class TimeUnit--><g id="elem_TimeUnit"><rect codeLine="25" fill="url(#gz8k18n4fuasq0)" filter="url(#fz8k18n4fuasq)" height="163.8125" id="TimeUnit" rx="4.1667" ry="4.1667" style="stroke:#181818;stroke-width:1.0416666666666667;" width="98.9583" x="472.9167" y="74.2708"/><rect fill="url(#gz8k18n4fuasq1)" height="44.599" rx="4.1667" ry="4.1667" style="stroke:url(#gz8k18n4fuasq1);stroke-width:1.0416666666666667;" width="98.9583" x="472.9167" y="74.2708"/><rect fill="url(#gz8k18n4fuasq1)" height="4.1667" style="stroke:url(#gz8k18n4fuasq1);stroke-width:1.0416666666666667;" width="98.9583" x="472.9167" y="114.7031"/><rect codeLine="25" fill="none" height="163.8125" id="TimeUnit" rx="4.1667" ry="4.1667" style="stroke:#181818;stroke-width:1.0416666666666667;" width="98.9583" x="472.9167" y="74.2708"/><ellipse cx="487.5" cy="96.5703" fill="#EB937F" rx="10.4167" ry="10.4167" style="stroke:#181818;stroke-width:1.0416666666666667;"/><path d="M490.5558,101.2578 L484.8796,101.2578 L484.8796,92.1453 L490.5558,92.1453 L490.5558,93.7322 L486.6801,93.7322 L486.6801,95.6975 L490.1896,95.6975 L490.1896,97.2844 L486.6801,97.2844 L486.6801,99.6709 L490.5558,99.6709 Z " fill="#000000"/><text fill="#1E1E20" font-family="Telia Sans" font-size="11.4583" lengthAdjust="spacing" textLength="46.875" x="511.4583" y="100.8042">TimeUnit</text><line style="stroke:#181818;stroke-width:1.0416666666666667;" x1="473.9583" x2="570.8333" y1="118.8698" y2="118.8698"/><text fill="#1E1E20" font-family="Telia Sans" font-size="11.4583" lengthAdjust="spacing" textLength="29.1667" x="489.5833" y="144.3615">DAYS</text><text fill="#1E1E20" font-family="Telia Sans" font-size="11.4583" lengthAdjust="spacing" textLength="39.5833" x="489.5833" y="178.5438">HOURS</text><text fill="#1E1E20" font-family="Telia Sans" font-size="11.4583" lengthAdjust="spacing" textLength="47.9167" x="489.5833" y="212.726">MINUTES</text><line style="stroke:#181818;stroke-width:1.0416666666666667;" x1="473.9583" x2="570.8333" y1="229.75" y2="229.75"/></g><!--class SuppressWarnings--><g id="elem_SuppressWarnings"><rect codeLine="31" fill="url(#gz8k18n4fuasq0)" filter="url(#fz8k18n4fuasq)" height="61.2656" id="SuppressWarnings" rx="4.1667" ry="4.1667" style="stroke:#181818;stroke-width:1.0416666666666667;" width="148.9583" x="608.3333" y="125.5521"/><rect fill="url(#gz8k18n4fuasq1)" height="44.599" rx="4.1667" ry="4.1667" style="stroke:url(#gz8k18n4fuasq1);stroke-width:1.0416666666666667;" width="148.9583" x="608.3333" y="125.5521"/><rect fill="url(#gz8k18n4fuasq1)" height="4.1667" style="stroke:url(#gz8k18n4fuasq1);stroke-width:1.0416666666666667;" width="148.9583" x="608.3333" y="165.9844"/><rect codeLine="31" fill="none" height="61.2656" id="SuppressWarnings" rx="4.1667" ry="4.1667" style="stroke:#181818;stroke-width:1.0416666666666667;" width="148.9583" x="608.3333" y="125.5521"/><ellipse cx="622.9167" cy="147.8516" fill="#E3664A" rx="10.4167" ry="10.4167" style="stroke:#181818;stroke-width:1.0416666666666667;"/><path d="M624.6887,147.9106 Q624.6887,147.2209 624.3774,146.8302 Q624.0662,146.4396 623.5229,146.4396 Q622.9797,146.4396 622.6715,146.8302 Q622.3633,147.2209 622.3633,147.9106 Q622.3633,148.6064 622.6715,148.997 Q622.9797,149.3876 623.5229,149.3876 Q624.0662,149.3876 624.3774,148.997 Q624.6887,148.6064 624.6887,147.9106 Z M625.824,150.413 L624.6277,150.413 L624.6277,149.9125 Q624.3958,150.236 624.0814,150.3855 Q623.7671,150.5351 623.3276,150.5351 Q622.3267,150.5351 621.7133,149.8149 Q621.0999,149.0946 621.0999,147.9106 Q621.0999,146.7326 621.7102,146.0154 Q622.3206,145.2983 623.3276,145.2983 Q623.761,145.2983 624.0906,145.4478 Q624.4202,145.5973 624.6277,145.8842 L624.6277,145.634 Q624.6277,144.8039 624.173,144.3522 Q623.7183,143.9006 622.876,143.9006 Q621.6064,143.9006 620.8038,145.0175 Q620.0012,146.1344 620.0012,147.9228 Q620.0012,149.7966 620.929,150.9043 Q621.8567,152.0121 623.4009,152.0121 Q623.8892,152.0121 624.3469,151.8687 Q624.8047,151.7253 625.2258,151.4384 L625.7874,152.5126 Q625.293,152.8483 624.7101,153.0162 Q624.1272,153.184 623.4619,153.184 Q621.3257,153.184 620.0562,151.7619 Q618.7866,150.3398 618.7866,147.9228 Q618.7866,145.5607 619.928,144.1416 Q621.0693,142.7226 622.9492,142.7226 Q624.2798,142.7226 625.0519,143.5252 Q625.824,144.3278 625.824,145.7133 Z " fill="#000000"/><text fill="#1E1E20" font-family="Telia Sans" font-size="11.4583" lengthAdjust="spacing" textLength="96.875" x="646.875" y="152.0854">SuppressWarnings</text><line style="stroke:#181818;stroke-width:1.0416666666666667;" x1="609.375" x2="756.25" y1="170.151" y2="170.151"/><line style="stroke:#181818;stroke-width:1.0416666666666667;" x1="609.375" x2="756.25" y1="178.4844" y2="178.4844"/></g><!--class Annotation--><g id="elem_Annotation"><rect codeLine="33" fill="url(#gz8k18n4fuasq0)" filter="url(#fz8k18n4fuasq)" height="163.8125" id="Annotation" rx="4.1667" ry="4.1667" style="stroke:#181818;stroke-width:1.0416666666666667;" width="164.5833" x="440.1042" y="337.0417"/><rect fill="url(#gz8k18n4fuasq1)" height="44.599" rx="4.1667" ry="4.1667" style="stroke:url(#gz8k18n4fuasq1);stroke-width:1.0416666666666667;" width="164.5833" x="440.1042" y="337.0417"/><rect fill="url(#gz8k18n4fuasq1)" height="4.1667" style="stroke:url(#gz8k18n4fuasq1);stroke-width:1.0416666666666667;" width="164.5833" x="440.1042" y="377.474"/><rect codeLine="33" fill="none" height="163.8125" id="Annotation" rx="4.1667" ry="4.1667" style="stroke:#181818;stroke-width:1.0416666666666667;" width="164.5833" x="440.1042" y="337.0417"/><ellipse cx="480" cy="359.3411" fill="#E3664A" rx="10.4167" ry="10.4167" style="stroke:#181818;stroke-width:1.0416666666666667;"/><path d="M481.7721,359.4001 Q481.7721,358.7105 481.4608,358.3198 Q481.1495,357.9292 480.6063,357.9292 Q480.0631,357.9292 479.7548,358.3198 Q479.4466,358.7105 479.4466,359.4001 Q479.4466,360.0959 479.7548,360.4866 Q480.0631,360.8772 480.6063,360.8772 Q481.1495,360.8772 481.4608,360.4866 Q481.7721,360.0959 481.7721,359.4001 Z M482.9073,361.9026 L481.711,361.9026 L481.711,361.4021 Q481.4791,361.7256 481.1648,361.8751 Q480.8504,362.0247 480.411,362.0247 Q479.41,362.0247 478.7966,361.3044 Q478.1832,360.5842 478.1832,359.4001 Q478.1832,358.2222 478.7935,357.505 Q479.4039,356.7878 480.411,356.7878 Q480.8443,356.7878 481.1739,356.9374 Q481.5035,357.0869 481.711,357.3738 L481.711,357.1235 Q481.711,356.2935 481.2563,355.8418 Q480.8016,355.3901 479.9593,355.3901 Q478.6898,355.3901 477.8872,356.5071 Q477.0846,357.624 477.0846,359.4124 Q477.0846,361.2861 478.0123,362.3939 Q478.94,363.5017 480.4842,363.5017 Q480.9725,363.5017 481.4303,363.3583 Q481.888,363.2148 482.3092,362.928 L482.8707,364.0022 Q482.3763,364.3379 481.7934,364.5057 Q481.2105,364.6736 480.5452,364.6736 Q478.409,364.6736 477.1395,363.2515 Q475.87,361.8293 475.87,359.4124 Q475.87,357.0503 477.0113,355.6312 Q478.1527,354.2122 480.0326,354.2122 Q481.3631,354.2122 482.1352,355.0148 Q482.9073,355.8174 482.9073,357.2029 Z " fill="#000000"/><text fill="#1E1E20" font-family="Telia Sans" font-size="11.4583" lengthAdjust="spacing" textLength="56.25" x="509.5833" y="363.575">Annotation</text><line style="stroke:#181818;stroke-width:1.0416666666666667;" x1="441.1458" x2="603.6458" y1="381.6406" y2="381.6406"/><text fill="#1E1E20" font-family="Telia Sans" font-size="11.4583" lengthAdjust="spacing" textLength="131.25" x="456.7708" y="407.1323">annotation with members</text><line style="stroke:#181818;stroke-width:1.0416666666666667;" x1="441.1458" x2="603.6458" y1="424.1563" y2="424.1563"/><text fill="#1E1E20" font-family="Telia Sans" font-size="11.4583" lengthAdjust="spacing" textLength="58.3333" x="456.7708" y="449.6479">String foo()</text><text fill="#1E1E20" font-family="Telia Sans" font-size="11.4583" lengthAdjust="spacing" textLength="59.375" x="456.7708" y="483.8302">String bar()</text></g><!--reverse link List to AbstractList--><g id="link_List_AbstractList"><path codeLine="13" d="M318.8333,209.1771 C325.8854,262.7188 336.6563,344.3333 342.4063,387.9583 " fill="none" id="List-backto-AbstractList" style="stroke:#5C524E;stroke-width:3.125;"/><polygon fill="none" points="311.625,210.3021,316.125,188.6875,326.0833,208.3958,311.625,210.3021" style="stroke:#5C524E;stroke-width:3.125;"/><text fill="#1E1E20" font-family="Telia Sans" font-size="12.5" lengthAdjust="spacing" textLength="65.625" x="342.1875" y="292.6917">AList to List</text></g><!--reverse link Collection to AbstractCollection--><g id="link_Collection_AbstractCollection"><path codeLine="14" d="M95.7396,209.1771 C91.8958,262.7188 86.0208,344.3333 82.8854,387.9583 " fill="none" id="Collection-backto-AbstractCollection" style="stroke:#5C524E;stroke-width:3.125;"/><polygon fill="none" points="88.4479,208.9583,97.2188,188.6979,102.9896,210,88.4479,208.9583" style="stroke:#5C524E;stroke-width:3.125;"/><text fill="#1E1E20" font-family="Telia Sans" font-size="12.5" lengthAdjust="spacing" textLength="69.7917" x="103.6458" y="292.6917">AColl to Coll</text></g><!--reverse link Collection to List--><g id="link_Collection_List"><path codeLine="16" d="M173.4167,156.1771 C208.2292,156.1771 248.1458,156.1771 276.1667,156.1771 " fill="none" id="Collection-backto-List" style="stroke:#5C524E;stroke-width:3.125;"/><polygon fill="none" points="173.875,163.4688,153.0417,156.1771,173.875,148.8854,173.875,163.4688" style="stroke:#5C524E;stroke-width:3.125;"/><text fill="#1E1E20" font-family="Telia Sans" font-size="12.5" lengthAdjust="spacing" textLength="59.375" x="184.1146" y="139.9521">List to Coll</text></g><!--reverse link AbstractCollection to AbstractList--><g id="link_AbstractCollection_AbstractList"><path codeLine="17" d="M176.7292,418.9479 C214.1979,418.9479 255.9167,418.9479 288.5938,418.9479 " fill="none" id="AbstractCollection-backto-AbstractList" style="stroke:#5C524E;stroke-width:3.125;"/><polygon fill="none" points="176.7813,426.2396,155.9479,418.9479,176.7813,411.6563,176.7813,426.2396" style="stroke:#5C524E;stroke-width:3.125;"/><text fill="#1E1E20" font-family="Telia Sans" font-size="12.5" lengthAdjust="spacing" textLength="76.0417" x="183.5938" y="402.7229">AList to AColl</text></g><!--reverse link AbstractList to ArrayList--><g id="link_AbstractList_ArrayList"><path codeLine="18" d="M346.3542,472.25 C346.3542,509.5521 346.3542,559.9583 346.3542,599.6667 " fill="none" id="AbstractList-backto-ArrayList" style="stroke:#5C524E;stroke-width:3.125;"/><polygon fill="none" points="339.0625,472.2708,346.3542,451.4375,353.6458,472.2708,339.0625,472.2708" style="stroke:#5C524E;stroke-width:3.125;"/><text fill="#1E1E20" font-family="Telia Sans" font-size="12.5" lengthAdjust="spacing" textLength="78.125" x="357.8125" y="555.4625">ArList to AList</text></g><!--SRC=[fLfxRzis4F_R-XIAam89C6DscgRPa0Lm_4Y2fKvXkyY6OIXecNQuo98dqKkzBTzzHugK-FHZSGl4kllTWyVZ7Kdvu6Xys_lK2tyAwnJ713KcMVgIr8CWE22py5sIqkDtVw6Ce4cCl-9l9AVvSVte-gRpSFymh9-S10VoWQl8K98lKOOJMWyES38bio38dqa2DBG89oXwdcVfAfbsqZZDGYcgG5OvliOKZUWwnk4CnJa6JuuUR-_6tCV3VhyFcezkXkrV-VFv-Jbx_Zoy-zGU5gHUfzlhdjMPtAZNUHXq9QF_7lvTCFZeIwVJ6uqujTcwk3WxPTIxGV-X83K_NaGJHdfi3mTtWnjEdSr-k6Ws6RNR7jpq-80FyLdhuuU84U_lRcx70ZWhKCEV-NCBj_0f5so3sK41-j3vS7hMaxZhuSFZWDC_zja_xds_32p7LCFyEkxzCbR8vJ1DXiHBtzx5PFv4SN8iET-5fyqJ1IXyVZT5sRC3LXcoDPOy6sngjQ0iyWwLZAn1J4KMG8wV9qmrqIvt2qxfh01QhhfXfXsH9muxWYCLIA1fnmCpxHIPLqgNLWgwb1QeqXbfn8aoJHGvwXX9mP3I0cQEGmK51yiiZV1qbU7mA5z54SxpuwD5FZy9ml1obYOqZ5WT-4c6zUfoSiNul7IKihgU6I8nV77hAOQqYveNb2KacRlLYEZlecUPaGNArb_pw0alyF59KEk38b7UrEKQrAxJR8epmIeNlQIFdqZqd424mXQGp4AfBUI6VDpaM4wpLKJXg-9Qaavn-4zGsrb_hNPF4YmmnTG2ZOrmW1Ouh8zPomX7KFJhGCyng-4KiCo6K_GrOFzH1asc05cUb52NFCW-GJhobFJ8Qokn8H-Pw8PWpL52QHaeq1p2nprCKq_LkgPuXbOnBSMAZoRi18_8tnBSEbKXInBQdrQpgM3o9pHDNo2HDGnClUeO3q-KPWdE5D25WlYCCaeYieGmV4RJgT1tfbgwJhyfBFdH80u-TrY1jDdC5pEbVEJyAkEYECCfNI-nc8oEDT56Bn8eTOtf3OW3shOQjKC8ZAP4QGoSVMUfKCkjWEXBlQpPdDlRdBC2esfGcmPd3omLLGSL05M-x9sGlLMCAQ4nBmTbnQfPsLQkF9ce75BXJfjs_QguJRkIwThb_kzLtIN6U0uhZ3dcdtEZcXephTPWCUpW8AUGvFbg4kOlP16ZH5qXaiIDgehbyCqndWQrCGkVDJmpBHkgprp4xW-Yfe1lgfieekGlGjTgQ2ID-UbeFTV8z7l4j2bP4DHwMie4jIv1YpIPRbjUwZWW0QJKfaaG66My-ZxLFUnbLOhKaIjap-2L6cRFbY_2QMQ4jsXUE_V7NPF5JaYNFwmuQlx8FbdfUX_K36kAwdwvd1pQS_pd2YSHLWr8cfNtvG1zAMk5I3dwwMbNIlJCQ3ARtwvzPqBEL7rYPpvEDODPw-8OhItgFPbXjeUmzbqcIvkfahMjtzHkWBjqUCZfbZUSUeiHeDqyVo24eUbw2wJGxWTreNQu07pdtpYgkeS4McEpc6he5AOrmY6UGKE7JFDxLq7ia9Oyls8hj4Lv6vKR2T- -t5-5A4aJgmOnehLSt5rdunfnceNpHumZPY9N3IjaT_7pA4jebiQw8axoL535_o8Nd6h1UQCh5PGtAPsm886WTbiaQ6zIZEPORoISuAhnXodCpXphCtlu0_-erWxVyu_RN99IhS2ovofRDf_ngYrSGoIljOdJHbqSs3sTX98PT3EzcHGqPt_JIa3DiG8LkvpWoRZ5CasCW9V4FLAN9B1imLajbYNHDG9Z5wuDGV9sRCCvR08WIxG-MP3SeNCVE66JvDh3wpEetFBuycbgvDCKRzuPExQTTgbYfTgHaZk59uhJrLIRO4OGnxJDwzIlT8eecg1S6wkaRL__cvn5kLvA6M7l27ewg-WZ3UtwrDDpH4UmWzwcD2EJ5RN16eVV4hHQxc6cap-mljeBYYTqRtVGsCdluUegnv4nqOBaEzJOUxHDJTrjDODWG7MFDRibKJi4-vht3aliZKukmQ9HU0J9UzvxaujE9sPf333LXuAogMtOLp4xrxxT_G9NjD1mmbkyiXggsdIt-WDVgD4Z4DsSmyRkKwRP_cVsFKk6Vht2_RoyX8QShJ-dq5IlhdZnzYe5QOVuDqB_ltJqb988RnTrn1qEh2ijxfompxOOPNhxWcTd6ksx7ojVG7aIcEZLXps_hPMxTsRUT8sUZPc8dlS8sn9dEHo7bDB42Tw-xrJo1rDHkypPszsheCOUkmJDcJhmX2jolRTu3Mfhj8XtX5v-B_Gx7E0N_TnZwOIyY-ISoe9wJPcbAJL8_lS3Ak9LUw8eVtQeiKFdkFKFbPSXidvStrX8UGD_li4DSIHn6J6JkTmhRl363sI9VMCjA0kgUwU-GzfYkLedZaXOnc6FaVBZf3_E_lsDtzy5h68u7IGxX5IxTV1XYvfzxkVp7qOGYc8IEK7MmBMhozrZkcMUA5b0qZk7lNrTw8CzTKwUfoGwflh_J1kSMN8yzSoPzuZdNG- -CvtRWTUW-BwfKF4NZ71qgSgKe7WBBjExIIFY5qYAmeAmhpxsgo3x1q7yHqJraw1ufzJXXonPJ1y9VGhR4wZMxFRXJfxY6w7uwH5b1i42-wtF7lBbxukGP1LdEucy1zSgdgHsogkqeBfFuD3gKS44Z1LU_jjeQ7h37yCs_qlJGhWIqS4A7KJO4nDXVmD39XHwfLgESQXXK9yhRKr8SJtBq5g2inBDFGz4r4e8ouS7VdhyxVSGnp0t2Ut2KHp8EQnNtje3dAmMuHXgm9U452BTzgyZ-7Fxy6N8_dww6tmPzqOCYn9eEOWxFrejbnaayMFnwujSOxQhhqoXmdbX6R30YmbiEO0pWlqYDBbPcl8q5OyJb37V_WC0]--></g></svg>