<?xml version="1.0" encoding="us-ascii" standalone="no"?><svg xmlns="http://www.w3.org/2000/svg" xmlns:xlink="http://www.w3.org/1999/xlink" contentStyleType="text/css" height="570.8333px" preserveAspectRatio="none" style="width:498px;height:570px;" version="1.1" viewBox="0 0 498 570" width="498.9583px" zoomAndPan="magnify"><defs><linearGradient id="gq1qnzb90lyk70" x1="50%" x2="50%" y1="0%" y2="100%"><stop offset="0%" stop-color="#FFFFFF"/><stop offset="100%" stop-color="#F3F3F8"/></linearGradient><filter height="300%" id="fq1qnzb90lyk7" width="300%" x="-1" y="-1"><feGaussianBlur result="blurOut" stdDeviation="2.0833333333333335"/><feColorMatrix in="blurOut" result="blurOut2" type="matrix" values="0 0 0 0 0 0 0 0 0 0 0 0 0 0 0 0 0 0 .4 0"/><feOffset dx="4.166666666666667" dy="4.166666666666667" in="blurOut2" result="blurOut3"/><feBlend in="SourceGraphic" in2="blurOut3" mode="normal"/></filter><linearGradient id="gq1qnzb90lyk71" x1="50%" x2="50%" y1="0%" y2="100%"><stop offset="0%" stop-color="#ECDED4"/><stop offset="100%" stop-color="#D1AE96"/></linearGradient></defs><g><text fill="#5C524E" font-family="Telia Sans" font-size="20.8333" font-weight="bold" lengthAdjust="spacing" textLength="347.9167" x="68.4896" y="40.6667">Class Diagram 2- telia-brown theme</text><!--class abstract--><g id="elem_abstract"><rect codeLine="8" fill="url(#gq1qnzb90lyk70)" filter="url(#fq1qnzb90lyk7)" height="61.2656" id="abstract" rx="4.1667" ry="4.1667" style="stroke:#181818;stroke-width:1.0416666666666667;" width="94.7917" x="7.2917" y="74.2708"/><rect fill="url(#gq1qnzb90lyk71)" height="44.599" rx="4.1667" ry="4.1667" style="stroke:url(#gq1qnzb90lyk71);stroke-width:1.0416666666666667;" width="94.7917" x="7.2917" y="74.2708"/><rect fill="url(#gq1qnzb90lyk71)" height="4.1667" style="stroke:url(#gq1qnzb90lyk71);stroke-width:1.0416666666666667;" width="94.7917" x="7.2917" y="114.7031"/><rect codeLine="8" fill="none" height="61.2656" id="abstract" rx="4.1667" ry="4.1667" style="stroke:#181818;stroke-width:1.0416666666666667;" width="94.7917" x="7.2917" y="74.2708"/><ellipse cx="21.875" cy="96.5703" fill="#A9DCDF" rx="10.4167" ry="10.4167" style="stroke:#181818;stroke-width:1.0416666666666667;"/><path d="M21.4681,93.2724 L20.6197,97.0016 L22.3226,97.0016 Z M20.3695,91.6244 L22.5728,91.6244 L25.0326,100.737 L23.232,100.737 L22.6705,98.4848 L20.2596,98.4848 L19.7103,100.737 L17.9097,100.737 Z " fill="#000000"/><text fill="#1E1E20" font-family="Telia Sans" font-size="11.4583" font-style="italic" lengthAdjust="spacing" textLength="42.7083" x="45.8333" y="100.8042">abstract</text><line style="stroke:#181818;stroke-width:1.0416666666666667;" x1="8.3333" x2="101.0417" y1="118.8698" y2="118.8698"/><line style="stroke:#181818;stroke-width:1.0416666666666667;" x1="8.3333" x2="101.0417" y1="127.2031" y2="127.2031"/></g><!--class abstract class--><g id="elem_abstract class"><rect codeLine="9" fill="url(#gq1qnzb90lyk70)" filter="url(#fq1qnzb90lyk7)" height="61.2656" id="abstract class" rx="4.1667" ry="4.1667" style="stroke:#181818;stroke-width:1.0416666666666667;" width="122.9167" x="139.0625" y="74.2708"/><rect fill="url(#gq1qnzb90lyk71)" height="44.599" rx="4.1667" ry="4.1667" style="stroke:url(#gq1qnzb90lyk71);stroke-width:1.0416666666666667;" width="122.9167" x="139.0625" y="74.2708"/><rect fill="url(#gq1qnzb90lyk71)" height="4.1667" style="stroke:url(#gq1qnzb90lyk71);stroke-width:1.0416666666666667;" width="122.9167" x="139.0625" y="114.7031"/><rect codeLine="9" fill="none" height="61.2656" id="abstract class" rx="4.1667" ry="4.1667" style="stroke:#181818;stroke-width:1.0416666666666667;" width="122.9167" x="139.0625" y="74.2708"/><ellipse cx="153.6458" cy="96.5703" fill="#A9DCDF" rx="10.4167" ry="10.4167" style="stroke:#181818;stroke-width:1.0416666666666667;"/><path d="M153.2389,93.2724 L152.3905,97.0016 L154.0934,97.0016 Z M152.1403,91.6244 L154.3437,91.6244 L156.8034,100.737 L155.0028,100.737 L154.4413,98.4848 L152.0304,98.4848 L151.4811,100.737 L149.6806,100.737 Z " fill="#000000"/><text fill="#1E1E20" font-family="Telia Sans" font-size="11.4583" font-style="italic" lengthAdjust="spacing" textLength="70.8333" x="177.6042" y="100.8042">abstract class</text><line style="stroke:#181818;stroke-width:1.0416666666666667;" x1="140.1042" x2="260.9375" y1="118.8698" y2="118.8698"/><line style="stroke:#181818;stroke-width:1.0416666666666667;" x1="140.1042" x2="260.9375" y1="127.2031" y2="127.2031"/></g><!--class annotation--><g id="elem_annotation"><rect codeLine="10" fill="url(#gq1qnzb90lyk70)" filter="url(#fq1qnzb90lyk7)" height="61.2656" id="annotation" rx="4.1667" ry="4.1667" style="stroke:#181818;stroke-width:1.0416666666666667;" width="107.2917" x="298.9583" y="74.2708"/><rect fill="url(#gq1qnzb90lyk71)" height="44.599" rx="4.1667" ry="4.1667" style="stroke:url(#gq1qnzb90lyk71);stroke-width:1.0416666666666667;" width="107.2917" x="298.9583" y="74.2708"/><rect fill="url(#gq1qnzb90lyk71)" height="4.1667" style="stroke:url(#gq1qnzb90lyk71);stroke-width:1.0416666666666667;" width="107.2917" x="298.9583" y="114.7031"/><rect codeLine="10" fill="none" height="61.2656" id="annotation" rx="4.1667" ry="4.1667" style="stroke:#181818;stroke-width:1.0416666666666667;" width="107.2917" x="298.9583" y="74.2708"/><ellipse cx="313.5417" cy="96.5703" fill="#E3664A" rx="10.4167" ry="10.4167" style="stroke:#181818;stroke-width:1.0416666666666667;"/><path d="M315.3137,96.6293 Q315.3137,95.9396 315.0024,95.549 Q314.6912,95.1584 314.1479,95.1584 Q313.6047,95.1584 313.2965,95.549 Q312.9883,95.9396 312.9883,96.6293 Q312.9883,97.3251 313.2965,97.7157 Q313.6047,98.1064 314.1479,98.1064 Q314.6912,98.1064 315.0024,97.7157 Q315.3137,97.3251 315.3137,96.6293 Z M316.449,99.1318 L315.2527,99.1318 L315.2527,98.6313 Q315.0208,98.9548 314.7064,99.1043 Q314.3921,99.2538 313.9526,99.2538 Q312.9517,99.2538 312.3383,98.5336 Q311.7249,97.8134 311.7249,96.6293 Q311.7249,95.4513 312.3352,94.7342 Q312.9456,94.017 313.9526,94.017 Q314.386,94.017 314.7156,94.1665 Q315.0452,94.3161 315.2527,94.6029 L315.2527,94.3527 Q315.2527,93.5226 314.798,93.071 Q314.3433,92.6193 313.501,92.6193 Q312.2314,92.6193 311.4288,93.7362 Q310.6262,94.8532 310.6262,96.6415 Q310.6262,98.5153 311.554,99.6231 Q312.4817,100.7309 314.0259,100.7309 Q314.5142,100.7309 314.9719,100.5874 Q315.4297,100.444 315.8508,100.1571 L316.4124,101.2314 Q315.918,101.5671 315.3351,101.7349 Q314.7522,101.9028 314.0869,101.9028 Q311.9507,101.9028 310.6812,100.4806 Q309.4116,99.0585 309.4116,96.6415 Q309.4116,94.2795 310.553,92.8604 Q311.6943,91.4413 313.5742,91.4413 Q314.9048,91.4413 315.6769,92.2439 Q316.449,93.0466 316.449,94.432 Z " fill="#000000"/><text fill="#1E1E20" font-family="Telia Sans" font-size="11.4583" lengthAdjust="spacing" textLength="55.2083" x="337.5" y="100.8042">annotation</text><line style="stroke:#181818;stroke-width:1.0416666666666667;" x1="300" x2="405.2083" y1="118.8698" y2="118.8698"/><line style="stroke:#181818;stroke-width:1.0416666666666667;" x1="300" x2="405.2083" y1="127.2031" y2="127.2031"/></g><!--entity circle--><g id="elem_circle"><ellipse cx="476.5625" cy="104.9063" fill="#B6124A" filter="url(#fq1qnzb90lyk7)" rx="8.3333" ry="8.3333" style="stroke:#E4175C;stroke-width:0.0;"/><text fill="#1E1E20" font-family="Telia Sans" font-size="12.5" lengthAdjust="spacing" textLength="29.1667" x="461.9792" y="144.9313">circle</text></g><!--entity circle_short_form--><g id="elem_circle_short_form"><ellipse cx="54.6875" cy="263.2396" fill="#B6124A" filter="url(#fq1qnzb90lyk7)" rx="8.3333" ry="8.3333" style="stroke:#E4175C;stroke-width:0.0;"/><text fill="#1E1E20" font-family="Telia Sans" font-size="12.5" lengthAdjust="spacing" textLength="95.8333" x="6.7708" y="303.2646">circle_short_form</text></g><!--class class--><g id="elem_class"><rect codeLine="13" fill="url(#gq1qnzb90lyk70)" filter="url(#fq1qnzb90lyk7)" height="61.2656" id="class" rx="4.1667" ry="4.1667" style="stroke:#181818;stroke-width:1.0416666666666667;" width="77.0833" x="157.8125" y="232.6042"/><rect fill="url(#gq1qnzb90lyk71)" height="44.599" rx="4.1667" ry="4.1667" style="stroke:url(#gq1qnzb90lyk71);stroke-width:1.0416666666666667;" width="77.0833" x="157.8125" y="232.6042"/><rect fill="url(#gq1qnzb90lyk71)" height="4.1667" style="stroke:url(#gq1qnzb90lyk71);stroke-width:1.0416666666666667;" width="77.0833" x="157.8125" y="273.0365"/><rect codeLine="13" fill="none" height="61.2656" id="class" rx="4.1667" ry="4.1667" style="stroke:#181818;stroke-width:1.0416666666666667;" width="77.0833" x="157.8125" y="232.6042"/><ellipse cx="172.3958" cy="254.9036" fill="#ADD1B2" rx="10.4167" ry="10.4167" style="stroke:#181818;stroke-width:1.0416666666666667;"/><path d="M174.3062,259.3287 Q173.879,259.5484 173.409,259.6583 Q172.939,259.7681 172.4202,259.7681 Q170.577,259.7681 169.6065,258.5535 Q168.6361,257.339 168.6361,255.044 Q168.6361,252.743 169.6065,251.5284 Q170.577,250.3138 172.4202,250.3138 Q172.939,250.3138 173.4151,250.4237 Q173.8912,250.5335 174.3062,250.7533 L174.3062,252.7552 Q173.8424,252.328 173.406,252.1296 Q172.9696,251.9312 172.5057,251.9312 Q171.5169,251.9312 171.0134,252.7155 Q170.5098,253.4998 170.5098,255.044 Q170.5098,256.5821 171.0134,257.3664 Q171.5169,258.1507 172.5057,258.1507 Q172.9696,258.1507 173.406,257.9524 Q173.8424,257.754 174.3062,257.3267 Z " fill="#000000"/><text fill="#1E1E20" font-family="Telia Sans" font-size="11.4583" lengthAdjust="spacing" textLength="25" x="196.3542" y="259.1375">class</text><line style="stroke:#181818;stroke-width:1.0416666666666667;" x1="158.8542" x2="233.8542" y1="277.2031" y2="277.2031"/><line style="stroke:#181818;stroke-width:1.0416666666666667;" x1="158.8542" x2="233.8542" y1="285.5365" y2="285.5365"/></g><g id="elem_diamond"><polygon fill="url(#gq1qnzb90lyk70)" filter="url(#fq1qnzb90lyk7)" points="283.8542,250.7396,296.3542,263.2396,283.8542,275.7396,271.3542,263.2396,283.8542,250.7396" style="stroke:#B5B5D4;stroke-width:1.0416666666666667;"/></g><polygon fill="url(#gq1qnzb90lyk70)" filter="url(#fq1qnzb90lyk7)" points="345.3125,250.7396,357.8125,263.2396,345.3125,275.7396,332.8125,263.2396,345.3125,250.7396" style="stroke:#B5B5D4;stroke-width:0.5208333333333334;"/><!--class entity--><g id="elem_entity"><rect codeLine="16" fill="url(#gq1qnzb90lyk70)" filter="url(#fq1qnzb90lyk7)" height="61.2656" id="entity" rx="4.1667" ry="4.1667" style="stroke:#181818;stroke-width:1.0416666666666667;" width="81.25" x="14.0625" y="373.6563"/><rect fill="url(#gq1qnzb90lyk71)" height="44.599" rx="4.1667" ry="4.1667" style="stroke:url(#gq1qnzb90lyk71);stroke-width:1.0416666666666667;" width="81.25" x="14.0625" y="373.6563"/><rect fill="url(#gq1qnzb90lyk71)" height="4.1667" style="stroke:url(#gq1qnzb90lyk71);stroke-width:1.0416666666666667;" width="81.25" x="14.0625" y="414.0885"/><rect codeLine="16" fill="none" height="61.2656" id="entity" rx="4.1667" ry="4.1667" style="stroke:#181818;stroke-width:1.0416666666666667;" width="81.25" x="14.0625" y="373.6563"/><ellipse cx="28.6458" cy="395.9557" fill="#ADD1B2" rx="10.4167" ry="10.4167" style="stroke:#181818;stroke-width:1.0416666666666667;"/><path d="M31.7017,400.6432 L26.0254,400.6432 L26.0254,391.5307 L31.7017,391.5307 L31.7017,393.1176 L27.8259,393.1176 L27.8259,395.0829 L31.3354,395.0829 L31.3354,396.6698 L27.8259,396.6698 L27.8259,399.0563 L31.7017,399.0563 Z " fill="#000000"/><text fill="#1E1E20" font-family="Telia Sans" font-size="11.4583" lengthAdjust="spacing" textLength="29.1667" x="52.6042" y="400.1896">entity</text><line style="stroke:#181818;stroke-width:1.0416666666666667;" x1="15.1042" x2="94.2708" y1="418.2552" y2="418.2552"/><line style="stroke:#181818;stroke-width:1.0416666666666667;" x1="15.1042" x2="94.2708" y1="426.5885" y2="426.5885"/></g><!--class enum--><g id="elem_enum"><rect codeLine="17" fill="url(#gq1qnzb90lyk70)" filter="url(#fq1qnzb90lyk7)" height="61.2656" id="enum" rx="4.1667" ry="4.1667" style="stroke:#181818;stroke-width:1.0416666666666667;" width="80.2083" x="131.25" y="373.6563"/><rect fill="url(#gq1qnzb90lyk71)" height="44.599" rx="4.1667" ry="4.1667" style="stroke:url(#gq1qnzb90lyk71);stroke-width:1.0416666666666667;" width="80.2083" x="131.25" y="373.6563"/><rect fill="url(#gq1qnzb90lyk71)" height="4.1667" style="stroke:url(#gq1qnzb90lyk71);stroke-width:1.0416666666666667;" width="80.2083" x="131.25" y="414.0885"/><rect codeLine="17" fill="none" height="61.2656" id="enum" rx="4.1667" ry="4.1667" style="stroke:#181818;stroke-width:1.0416666666666667;" width="80.2083" x="131.25" y="373.6563"/><ellipse cx="145.8333" cy="395.9557" fill="#EB937F" rx="10.4167" ry="10.4167" style="stroke:#181818;stroke-width:1.0416666666666667;"/><path d="M148.8892,400.6432 L143.2129,400.6432 L143.2129,391.5307 L148.8892,391.5307 L148.8892,393.1176 L145.0134,393.1176 L145.0134,395.0829 L148.5229,395.0829 L148.5229,396.6698 L145.0134,396.6698 L145.0134,399.0563 L148.8892,399.0563 Z " fill="#000000"/><text fill="#1E1E20" font-family="Telia Sans" font-size="11.4583" lengthAdjust="spacing" textLength="28.125" x="169.7917" y="400.1896">enum</text><line style="stroke:#181818;stroke-width:1.0416666666666667;" x1="132.2917" x2="210.4167" y1="418.2552" y2="418.2552"/><line style="stroke:#181818;stroke-width:1.0416666666666667;" x1="132.2917" x2="210.4167" y1="426.5885" y2="426.5885"/></g><!--class interface--><g id="elem_interface"><rect codeLine="19" fill="url(#gq1qnzb90lyk70)" filter="url(#fq1qnzb90lyk7)" height="61.2656" id="interface" rx="4.1667" ry="4.1667" style="stroke:#181818;stroke-width:1.0416666666666667;" width="97.9167" x="248.4375" y="373.6563"/><rect fill="url(#gq1qnzb90lyk71)" height="44.599" rx="4.1667" ry="4.1667" style="stroke:url(#gq1qnzb90lyk71);stroke-width:1.0416666666666667;" width="97.9167" x="248.4375" y="373.6563"/><rect fill="url(#gq1qnzb90lyk71)" height="4.1667" style="stroke:url(#gq1qnzb90lyk71);stroke-width:1.0416666666666667;" width="97.9167" x="248.4375" y="414.0885"/><rect codeLine="19" fill="none" height="61.2656" id="interface" rx="4.1667" ry="4.1667" style="stroke:#181818;stroke-width:1.0416666666666667;" width="97.9167" x="248.4375" y="373.6563"/><ellipse cx="263.0208" cy="395.9557" fill="#B4A7E5" rx="10.4167" ry="10.4167" style="stroke:#181818;stroke-width:1.0416666666666667;"/><path d="M260.4248,393.1176 L260.4248,391.5307 L265.8508,391.5307 L265.8508,393.1176 L264.0381,393.1176 L264.0381,399.0563 L265.8508,399.0563 L265.8508,400.6432 L260.4248,400.6432 L260.4248,399.0563 L262.2375,399.0563 L262.2375,393.1176 Z " fill="#000000"/><text fill="#1E1E20" font-family="Telia Sans" font-size="11.4583" font-style="italic" lengthAdjust="spacing" textLength="45.8333" x="286.9792" y="400.1896">interface</text><line style="stroke:#181818;stroke-width:1.0416666666666667;" x1="249.4792" x2="345.3125" y1="418.2552" y2="418.2552"/><line style="stroke:#181818;stroke-width:1.0416666666666667;" x1="249.4792" x2="345.3125" y1="426.5885" y2="426.5885"/></g><!--class protocol--><g id="elem_protocol"><rect codeLine="20" fill="url(#gq1qnzb90lyk70)" filter="url(#fq1qnzb90lyk7)" height="61.2656" id="protocol" rx="4.1667" ry="4.1667" style="stroke:#181818;stroke-width:1.0416666666666667;" width="94.7917" x="383.3333" y="373.6563"/><rect fill="url(#gq1qnzb90lyk71)" height="44.599" rx="4.1667" ry="4.1667" style="stroke:url(#gq1qnzb90lyk71);stroke-width:1.0416666666666667;" width="94.7917" x="383.3333" y="373.6563"/><rect fill="url(#gq1qnzb90lyk71)" height="4.1667" style="stroke:url(#gq1qnzb90lyk71);stroke-width:1.0416666666666667;" width="94.7917" x="383.3333" y="414.0885"/><rect codeLine="20" fill="none" height="61.2656" id="protocol" rx="4.1667" ry="4.1667" style="stroke:#181818;stroke-width:1.0416666666666667;" width="94.7917" x="383.3333" y="373.6563"/><ellipse cx="397.9167" cy="395.9557" fill="#F1F1F1" rx="10.4167" ry="10.4167" style="stroke:#181818;stroke-width:1.0416666666666667;"/><path d="M397.0601,393.0444 L397.0601,395.7177 L397.7987,395.7177 Q398.6837,395.7177 399.0407,395.4186 Q399.3978,395.1195 399.3978,394.381 Q399.3978,393.6425 399.0407,393.3434 Q398.6837,393.0444 397.7987,393.0444 Z M395.2596,391.5307 L397.7315,391.5307 Q399.6175,391.5307 400.4445,392.2021 Q401.2716,392.8735 401.2716,394.381 Q401.2716,395.8886 400.4445,396.56 Q399.6175,397.2314 397.7315,397.2314 L397.0601,397.2314 L397.0601,400.6432 L395.2596,400.6432 Z " fill="#000000"/><text fill="#1E1E20" font-family="Telia Sans" font-size="11.4583" lengthAdjust="spacing" textLength="42.7083" x="421.875" y="400.1896">protocol</text><line style="stroke:#181818;stroke-width:1.0416666666666667;" x1="384.375" x2="477.0833" y1="418.2552" y2="418.2552"/><line style="stroke:#181818;stroke-width:1.0416666666666667;" x1="384.375" x2="477.0833" y1="426.5885" y2="426.5885"/></g><!--class struct--><g id="elem_struct"><rect codeLine="21" fill="url(#gq1qnzb90lyk70)" filter="url(#fq1qnzb90lyk7)" height="61.2656" id="struct" rx="4.1667" ry="4.1667" style="stroke:#181818;stroke-width:1.0416666666666667;" width="81.25" x="14.0625" y="497.4271"/><rect fill="url(#gq1qnzb90lyk71)" height="44.599" rx="4.1667" ry="4.1667" style="stroke:url(#gq1qnzb90lyk71);stroke-width:1.0416666666666667;" width="81.25" x="14.0625" y="497.4271"/><rect fill="url(#gq1qnzb90lyk71)" height="4.1667" style="stroke:url(#gq1qnzb90lyk71);stroke-width:1.0416666666666667;" width="81.25" x="14.0625" y="537.8594"/><rect codeLine="21" fill="none" height="61.2656" id="struct" rx="4.1667" ry="4.1667" style="stroke:#181818;stroke-width:1.0416666666666667;" width="81.25" x="14.0625" y="497.4271"/><ellipse cx="28.6458" cy="519.7266" fill="#F1F1F1" rx="10.4167" ry="10.4167" style="stroke:#181818;stroke-width:1.0416666666666667;"/><path d="M28.1128,520.4163 Q26.7517,519.8975 26.2695,519.3268 Q25.7874,518.7561 25.7874,517.7917 Q25.7874,516.5527 26.5808,515.8447 Q27.3743,515.1367 28.7598,515.1367 Q29.3884,515.1367 30.0171,515.2802 Q30.6458,515.4236 31.2622,515.7043 L31.2622,517.4622 Q30.6824,517.0532 30.0842,516.8396 Q29.4861,516.626 28.9001,516.626 Q28.2471,516.626 27.8992,516.8884 Q27.5513,517.1509 27.5513,517.6392 Q27.5513,518.0176 27.8046,518.2648 Q28.0579,518.512 28.8635,518.811 L29.6387,519.104 Q30.7373,519.5068 31.2561,520.1721 Q31.7749,520.8374 31.7749,521.8506 Q31.7749,523.23 30.9601,523.9105 Q30.1453,524.5911 28.4973,524.5911 Q27.8198,524.5911 27.1393,524.4293 Q26.4587,524.2676 25.824,523.9502 L25.824,522.0886 Q26.5442,522.6013 27.2186,522.8516 Q27.8931,523.1018 28.5522,523.1018 Q29.2175,523.1018 29.5837,522.7997 Q29.95,522.4976 29.95,521.9543 Q29.95,521.5454 29.7058,521.2372 Q29.4617,520.929 28.9978,520.752 Z " fill="#000000"/><text fill="#1E1E20" font-family="Telia Sans" font-size="11.4583" lengthAdjust="spacing" textLength="29.1667" x="52.6042" y="523.9604">struct</text><line style="stroke:#181818;stroke-width:1.0416666666666667;" x1="15.1042" x2="94.2708" y1="542.026" y2="542.026"/><line style="stroke:#181818;stroke-width:1.0416666666666667;" x1="15.1042" x2="94.2708" y1="550.3594" y2="550.3594"/></g><!--SRC=[fLfRKziu57wEVuK9T1PcbjaafPJEK6OW99JPDdG8EzrzOXHR2LeSEsihBUmE_tsFRhQkkHJ3GtJqwTnqT8uaUsVlxjFWoo3-6BSfpWWwd9J5ZxmTHT4EcSPlyeBkl_cEIe8c6Rx7JwIYrNvxx-AgV_FvvhPzS13jg0PdKQAyMg0IvxGTxU0y9TCegXv93ZGqZoSeUPoLnJ9F-qLMbB4Qga6M5Rx058tfSuRZASeg39hiVVjqVSTrt1qEXy1vx-hs_2_UFZu-PksljzTVpcy5QT2_75mUjTcuyQ1_CxfK7SEty7V2uEC_-lt1UCofdUx9oL6FKQz7mnj1whm_IIQCzEtyTdGzkkBKwVJ3IQV3g9Vdewi1DtWN7tNVlqiOyVFrrQSx2PmArEtllDt5NTpZ0yz1x4Y0tlNVzOu62dTnU_DjnEdlX-oFQp-i7SinZPdtTuC_xpHoRQRTeV1AjpSPcJrGdE-hdb_ZNkT00qgTtwIeVFJ06a4knxhF1TjS7IZpl8Sb8niGcv43KFRpW6acsgUkwAcLbK17LJ_CbYFZn2D7zYW62cZB2S1iEIBowj6r545NeoMgLaO9yQ9i4I96FPQ83ZLQmcmxT52qioYB1AVB4iTxrJ99S5NjxyshsK4KnwVJ8gTnmlB0H-NMizF96UldgQCUQ_AP8fB13pyVOT8cR7wWCYVvpCz6UdyJFekIp57vV5yb3tYEzm-YrX0OoVIcBzUeTL6KAIvbLxte5VtkWIIFENWexWB9JfJ6GZvKpLMALRHS9XH-QghbHOhZ_wBMnlnRhSyann8ZfXPepC8HckEuVSTAHZo6fDy6UeLP3gU0PJAyGryYzezAA382v6XIGttZOUm3X2CFoS1uOoKUgYORki9PCvHJMZiAECVm-Csq-JIbAyLJjCneFKmync0lU4p-LU1kJuSiIEm-tKv7mrGFA2r-G20R69XwNJ7kdgGeSrnge1CDyHMLb2Ha0MxuYj9KyZlI9LqKJrgNUWo8fvyhh47EsSoBcT8UDR-QNHINkA3F2omde-zCj5MB94fVOsO1ue1pburU8IJ6OA8L1jvzxR3Gqws4c4kzpjcyTx0wPYL6vw0N3TuzSbWq5LG2zF5rxOJeRNnC2SruEgWpLik9jdhbgK3ba0RNwxZvg-djk9dCvAxsVo_wBZ73CrXXJB7md5lPr9ffFGTBiwETYaAGLyj9NFqWympb-WfH92vKPwpCjstiHQqxvZx7F3ii3tMT-H2tFiYS0hhfQgA4ak-4FkkkKJIcfwVqN21Rxp7ZfaL1r1eO8HErBWcQ5tcwRddfTa00g56h9a5YD7lDVQhVx4MJYdJBDNB0U2s7kRCLyd1HMkuLnMlZ-hXfiBW1wTE79KT37rKd6rvlevObJMCzh9UJXtk5_rdYFC6w04LpuhusC1IoZekqevyPTlM8WUrD9lFf8dGcv9swJkpCnwcsCrkNE4FF3lKpcMAsXt3sNNQNCLDrrxfwqxg2teL7GqvtjE7KJnW1sjyNTeGKb3wlWGZkOT0bv0uVWE_y3_UQwg60ZcrEf-uwhTEny1PFeQ13f8MrQo2kI-k-C6F7jIAzZUkDH6XV7iv2b1IvauCOqLak_ggpSerunSBv8yC94r7fWZMoF_a5cEMqB3AJ4IS5CgYcluW5BrjGtgfAWl8gfXFc91Xet1P9sgiOenas2mad-7ByRW6pCyFcpEv-u8ykRVSjV_pYye8Q2PQrcsXPVSPhjd27CdYTJPnXjJYm1oe99LEePcOn4JHlVJDIGCkp0ZMvd128kFcYo2s7ryGjGfVai6n1MSENDT5dWRKBDqnGVHkMuGes0H0bHfqK9B_h_0TEs2Jvzl3c36gtFA5uIgruIl7gdR5ds-ccAfQgFI6vaNkIh5YcnWGpWZochLwdOQOfecY2AiDMHLk__bSfYoepbJB2rXuCL5PPHmwDwzD0pP4LmNNwEQKbcIof2pPw-2r1j-itivZyZStLBYW1rxrUGMidluMgomedraHBKkXGu-xHLXLrlzGId07PFJFaraJZ41mgtXiiiLSgkG29LkAHfE1vxrKgUfMO5Xd0T1q4PLNPSAzYDivzc-i5gXYkuOJNQEKKLBtehjK7Vb2hHY2wEeQjtQSAi-tFx5kc3FDwXUjvUWe5kNp-Ma1HFJlZoJl854PxXZyH-lEZauU297ZzK8_VuS2wDFpE2TjiYr5fbYzeUyDes_rO_G8g4C34p3wi_RfIxj-P1SCrURHc8ddSmcqBN5Pm7D9I4oS4wxwNoT-CHUkqOcztpw8MQruID6FiG1FEoFVUuYLgFQDvjY7qz3V9twC0l-Zd6Yibr5qaxsaawDUKPL5GYnH-Fw0ZNemMHTMZXuthEi-jVwoz357vu-BAGQeR-ECLQiWZYK-87SprNd65Dc4W2-mhPq4vK5Cx_HtI6idDEl5umX4EUuo27oV3VWxlRyBwpc4Lm-aWty2bngr322jozd6udtyOGIZAIE85EOORLvUR-tJDF54oXw3tchr-NPZ6zhoJ5qY9dgd-cMc3Cqk5qy2S1OzumVKGEjFv5NY9nEzLYOg_O8IZIvEc92MOS1dVLHmHlq3I60h2jlpOLq7k1q7y8wBsGIJUAVNv8KibqzvXB3yoeemry69VzNYHzJT3Q0B9dLrMo4Urcmvna8lR9g4TeHmI7EAMYP5rEqf8cMHO2mBUZlOFpCaKvFlgeIZf_RGevv6KfKKFErMculr6JPNjwFJCv2VfEaDvOrO_yauDvykvFfArer_mKu8NZK5ntOwQ6n7nDDSc42oqI8fCSLBjIDHCBT_ozly0]--></g></svg>