<?xml version="1.0" encoding="us-ascii" standalone="no"?><svg xmlns="http://www.w3.org/2000/svg" xmlns:xlink="http://www.w3.org/1999/xlink" contentStyleType="text/css" height="897.9167px" preserveAspectRatio="none" style="width:1216px;height:897px;" version="1.1" viewBox="0 0 1216 897" width="1216.6667px" zoomAndPan="magnify"><defs><linearGradient id="g12hcs50jc4jyv0" x1="50%" x2="50%" y1="0%" y2="100%"><stop offset="0%" stop-color="#FFFFFF"/><stop offset="100%" stop-color="#F3F3F8"/></linearGradient><filter height="300%" id="f12hcs50jc4jyv" width="300%" x="-1" y="-1"><feGaussianBlur result="blurOut" stdDeviation="2.0833333333333335"/><feColorMatrix in="blurOut" result="blurOut2" type="matrix" values="0 0 0 0 0 0 0 0 0 0 0 0 0 0 0 0 0 0 .4 0"/><feOffset dx="4.166666666666667" dy="4.166666666666667" in="blurOut2" result="blurOut3"/><feBlend in="SourceGraphic" in2="blurOut3" mode="normal"/></filter><linearGradient id="g12hcs50jc4jyv1" x1="50%" x2="50%" y1="0%" y2="100%"><stop offset="0%" stop-color="#FFFFFF"/><stop offset="100%" stop-color="#FFFFFF"/></linearGradient><linearGradient id="g12hcs50jc4jyv2" x1="50%" x2="50%" y1="0%" y2="100%"><stop offset="0%" stop-color="#FFFFFF"/><stop offset="100%" stop-color="#ECDED4"/></linearGradient><linearGradient id="g12hcs50jc4jyv3" x1="50%" x2="50%" y1="0%" y2="100%"><stop offset="0%" stop-color="#FFAD33"/><stop offset="100%" stop-color="#FF9800"/></linearGradient><linearGradient id="g12hcs50jc4jyv4" x1="50%" x2="50%" y1="0%" y2="100%"><stop offset="0%" stop-color="#0090F4"/><stop offset="100%" stop-color="#0078CB"/></linearGradient></defs><g><text fill="#5C524E" font-family="Telia Sans" font-size="20.8333" font-weight="bold" lengthAdjust="spacing" textLength="395.8333" x="403.125" y="40.6667">Component Diagram - telia-brown theme</text><!--cluster My Package--><g id="cluster_My Package"><path d="M10.4167,73.2292 L97.9167,73.2292 A6.25,6.25 0 0 1 102.0833,77.3958 L109.375,114.875 L767.7083,114.875 A4.1667,4.1667 0 0 1 771.875,119.0417 L771.875,206.5417 A4.1667,4.1667 0 0 1 767.7083,210.7083 L10.4167,210.7083 A4.1667,4.1667 0 0 1 6.25,206.5417 L6.25,77.3958 A4.1667,4.1667 0 0 1 10.4167,73.2292 " fill="url(#g12hcs50jc4jyv0)" filter="url(#f12hcs50jc4jyv)" style="stroke:#7F7F7F;stroke-width:2.0833333333333335;"/><line style="stroke:#7F7F7F;stroke-width:2.0833333333333335;" x1="6.25" x2="109.375" y1="114.875" y2="114.875"/><text fill="#1E1E20" font-family="Telia Sans" font-size="12.5" font-weight="bold" lengthAdjust="spacing" textLength="68.75" x="20.8333" y="97.6292">My Package</text></g><!--cluster My Node--><g id="cluster_My Node"><polygon fill="url(#g12hcs50jc4jyv0)" filter="url(#f12hcs50jc4jyv)" points="37.5,290.9167,47.9167,280.5,455.2083,280.5,455.2083,412.7708,444.7917,423.1875,37.5,423.1875,37.5,290.9167" style="stroke:#7F7F7F;stroke-width:1.0416666666666667;"/><line style="stroke:#7F7F7F;stroke-width:1.0416666666666667;" x1="444.7917" x2="455.2083" y1="290.9167" y2="280.5"/><line style="stroke:#7F7F7F;stroke-width:1.0416666666666667;" x1="37.5" x2="444.7917" y1="290.9167" y2="290.9167"/><line style="stroke:#7F7F7F;stroke-width:1.0416666666666667;" x1="444.7917" x2="444.7917" y1="290.9167" y2="423.1875"/><text fill="#1E1E20" font-family="Telia Sans" font-size="12.5" font-weight="bold" lengthAdjust="spacing" textLength="52.0833" x="216.1458" y="316.3583">My Node</text></g><!--cluster My Cloud--><g id="cluster_My Cloud"><path d="M497.7602,295.9644 C498.9454,289.9911 503.7317,288.4138 508.0367,292.8987 C510.4893,286.9296 515.8569,285.4425 520.2218,290.8506 C524.3018,284.3523 528.3721,285.04 532.5778,290.7231 C534.9228,284.1109 539.9688,284.3578 544.2149,288.7042 C546.6751,282.1383 552.5373,282.4749 556.0786,287.6078 C560.1141,282.8451 564.5729,282.8409 567.9722,288.3448 C572.3241,282.8052 577.7195,283.0603 580.7007,289.7692 C585.3428,284.6955 591.1553,285.7481 592.8977,292.7081 C597.1596,286.9495 601.4232,286.7279 604.9695,293.4029 C613.952,288.2201 620.7433,289.7803 621.875,301.3333 C622.1791,301.4329 622.1499,301.6355 621.9808,301.8349 C629.3713,304.3889 630.7164,310.4431 625.3105,316.0042 C631.6047,320.387 631.5004,325.1168 624.8955,329.0906 C632.0944,331.1729 633.4238,337.6094 627.7472,342.4418 C635.6601,346.3033 634.908,351.4166 629.1405,356.6223 C633.6613,362.3748 632.5392,366.3768 625.8231,369.1549 C630.9034,372.5852 632.0706,378.4193 625.7676,381.7996 C631.3239,386.7589 631.0966,391.159 624.2617,394.6682 C631.1331,404.9621 628.2649,414.4145 614.5833,414.8542 C615.5349,414.335 616.0378,414.8139 616.0756,415.7752 C613.0229,422.5081 608.4923,421.9549 604.2674,416.9548 C600.4037,422.5373 595.9236,422.7366 592.3181,416.6896 C589.2888,421.5276 583.9362,421.4607 581.0667,416.506 C577.0756,422.7265 571.3036,423.29 567.1121,416.7246 C564.4866,421.9985 559.524,423.968 555.2919,418.491 C551.6124,423.3181 547.6739,423.5258 544.5761,417.8948 C540.8497,422.7465 535.7877,421.3528 533.5114,416.2783 C529.4891,422.6499 524.3434,423.3507 519.7055,416.9434 C516.2367,422.0213 512.3863,421.2576 509.8834,416.0234 C499.8408,422.0358 491.0888,420.4566 488.5417,407.5625 C489.1044,406.8392 489.8331,406.6535 490.356,407.6056 C483.554,404.2772 484.5529,398.887 489.6158,394.869 C483.2771,391.912 482.2883,387.0677 486.7431,381.7477 C480.6837,377.1386 480.5212,373.393 487.2566,369.3123 C480.8576,365.518 480.9497,361.193 486.3152,356.532 C480.0754,352.6999 479.6109,345.7194 486.8148,342.3613 C480.9262,337.3555 481.6204,332.209 488.5204,328.8132 C482.4233,324.9994 481.9653,319.2167 488.873,315.7539 C481.4843,306.1076 482.6576,297.0956 495.8333,294.0417 C497.3621,293.7994 497.9122,294.5222 497.7602,295.9644 " fill="url(#g12hcs50jc4jyv0)" filter="url(#f12hcs50jc4jyv)" style="stroke:#7F7F7F;stroke-width:1.0416666666666667;"/><text fill="#1E1E20" font-family="Telia Sans" font-size="12.5" font-weight="bold" lengthAdjust="spacing" textLength="54.1667" x="528.125" y="321.5667">My Cloud</text></g><!--cluster My Database--><g id="cluster_My Database"><path d="M459.375,479.4479 C459.375,469.0313 555.2083,469.0313 555.2083,469.0313 C555.2083,469.0313 651.0417,469.0313 651.0417,479.4479 L651.0417,870.0313 C651.0417,880.4479 555.2083,880.4479 555.2083,880.4479 C555.2083,880.4479 459.375,880.4479 459.375,870.0313 L459.375,479.4479 " fill="url(#g12hcs50jc4jyv0)" filter="url(#f12hcs50jc4jyv)" style="stroke:#7F7F7F;stroke-width:1.0416666666666667;"/><path d="M459.375,479.4479 C459.375,489.8646 555.2083,489.8646 555.2083,489.8646 C555.2083,489.8646 651.0417,489.8646 651.0417,479.4479 " fill="none" style="stroke:#7F7F7F;stroke-width:1.0416666666666667;"/><text fill="#1E1E20" font-family="Telia Sans" font-size="12.5" font-weight="bold" lengthAdjust="spacing" textLength="73.9583" x="518.2292" y="514.2646">My Database</text></g><!--cluster My folder--><g id="cluster_My folder"><path d="M488.5417,547.1563 L562.5,547.1563 A6.25,6.25 0 0 1 566.6667,551.3229 L573.9583,588.8021 L621.875,588.8021 A4.1667,4.1667 0 0 1 626.0417,592.9688 L626.0417,680.4688 A4.1667,4.1667 0 0 1 621.875,684.6354 L488.5417,684.6354 A4.1667,4.1667 0 0 1 484.375,680.4688 L484.375,551.3229 A4.1667,4.1667 0 0 1 488.5417,547.1563 " fill="url(#g12hcs50jc4jyv1)" filter="url(#f12hcs50jc4jyv)" style="stroke:#FF9800;stroke-width:2.0833333333333335;"/><line style="stroke:#FF9800;stroke-width:2.0833333333333335;" x1="484.375" x2="573.9583" y1="588.8021" y2="588.8021"/><text fill="#FF9800" font-family="Telia Sans" font-size="12.5" font-weight="bold" lengthAdjust="spacing" textLength="55.2083" x="498.9583" y="571.5563">My folder</text></g><!--cluster My Frame--><g id="cluster_My Frame"><rect fill="url(#g12hcs50jc4jyv1)" filter="url(#f12hcs50jc4jyv)" height="137.4792" rx="4.1667" ry="4.1667" style="stroke:#0078CB;stroke-width:2.0833333333333335;" width="141.6667" x="484.375" y="717.9688"/><path d="M572.9167,717.9688 L572.9167,746.0729 L562.5,756.4896 L484.375,756.4896 " fill="none" style="stroke:#0078CB;stroke-width:2.0833333333333335;"/><text fill="#0078CB" font-family="Telia Sans" font-size="12.5" font-weight="bold" lengthAdjust="spacing" textLength="57.2917" x="497.9167" y="741.3271">My Frame</text></g><!--entity HTTP--><g id="elem_HTTP"><ellipse cx="32.2917" cy="160.7188" fill="#B6124A" filter="url(#f12hcs50jc4jyv)" rx="8.3333" ry="8.3333" style="stroke:#E4175C;stroke-width:0.0;"/><text fill="#1E1E20" font-family="Telia Sans" font-size="12.5" lengthAdjust="spacing" textLength="31.25" x="16.6667" y="200.7438">HTTP</text></g><!--entity First Component--><g id="elem_First Component"><rect fill="url(#g12hcs50jc4jyv2)" filter="url(#f12hcs50jc4jyv)" height="66.6458" rx="4.1667" ry="4.1667" style="stroke:#7F7F7F;stroke-width:1.0416666666666667;" width="155.2083" x="77.6042" y="127.3958"/><rect fill="url(#g12hcs50jc4jyv2)" height="10.4167" style="stroke:#7F7F7F;stroke-width:1.0416666666666667;" width="15.625" x="211.9792" y="132.6042"/><rect fill="url(#g12hcs50jc4jyv2)" height="2.0833" style="stroke:#7F7F7F;stroke-width:1.0416666666666667;" width="4.1667" x="209.8958" y="134.6875"/><rect fill="url(#g12hcs50jc4jyv2)" height="2.0833" style="stroke:#7F7F7F;stroke-width:1.0416666666666667;" width="4.1667" x="209.8958" y="138.8542"/><text fill="#1E1E20" font-family="Telia Sans" font-size="12.5" lengthAdjust="spacing" textLength="92.7083" x="103.6458" y="170.5458">First Component</text></g><!--entity Another Component--><g id="elem_Another Component"><rect fill="url(#g12hcs50jc4jyv2)" filter="url(#f12hcs50jc4jyv)" height="66.6458" rx="4.1667" ry="4.1667" style="stroke:#7F7F7F;stroke-width:1.0416666666666667;" width="176.0417" x="269.2708" y="127.3958"/><rect fill="url(#g12hcs50jc4jyv2)" height="10.4167" style="stroke:#7F7F7F;stroke-width:1.0416666666666667;" width="15.625" x="424.4792" y="132.6042"/><rect fill="url(#g12hcs50jc4jyv2)" height="2.0833" style="stroke:#7F7F7F;stroke-width:1.0416666666666667;" width="4.1667" x="422.3958" y="134.6875"/><rect fill="url(#g12hcs50jc4jyv2)" height="2.0833" style="stroke:#7F7F7F;stroke-width:1.0416666666666667;" width="4.1667" x="422.3958" y="138.8542"/><text fill="#1E1E20" font-family="Telia Sans" font-size="12.5" lengthAdjust="spacing" textLength="113.5417" x="295.3125" y="170.5458">Another Component</text></g><!--entity MyRectangle1--><g id="elem_MyRectangle1"><rect fill="url(#g12hcs50jc4jyv0)" filter="url(#f12hcs50jc4jyv)" height="56.2292" rx="4.1667" ry="4.1667" style="stroke:#181818;stroke-width:2.0833333333333335;" width="117.7083" x="481.7708" y="132.6042"/><text fill="#1E1E20" font-family="Telia Sans" font-size="12.5" lengthAdjust="spacing" textLength="76.0417" x="502.6042" y="165.3375">MyRectangle1</text></g><!--entity MyCollection1--><g id="elem_MyCollection1"><rect fill="url(#g12hcs50jc4jyv2)" filter="url(#f12hcs50jc4jyv)" height="52.0625" rx="4.1667" ry="4.1667" style="stroke:#7F7F7F;stroke-width:1.0416666666666667;" width="115.625" x="640.1042" y="136.7708"/><rect fill="url(#g12hcs50jc4jyv2)" height="52.0625" rx="4.1667" ry="4.1667" style="stroke:#7F7F7F;stroke-width:1.0416666666666667;" width="115.625" x="635.9375" y="132.6042"/><text fill="#1E1E20" font-family="Telia Sans" font-size="12.5" lengthAdjust="spacing" textLength="78.125" x="654.6875" y="163.2542">MyCollection1</text></g><!--entity FTP--><g id="elem_FTP"><ellipse cx="63.5417" cy="373.1979" fill="#B6124A" filter="url(#f12hcs50jc4jyv)" rx="8.3333" ry="8.3333" style="stroke:#E4175C;stroke-width:0.0;"/><text fill="#1E1E20" font-family="Telia Sans" font-size="12.5" lengthAdjust="spacing" textLength="21.875" x="52.6042" y="413.2229">FTP</text></g><!--entity Second Component--><g id="elem_Second Component"><rect fill="url(#g12hcs50jc4jyv2)" filter="url(#f12hcs50jc4jyv)" height="66.6458" rx="4.1667" ry="4.1667" style="stroke:#7F7F7F;stroke-width:1.0416666666666667;" width="172.9167" x="109.375" y="339.875"/><rect fill="url(#g12hcs50jc4jyv2)" height="10.4167" style="stroke:#7F7F7F;stroke-width:1.0416666666666667;" width="15.625" x="261.4583" y="345.0833"/><rect fill="url(#g12hcs50jc4jyv2)" height="2.0833" style="stroke:#7F7F7F;stroke-width:1.0416666666666667;" width="4.1667" x="259.375" y="347.1667"/><rect fill="url(#g12hcs50jc4jyv2)" height="2.0833" style="stroke:#7F7F7F;stroke-width:1.0416666666666667;" width="4.1667" x="259.375" y="351.3333"/><text fill="#1E1E20" font-family="Telia Sans" font-size="12.5" lengthAdjust="spacing" textLength="110.4167" x="135.4167" y="383.025">Second Component</text></g><!--entity MyRectangle2--><g id="elem_MyRectangle2"><rect fill="url(#g12hcs50jc4jyv0)" filter="url(#f12hcs50jc4jyv)" height="56.2292" rx="4.1667" ry="4.1667" style="stroke:#181818;stroke-width:2.0833333333333335;" width="119.7917" x="319.2708" y="345.0833"/><text fill="#1E1E20" font-family="Telia Sans" font-size="12.5" lengthAdjust="spacing" textLength="78.125" x="340.1042" y="377.8167">MyRectangle2</text></g><!--entity Example 1--><g id="elem_Example 1"><rect fill="url(#g12hcs50jc4jyv2)" filter="url(#f12hcs50jc4jyv)" height="66.6458" rx="4.1667" ry="4.1667" style="stroke:#7F7F7F;stroke-width:1.0416666666666667;" width="117.7083" x="496.3542" y="339.875"/><rect fill="url(#g12hcs50jc4jyv2)" height="10.4167" style="stroke:#7F7F7F;stroke-width:1.0416666666666667;" width="15.625" x="593.2292" y="345.0833"/><rect fill="url(#g12hcs50jc4jyv2)" height="2.0833" style="stroke:#7F7F7F;stroke-width:1.0416666666666667;" width="4.1667" x="591.1458" y="347.1667"/><rect fill="url(#g12hcs50jc4jyv2)" height="2.0833" style="stroke:#7F7F7F;stroke-width:1.0416666666666667;" width="4.1667" x="591.1458" y="351.3333"/><text fill="#1E1E20" font-family="Telia Sans" font-size="12.5" lengthAdjust="spacing" textLength="55.2083" x="522.3958" y="383.025">Example 1</text></g><!--entity Folder 3--><g id="elem_Folder 3"><rect fill="url(#g12hcs50jc4jyv2)" filter="url(#f12hcs50jc4jyv)" height="66.6458" rx="4.1667" ry="4.1667" style="stroke:#7F7F7F;stroke-width:1.0416666666666667;" width="108.3333" x="501.0417" y="601.3229"/><rect fill="url(#g12hcs50jc4jyv2)" height="10.4167" style="stroke:#7F7F7F;stroke-width:1.0416666666666667;" width="15.625" x="588.5417" y="606.5313"/><rect fill="url(#g12hcs50jc4jyv2)" height="2.0833" style="stroke:#7F7F7F;stroke-width:1.0416666666666667;" width="4.1667" x="586.4583" y="608.6146"/><rect fill="url(#g12hcs50jc4jyv2)" height="2.0833" style="stroke:#7F7F7F;stroke-width:1.0416666666666667;" width="4.1667" x="586.4583" y="612.7813"/><text fill="#1E1E20" font-family="Telia Sans" font-size="12.5" lengthAdjust="spacing" textLength="45.8333" x="527.0833" y="644.4729">Folder 3</text></g><!--entity Frame 4--><g id="elem_Frame 4"><rect fill="url(#g12hcs50jc4jyv2)" filter="url(#f12hcs50jc4jyv)" height="66.6458" rx="4.1667" ry="4.1667" style="stroke:#7F7F7F;stroke-width:1.0416666666666667;" width="107.2917" x="501.5625" y="772.1354"/><rect fill="url(#g12hcs50jc4jyv2)" height="10.4167" style="stroke:#7F7F7F;stroke-width:1.0416666666666667;" width="15.625" x="588.0208" y="777.3438"/><rect fill="url(#g12hcs50jc4jyv2)" height="2.0833" style="stroke:#7F7F7F;stroke-width:1.0416666666666667;" width="4.1667" x="585.9375" y="779.4271"/><rect fill="url(#g12hcs50jc4jyv2)" height="2.0833" style="stroke:#7F7F7F;stroke-width:1.0416666666666667;" width="4.1667" x="585.9375" y="783.5938"/><text fill="#1E1E20" font-family="Telia Sans" font-size="12.5" lengthAdjust="spacing" textLength="44.7917" x="527.6042" y="815.2854">Frame 4</text></g><!--entity MyCollection2--><g id="elem_MyCollection2"><rect fill="url(#g12hcs50jc4jyv2)" filter="url(#f12hcs50jc4jyv)" height="52.0625" rx="4.1667" ry="4.1667" style="stroke:#7F7F7F;stroke-width:1.0416666666666667;" width="117.7083" x="796.3542" y="136.7708"/><rect fill="url(#g12hcs50jc4jyv2)" height="52.0625" rx="4.1667" ry="4.1667" style="stroke:#7F7F7F;stroke-width:1.0416666666666667;" width="117.7083" x="792.1875" y="132.6042"/><text fill="#1E1E20" font-family="Telia Sans" font-size="12.5" lengthAdjust="spacing" textLength="80.2083" x="810.9375" y="163.2542">MyCollection2</text></g><!--entity My Artifact--><g id="elem_My Artifact"><rect fill="url(#g12hcs50jc4jyv1)" filter="url(#f12hcs50jc4jyv)" height="59.3542" rx="4.1667" ry="4.1667" style="stroke:#666666;stroke-width:0.0;" width="112.5" x="951.0417" y="131.0417"/><polygon fill="url(#g12hcs50jc4jyv1)" points="1045.8333,136.25,1045.8333,150.8333,1058.3333,150.8333,1058.3333,142.5,1052.0833,136.25,1045.8333,136.25" style="stroke:#666666;stroke-width:0.0;"/><line style="stroke:#666666;stroke-width:0.0;" x1="1052.0833" x2="1052.0833" y1="136.25" y2="142.5"/><line style="stroke:#666666;stroke-width:0.0;" x1="1058.3333" x2="1052.0833" y1="142.5" y2="142.5"/><text fill="#666666" font-family="Telia Sans" font-size="12.5" lengthAdjust="spacing" textLength="60.4167" x="971.875" y="166.9">My Artifact</text></g><!--entity My Storage--><g id="elem_My Storage"><rect fill="url(#g12hcs50jc4jyv3)" filter="url(#f12hcs50jc4jyv)" height="56.2292" rx="36.4583" ry="36.4583" style="stroke:#FF9800;stroke-width:0.0;" width="104.1667" x="1100" y="132.6042"/><text fill="#FFFFFF" font-family="Telia Sans" font-size="12.5" lengthAdjust="spacing" textLength="62.5" x="1120.8333" y="165.3375">My Storage</text></g><!--entity My Queue--><g id="elem_My Queue"><path d="M809.375,350.2917 L896.875,350.2917 C902.0833,350.2917 902.0833,373.1979 902.0833,373.1979 C902.0833,373.1979 902.0833,396.1042 896.875,396.1042 L809.375,396.1042 C804.1667,396.1042 804.1667,373.1979 804.1667,373.1979 C804.1667,373.1979 804.1667,350.2917 809.375,350.2917 " fill="url(#g12hcs50jc4jyv2)" filter="url(#f12hcs50jc4jyv)" style="stroke:#7F7F7F;stroke-width:1.0416666666666667;"/><path d="M896.875,350.2917 C891.6667,350.2917 891.6667,373.1979 891.6667,373.1979 C891.6667,396.1042 896.875,396.1042 896.875,396.1042 " fill="none" style="stroke:#7F7F7F;stroke-width:1.0416666666666667;"/><text fill="#1E1E20" font-family="Telia Sans" font-size="12.5" lengthAdjust="spacing" textLength="56.25" x="819.7917" y="377.8167">My Queue</text></g><!--entity My Interface--><g id="elem_My Interface"><ellipse cx="990.625" cy="373.1979" fill="#B6124A" filter="url(#f12hcs50jc4jyv)" rx="8.3333" ry="8.3333" style="stroke:#E4175C;stroke-width:0.0;"/><text fill="#1E1E20" font-family="Telia Sans" font-size="12.5" lengthAdjust="spacing" textLength="67.7083" x="956.7708" y="413.2229">My Interface</text></g><!--entity My Card--><g id="elem_My Card"><rect fill="url(#g12hcs50jc4jyv4)" filter="url(#f12hcs50jc4jyv)" height="41.6458" rx="4.1667" ry="4.1667" style="stroke:#0078CB;stroke-width:0.0;" width="87.5" x="1079.1667" y="352.375"/><text fill="#FFFFFF" font-family="Telia Sans" font-size="12.5" lengthAdjust="spacing" textLength="45.8333" x="1100" y="377.8167">My Card</text></g><!--entity My File--><g id="elem_My File"><path d="M812.5,610.6979 L812.5,658.5938 A4.1667,4.1667 0 0 0 816.6667,662.7604 L889.5833,662.7604 A4.1667,4.1667 0 0 0 893.75,658.5938 L893.75,616.9479 L883.3333,606.5313 L816.6667,606.5313 A4.1667,4.1667 0 0 0 812.5,610.6979 " fill="url(#g12hcs50jc4jyv0)" filter="url(#f12hcs50jc4jyv)" style="stroke:#666666;stroke-width:0.0;"/><path d="M883.3333,606.5313 L883.3333,612.7813 A4.1667,4.1667 0 0 0 887.5,616.9479 L893.75,616.9479 " fill="url(#g12hcs50jc4jyv0)" style="stroke:#666666;stroke-width:0.0;"/><text fill="#666666" font-family="Telia Sans" font-size="12.5" lengthAdjust="spacing" textLength="39.5833" x="833.3333" y="639.2646">My File</text></g><!--entity My Stack--><g id="elem_My Stack"><rect fill="url(#g12hcs50jc4jyv2)" height="56.2292" rx="4.1667" ry="4.1667" style="stroke:none;stroke-width:1.0416666666666667;" width="91.6667" x="945.8333" y="606.5313"/><path d="M930.2083,606.5313 L941.6667,606.5313 A4.1667,4.1667 0 0 1 945.8333,610.6979 L945.8333,658.5938 A4.1667,4.1667 0 0 0 950,662.7604 L1033.3333,662.7604 A4.1667,4.1667 0 0 0 1037.5,658.5938 L1037.5,610.6979 A4.1667,4.1667 0 0 1 1041.6667,606.5313 L1053.125,606.5313 " fill="none" filter="url(#f12hcs50jc4jyv)" style="stroke:#7F7F7F;stroke-width:1.0416666666666667;"/><text fill="#1E1E20" font-family="Telia Sans" font-size="12.5" lengthAdjust="spacing" textLength="50" x="966.6667" y="639.2646">My Stack</text></g><!--link HTTP to First Component--><g id="link_HTTP_First Component"><path d="M41.9375,160.7188 C50.2604,160.7188 63.1354,160.7188 77.2708,160.7188 " fill="none" id="HTTP-First Component" style="stroke:#5C524E;stroke-width:3.125;"/></g><!--link FTP to Second Component--><g id="link_FTP_Second Component"><path d="M73.0521,373.1979 C81.4063,373.1979 94.4688,373.1979 109.0208,373.1979 " fill="none" id="FTP-Second Component" style="stroke:#5C524E;stroke-width:3.125;"/></g><!--link First Component to FTP--><g id="link_First Component_FTP"><path d="M133.0208,194.3854 C119.2813,215.7604 102.125,244.7188 90.625,272.1667 C78.5521,300.9688 70.3958,336.7083 66.3958,356.7188 " fill="none" id="First Component-to-FTP" style="stroke:#5C524E;stroke-width:3.125;"/><polygon fill="#5C524E" points="65.4167,361.7917,71.2988,353.3861,66.4124,356.6794,63.1191,351.793,65.4167,361.7917" style="stroke:#5C524E;stroke-width:3.125;"/></g><!--link Another Component to Example 1--><g id="link_Another Component_Example 1"><path d="M387.7813,194.1771 C423.4167,232.0521 482.2813,294.6354 519.8854,334.6042 " fill="none" id="Another Component-to-Example 1" style="stroke:#5C524E;stroke-width:3.125;"/><polygon fill="#5C524E" points="523.2813,338.2083,519.8901,328.5258,519.7116,334.4156,513.8218,334.2371,523.2813,338.2083" style="stroke:#5C524E;stroke-width:3.125;"/><text fill="#1E1E20" font-family="Telia Sans" font-size="12.5" lengthAdjust="spacing" textLength="79.1667" x="461.4583" y="250.7333">some message</text></g><!--link Example 1 to Folder 3--><g id="link_Example 1_Folder 3"><path d="M555.2083,406.8229 C555.2083,454.4792 555.2083,543.0729 555.2083,594.2813 " fill="none" id="Example 1-to-Folder 3" style="stroke:#5C524E;stroke-width:3.125;"/><polygon fill="#5C524E" points="555.2083,599.375,559.375,590,555.2083,594.1667,551.0417,590,555.2083,599.375" style="stroke:#5C524E;stroke-width:3.125;"/></g><!--link Folder 3 to Frame 4--><g id="link_Folder 3_Frame 4"><path d="M555.2083,668.2188 C555.2083,695.9063 555.2083,735.7604 555.2083,765.2083 " fill="none" id="Folder 3-to-Frame 4" style="stroke:#5C524E;stroke-width:3.125;"/><polygon fill="#5C524E" points="555.2083,770.125,559.375,760.75,555.2083,764.9167,551.0417,760.75,555.2083,770.125" style="stroke:#5C524E;stroke-width:3.125;"/></g><!--SRC=[fLhhR-Eu4Vzi_XMAaqKJe4PjRpQRAt8173-Ie1idjLriYyLYGSkqeuii-IJwDcwH_xt3bqIAf1yN9n-auO_pud1cIFleP7BNV-W7lmPrIk88DwPP-ZEf8uIEeddm8KdfwOS_S1RXQKn-aDSef_bf_UJcjlluvN5KFpj3H-g5iyXmagzmHX9QHqSacKLpXFANA04QNWPJ7BuiidITpBffd6Q1cgf1rZcv8HIFwIOcmHp7EG5DJhxUtK-uZiU3mG0udzoEEl_XxnSN5-pzQNJ_q1a9Kh_Rw_VEwspUkDzz7FRKmE0Z_5qo-FXVtMv_FERKPkloyhpDgFV3mQCWDJzVXbD6-jeP3U-7jvmwd_zosMmoQgyplErpWu_9UUlpfv0HlzpVtaqaS2vGet_mznPfaJQVs06nGm7wrFtKFkyhtCteyUkGqpyFs1_NVb0ubcDACtzC-l-UQEJ2pEg0mYlTFiJHufcIv5ID_3LeDyyqeDJvmmndBmvOASZcM8pPu2fN2yeyxs39o0QaoiW2AFjvm9GBxL9NZ1JAIg2bgXjMbIFZn257ZYW62bYLuu5LvOZ8AsONKWHTpPQeGXabn8cgYX0nwh143AZP4bQrGmUXerMMXcIspaXmag_3aEJvwSaoNvoX8BYQfmaDGfO7VbLklRwQNhDndZgAkIQVEOvYU73p4IRjm-Odpf8eMRZPIE_lmsULHKkSRNxauJDPajCpL1i08vdUzEsAQZTfDYEP72eslQ9FdgFm9G4F1IqWLHEbiP4RwdMROZdDrY65Hqsr99sHu7-ejZV_MkrBb1294KiBD6RX42z9K9-maX6C8UdNWPuJbiCfO9aCvzGtnFvn1aL6W2nD2gXhFinzXd3a8UcPR-p4XdfbKxSuQu4JIWj70US0FcupgtpAqZKZSxoEQJ5DV8p9Jl0u-gy2jzewP1K5zgVLR6gO_1dFqfyGo0O6bbvNZBidJBE4P1heKaCyuOn6ORG2DppXsKpoEzSbtQIlsf3w6137E5TOWtJOoekLqZvgVJMxACb8IZSh8XUZQorqfHP9bBx7p0B40HsRZLuX9CPWeXK6FdnliT3JhOIOMxt8sNoqlprc9KRde1SDFZoqM9GLL0Bq-KNjXEWjVKmZ6lDqK6IicXLjnSvJWSeX9QxTjFDNETgqCvd9NVL_RtgN69C5x32cc7_DAzcqij9w3fPcewESGf3dwscG_uoMCKxq7Q98NAZEM9bVjR6DQXFcFikyQbWsT9tv5Bi-o9m2kkbguf16VqHqexj6qPYUZj9pWwjwZnatBGfGhM-43Ahr8hnCazckxQNR0G6WPcrR18dHx3NxLBVPgp8LwPPhP8_nMWwpLylduJIhk5SKhxthuxx1OWUaIn-M70rzL9qiUNr4jOeqZVMWs4uExZdvVKsIaEW25CsA-y90NyXQBjAEVcRO5JFwLMyocQytlZCX7zHrOcS-JgqwizOZCTvOr2_HdB0UmkgxgaF6IXL3k-fDxHP6LmuDETtIXbFl20QqUypl22bejja14Tpze1xa3XU0T_wDax9wAA1bcpMekquRj2mSaJaKT8WqltObn7PfCUPdRBbMfBTnqKZu-d9_5g9HcbWvY16jxUAkEbltY5Cid3zY4Z8HkIvO8xkJduTPGhCqDXbnaYU3QlgBM72o1UKhLKbGtiLqofm44utR8abx5sEy86OXuGHNZZzEONKMn5pPur_uHvTs_95_tEAIb1e9bhsNqRBzZ5UsS0qPl5OJPrWj3koUIaAZELGpivW8chE-6IcWvjY1cbnEy4JSSfKc5OSNn0D2DqfWsuAoXYyBeik2IXTkcA36zYp3EJG142L6dHGaj-lS1qveabmzlBc2sYsFBvvcbNYQaUsTiQFjj5CLIzMEaDpBFM6ShcV60ZE2FAPjtwT-fZDCyHJdXgsAjdl_RrCMvsOgPOI3FUYfhBAED8phKq_DaHN1Tdg7qYoQhgaDDaRuBK6hvJOpdVv6pDqkA1xNlL_1IYT_WAhhd8ILXPOatw76xj6s5NMtr0oS0TazDkGMHECGx2lUUsonTogv0ecLn2D9tlFUkrHqAZ5FOu3fEWZAjh9XNyNidVlsrmjKCLp32U_HoYgeUj7TgGyyq4gDm7Hx35UwJnLcXv_P3qmPvlKAr_Fg2WfojdbAeQXUN_FaxMKAintJNoFwvsU7psaKajrJ7Nw70-lQy3id7D8MuymiN_3k3AD3-x7Y2oXF04Tczc7lxolbxixC6wxXIsKbmfS3tBOYMGx78IqrSOAtxZkP_CPOrAvozktkDQgnrrw45umTQC8PkRwtU4Er3Lx6UqAl_YRvEnJW5_rSOwM4kela8wK4_PeoIrDQ8Vc_7z0HRyORnVcBWutjEiUjVw1z6QBonysjXLGty1TRr9174fUGQZ0NlU8MRVn05jYtreQoeAPs-dT8EoIN-yJX2Kiuz1WfFqxw_UplR_pwBc4Nm-aWsSEbngs33ojozeL_dFym8g8uZa8do3BSkBhStwSxreb6ImXwfzcxzuLfRDkvU9wKw5ZgFxDiS6R9oSopPjuZddS_-CvqRWNUa7ZUbgZu5unmT2dJbAHu4oxZkuqZvXT86aD1E9GV-rMG_OCW_YEY-XaItobrYoE_IgYDGFxEY3Bkm8xziCS3Bduuz1VjsySjDsb8DSdrXmraGFvSvsRTJIPF8FhR8CfoMWhw3aFVEf07dw6jDQZbYU1XCrBFBHZGR-0UDjtYZHro0iHFvKpw41w4w86GFEPPfoAwgaxGQ5op2Ju5e0CD41B7R2Qbovw4c6_zLxnS0RprdNLQFZNR21MdQSQX9ry44zdWim7noCYrRmD1_lWTYU0L3JT33TYJ177YkS201iKj4yDrv4iTgGiKHXsBvpeIdHiZ_PCzrL5vmyE8z-gjZdYFnas7XphYhHDN11uOSzRA2DRmL4V8iRhSoPgx_XxaAMY-X2t5pbpQY42MrfUFSaIP_7y0]--></g></svg>