<?xml version="1.0" encoding="us-ascii" standalone="no"?><svg xmlns="http://www.w3.org/2000/svg" xmlns:xlink="http://www.w3.org/1999/xlink" contentStyleType="text/css" height="885.4167px" preserveAspectRatio="none" style="width:563px;height:885px;" version="1.1" viewBox="0 0 563 885" width="563.5417px" zoomAndPan="magnify"><defs><linearGradient id="g1i9qepdxx63vk0" x1="50%" x2="50%" y1="0%" y2="100%"><stop offset="0%" stop-color="#FFFFFF"/><stop offset="100%" stop-color="#F3F3F8"/></linearGradient><filter height="300%" id="f1i9qepdxx63vk" width="300%" x="-1" y="-1"><feGaussianBlur result="blurOut" stdDeviation="2.0833333333333335"/><feColorMatrix in="blurOut" result="blurOut2" type="matrix" values="0 0 0 0 0 0 0 0 0 0 0 0 0 0 0 0 0 0 .4 0"/><feOffset dx="4.166666666666667" dy="4.166666666666667" in="blurOut2" result="blurOut3"/><feBlend in="SourceGraphic" in2="blurOut3" mode="normal"/></filter><linearGradient id="g1i9qepdxx63vk1" x1="50%" x2="50%" y1="0%" y2="100%"><stop offset="0%" stop-color="#FFFFFF"/><stop offset="100%" stop-color="#FFFFFF"/></linearGradient><linearGradient id="g1i9qepdxx63vk2" x1="50%" x2="50%" y1="0%" y2="100%"><stop offset="0%" stop-color="#FFFFFF"/><stop offset="100%" stop-color="#ECDED4"/></linearGradient></defs><g><text fill="#5C524E" font-family="Telia Sans" font-size="20.8333" font-weight="bold" lengthAdjust="spacing" textLength="513.5417" x="20.8333" y="40.6667">Deployment Diagram With Group- telia-brown theme</text><!--cluster Some Group--><g id="cluster_Some Group"><path d="M24.4792,73.2292 L115.1042,73.2292 A6.25,6.25 0 0 1 119.2708,77.3958 L126.5625,114.875 L471.3542,114.875 A4.1667,4.1667 0 0 1 475.5208,119.0417 L475.5208,206.5417 A4.1667,4.1667 0 0 1 471.3542,210.7083 L24.4792,210.7083 A4.1667,4.1667 0 0 1 20.3125,206.5417 L20.3125,77.3958 A4.1667,4.1667 0 0 1 24.4792,73.2292 " fill="url(#g1i9qepdxx63vk0)" filter="url(#f1i9qepdxx63vk)" style="stroke:#7F7F7F;stroke-width:2.0833333333333335;"/><line style="stroke:#7F7F7F;stroke-width:2.0833333333333335;" x1="20.3125" x2="126.5625" y1="114.875" y2="114.875"/><text fill="#1E1E20" font-family="Telia Sans" font-size="12.5" font-weight="bold" lengthAdjust="spacing" textLength="71.875" x="34.8958" y="97.6292">Some Group</text></g><!--cluster Other Groups--><g id="cluster_Other Groups"><polygon fill="url(#g1i9qepdxx63vk0)" filter="url(#f1i9qepdxx63vk)" points="80.7292,290.9167,91.1458,280.5,342.1875,280.5,342.1875,412.7708,331.7708,423.1875,80.7292,423.1875,80.7292,290.9167" style="stroke:#7F7F7F;stroke-width:1.0416666666666667;"/><line style="stroke:#7F7F7F;stroke-width:1.0416666666666667;" x1="331.7708" x2="342.1875" y1="290.9167" y2="280.5"/><line style="stroke:#7F7F7F;stroke-width:1.0416666666666667;" x1="80.7292" x2="331.7708" y1="290.9167" y2="290.9167"/><line style="stroke:#7F7F7F;stroke-width:1.0416666666666667;" x1="331.7708" x2="331.7708" y1="290.9167" y2="423.1875"/><text fill="#1E1E20" font-family="Telia Sans" font-size="12.5" font-weight="bold" lengthAdjust="spacing" textLength="80.2083" x="167.1875" y="316.3583">Other Groups</text></g><g id="cluster_##12"><path d="M383.9732,307.6962 C386.981,302.3264 392.1033,303.028 394.867,307.9545 C398.296,300.9157 402.5382,301.5432 407.1405,306.7816 C410.2051,300.1372 414.1905,299.3241 419.0558,305.0468 C422.2195,299.2344 426.8196,299.641 430.4662,304.532 C432.8844,297.8885 438.0275,296.9423 442.5545,302.4308 C446.9083,297.1885 452.8029,297.9359 455.1658,304.5487 C458.9815,299.1922 464.7694,299.5923 467.8136,305.421 C471.8001,299.8587 476.3107,299.3367 479.8985,305.8209 C485.0963,300.256 489.3575,302.7773 491.8897,308.6223 C499.159,302.0525 507.285,305.9797 508.8542,314.875 C510.0535,315.1538 510.2116,316.0173 509.4533,316.8808 C516.019,318.6129 516.2281,322.1284 512.6324,327.0402 C519.0552,330.4255 519.2431,334.7688 513.3961,338.9415 C520.3933,341.5485 519.718,345.397 515.951,350.4034 C521.0547,352.7636 523.0255,357.9523 517.5877,361.8232 C523.1378,366.7355 521.863,371.884 515.3507,374.7009 C521.0558,378.059 520.5606,383.3523 515.0801,386.4529 C518.8091,392.0595 516.5881,394.668 510.9344,396.3407 C518.0424,407.3494 514.0785,413.7795 501.5625,414.8542 C502.1426,414.292 502.5682,414.393 502.9897,415.0412 C500.3246,421.7998 495.081,421.3659 490.6875,416.9429 C488.6965,423.5694 484.4012,424.5527 479.6949,419.4982 C476.6948,425.0022 470.1062,425.4511 466.5031,420.2406 C462.7751,426.7113 458.3482,426.6419 454.4362,420.4154 C451.0291,425.8889 447.0874,425.2402 443.2811,420.8675 C439.7335,426.5622 435.0314,426.1939 431.9752,420.3845 C427.7618,425.3954 422.0985,424.8253 419.1371,418.9129 C416.0042,424.3283 411.0471,425.2433 407.3399,419.5212 C402.9363,423.5428 399.3793,424.2423 396.3536,418.0405 C386.361,424.3918 375.408,421.3031 375.5208,407.5625 C376.4772,407.2546 377.0621,407.5362 376.9482,408.6427 C370.6271,406.435 369.3201,401.4986 374.5212,396.9078 C368.791,393.5919 369.4038,390.0746 374.2639,386.497 C367.8099,383.9184 366.7292,378.7436 370.9688,373.4618 C366.0373,370.9068 365.9891,365.6469 370.6469,362.8024 C364.0081,359.0612 364.1831,352.978 371.2095,349.8295 C367.7793,345.9058 368.789,342.1426 373.4711,340.1057 C367.0741,335.7605 367.6048,330.7488 374.5931,327.6051 C368.7283,318.6967 369.5223,308.6282 382.8125,307.5833 C383.2287,307.142 383.6519,307.1622 383.9732,307.6962 " fill="url(#g1i9qepdxx63vk0)" filter="url(#f1i9qepdxx63vk)" style="stroke:#7F7F7F;stroke-width:1.0416666666666667;"/></g><!--cluster MySql--><g id="cluster_MySql"><path d="M346.3542,466.9375 C346.3542,456.5208 442.1875,456.5208 442.1875,456.5208 C442.1875,456.5208 538.0208,456.5208 538.0208,466.9375 L538.0208,857.5208 C538.0208,867.9375 442.1875,867.9375 442.1875,867.9375 C442.1875,867.9375 346.3542,867.9375 346.3542,857.5208 L346.3542,466.9375 " fill="url(#g1i9qepdxx63vk0)" filter="url(#f1i9qepdxx63vk)" style="stroke:#7F7F7F;stroke-width:1.0416666666666667;"/><path d="M346.3542,466.9375 C346.3542,477.3542 442.1875,477.3542 442.1875,477.3542 C442.1875,477.3542 538.0208,477.3542 538.0208,466.9375 " fill="none" style="stroke:#7F7F7F;stroke-width:1.0416666666666667;"/><text fill="#1E1E20" font-family="Telia Sans" font-size="12.5" font-weight="bold" lengthAdjust="spacing" textLength="35.4167" x="424.4792" y="501.7542">MySql</text></g><!--cluster This is my folder--><g id="cluster_This is my folder"><path d="M375.5208,534.6458 L488.0208,534.6458 A6.25,6.25 0 0 1 492.1875,538.8125 L499.4792,576.2917 L508.8542,576.2917 A4.1667,4.1667 0 0 1 513.0208,580.4583 L513.0208,667.9583 A4.1667,4.1667 0 0 1 508.8542,672.125 L375.5208,672.125 A4.1667,4.1667 0 0 1 371.3542,667.9583 L371.3542,538.8125 A4.1667,4.1667 0 0 1 375.5208,534.6458 " fill="url(#g1i9qepdxx63vk1)" filter="url(#f1i9qepdxx63vk)" style="stroke:#FF9800;stroke-width:2.0833333333333335;"/><line style="stroke:#FF9800;stroke-width:2.0833333333333335;" x1="371.3542" x2="499.4792" y1="576.2917" y2="576.2917"/><text fill="#FF9800" font-family="Telia Sans" font-size="12.5" font-weight="bold" lengthAdjust="spacing" textLength="93.75" x="385.9375" y="559.0458">This is my folder</text></g><!--cluster Foo--><g id="cluster_Foo"><rect fill="url(#g1i9qepdxx63vk1)" filter="url(#f1i9qepdxx63vk)" height="137.4792" rx="4.1667" ry="4.1667" style="stroke:#0078CB;stroke-width:2.0833333333333335;" width="141.6667" x="371.3542" y="705.4583"/><path d="M424.4792,705.4583 L424.4792,733.5625 L414.0625,743.9792 L371.3542,743.9792 " fill="none" style="stroke:#0078CB;stroke-width:2.0833333333333335;"/><text fill="#0078CB" font-family="Telia Sans" font-size="12.5" font-weight="bold" lengthAdjust="spacing" textLength="21.875" x="384.8958" y="728.8167">Foo</text></g><!--entity HTTP--><g id="elem_HTTP"><ellipse cx="46.3542" cy="160.7188" fill="#B6124A" filter="url(#f1i9qepdxx63vk)" rx="8.3333" ry="8.3333" style="stroke:#E4175C;stroke-width:0.0;"/><text fill="#1E1E20" font-family="Telia Sans" font-size="12.5" lengthAdjust="spacing" textLength="31.25" x="30.7292" y="200.7438">HTTP</text></g><!--entity First Component--><g id="elem_First Component"><rect fill="url(#g1i9qepdxx63vk2)" filter="url(#f1i9qepdxx63vk)" height="66.6458" rx="4.1667" ry="4.1667" style="stroke:#7F7F7F;stroke-width:1.0416666666666667;" width="155.2083" x="91.6667" y="127.3958"/><rect fill="url(#g1i9qepdxx63vk2)" height="10.4167" style="stroke:#7F7F7F;stroke-width:1.0416666666666667;" width="15.625" x="226.0417" y="132.6042"/><rect fill="url(#g1i9qepdxx63vk2)" height="2.0833" style="stroke:#7F7F7F;stroke-width:1.0416666666666667;" width="4.1667" x="223.9583" y="134.6875"/><rect fill="url(#g1i9qepdxx63vk2)" height="2.0833" style="stroke:#7F7F7F;stroke-width:1.0416666666666667;" width="4.1667" x="223.9583" y="138.8542"/><text fill="#1E1E20" font-family="Telia Sans" font-size="12.5" lengthAdjust="spacing" textLength="92.7083" x="117.7083" y="170.5458">First Component</text></g><!--entity Another Component--><g id="elem_Another Component"><rect fill="url(#g1i9qepdxx63vk2)" filter="url(#f1i9qepdxx63vk)" height="66.6458" rx="4.1667" ry="4.1667" style="stroke:#7F7F7F;stroke-width:1.0416666666666667;" width="176.0417" x="283.3333" y="127.3958"/><rect fill="url(#g1i9qepdxx63vk2)" height="10.4167" style="stroke:#7F7F7F;stroke-width:1.0416666666666667;" width="15.625" x="438.5417" y="132.6042"/><rect fill="url(#g1i9qepdxx63vk2)" height="2.0833" style="stroke:#7F7F7F;stroke-width:1.0416666666666667;" width="4.1667" x="436.4583" y="134.6875"/><rect fill="url(#g1i9qepdxx63vk2)" height="2.0833" style="stroke:#7F7F7F;stroke-width:1.0416666666666667;" width="4.1667" x="436.4583" y="138.8542"/><text fill="#1E1E20" font-family="Telia Sans" font-size="12.5" lengthAdjust="spacing" textLength="113.5417" x="309.375" y="170.5458">Another Component</text></g><!--entity FTP--><g id="elem_FTP"><ellipse cx="106.7708" cy="373.1979" fill="#B6124A" filter="url(#f1i9qepdxx63vk)" rx="8.3333" ry="8.3333" style="stroke:#E4175C;stroke-width:0.0;"/><text fill="#1E1E20" font-family="Telia Sans" font-size="12.5" lengthAdjust="spacing" textLength="21.875" x="95.8333" y="413.2229">FTP</text></g><!--entity Second Component--><g id="elem_Second Component"><rect fill="url(#g1i9qepdxx63vk2)" filter="url(#f1i9qepdxx63vk)" height="66.6458" rx="4.1667" ry="4.1667" style="stroke:#7F7F7F;stroke-width:1.0416666666666667;" width="172.9167" x="152.6042" y="339.875"/><rect fill="url(#g1i9qepdxx63vk2)" height="10.4167" style="stroke:#7F7F7F;stroke-width:1.0416666666666667;" width="15.625" x="304.6875" y="345.0833"/><rect fill="url(#g1i9qepdxx63vk2)" height="2.0833" style="stroke:#7F7F7F;stroke-width:1.0416666666666667;" width="4.1667" x="302.6042" y="347.1667"/><rect fill="url(#g1i9qepdxx63vk2)" height="2.0833" style="stroke:#7F7F7F;stroke-width:1.0416666666666667;" width="4.1667" x="302.6042" y="351.3333"/><text fill="#1E1E20" font-family="Telia Sans" font-size="12.5" lengthAdjust="spacing" textLength="110.4167" x="178.6458" y="383.025">Second Component</text></g><!--entity Example 1--><g id="elem_Example 1"><rect fill="url(#g1i9qepdxx63vk2)" filter="url(#f1i9qepdxx63vk)" height="66.6458" rx="4.1667" ry="4.1667" style="stroke:#7F7F7F;stroke-width:1.0416666666666667;" width="117.7083" x="383.3333" y="339.875"/><rect fill="url(#g1i9qepdxx63vk2)" height="10.4167" style="stroke:#7F7F7F;stroke-width:1.0416666666666667;" width="15.625" x="480.2083" y="345.0833"/><rect fill="url(#g1i9qepdxx63vk2)" height="2.0833" style="stroke:#7F7F7F;stroke-width:1.0416666666666667;" width="4.1667" x="478.125" y="347.1667"/><rect fill="url(#g1i9qepdxx63vk2)" height="2.0833" style="stroke:#7F7F7F;stroke-width:1.0416666666666667;" width="4.1667" x="478.125" y="351.3333"/><text fill="#1E1E20" font-family="Telia Sans" font-size="12.5" lengthAdjust="spacing" textLength="55.2083" x="409.375" y="383.025">Example 1</text></g><!--entity Folder 3--><g id="elem_Folder 3"><rect fill="url(#g1i9qepdxx63vk2)" filter="url(#f1i9qepdxx63vk)" height="66.6458" rx="4.1667" ry="4.1667" style="stroke:#7F7F7F;stroke-width:1.0416666666666667;" width="108.3333" x="388.0208" y="588.8125"/><rect fill="url(#g1i9qepdxx63vk2)" height="10.4167" style="stroke:#7F7F7F;stroke-width:1.0416666666666667;" width="15.625" x="475.5208" y="594.0208"/><rect fill="url(#g1i9qepdxx63vk2)" height="2.0833" style="stroke:#7F7F7F;stroke-width:1.0416666666666667;" width="4.1667" x="473.4375" y="596.1042"/><rect fill="url(#g1i9qepdxx63vk2)" height="2.0833" style="stroke:#7F7F7F;stroke-width:1.0416666666666667;" width="4.1667" x="473.4375" y="600.2708"/><text fill="#1E1E20" font-family="Telia Sans" font-size="12.5" lengthAdjust="spacing" textLength="45.8333" x="414.0625" y="631.9625">Folder 3</text></g><!--entity Frame 4--><g id="elem_Frame 4"><rect fill="url(#g1i9qepdxx63vk2)" filter="url(#f1i9qepdxx63vk)" height="66.6458" rx="4.1667" ry="4.1667" style="stroke:#7F7F7F;stroke-width:1.0416666666666667;" width="107.2917" x="388.5417" y="759.625"/><rect fill="url(#g1i9qepdxx63vk2)" height="10.4167" style="stroke:#7F7F7F;stroke-width:1.0416666666666667;" width="15.625" x="475" y="764.8333"/><rect fill="url(#g1i9qepdxx63vk2)" height="2.0833" style="stroke:#7F7F7F;stroke-width:1.0416666666666667;" width="4.1667" x="472.9167" y="766.9167"/><rect fill="url(#g1i9qepdxx63vk2)" height="2.0833" style="stroke:#7F7F7F;stroke-width:1.0416666666666667;" width="4.1667" x="472.9167" y="771.0833"/><text fill="#1E1E20" font-family="Telia Sans" font-size="12.5" lengthAdjust="spacing" textLength="44.7917" x="414.5833" y="802.775">Frame 4</text></g><!--link HTTP to First Component--><g id="link_HTTP_First Component"><path d="M56,160.7188 C64.3229,160.7188 77.1979,160.7188 91.3333,160.7188 " fill="none" id="HTTP-First Component" style="stroke:#5C524E;stroke-width:3.125;"/></g><!--link FTP to Second Component--><g id="link_FTP_Second Component"><path d="M116.2813,373.1979 C124.6354,373.1979 137.6979,373.1979 152.25,373.1979 " fill="none" id="FTP-Second Component" style="stroke:#5C524E;stroke-width:3.125;"/></g><!--link First Component to FTP--><g id="link_First Component_FTP"><path d="M158.3333,194.4896 C151.125,216.3958 141.6146,245.9167 133.8542,272.1667 C125,302.1146 115.6979,337.4479 110.625,357.0729 " fill="none" id="First Component-to-FTP" style="stroke:#5C524E;stroke-width:3.125;"/><polygon fill="#5C524E" points="109.3542,362.0313,115.7205,353.9863,110.6489,356.9864,107.6487,351.9148,109.3542,362.0313" style="stroke:#5C524E;stroke-width:3.125;"/></g><!--link Another Component to Example 1--><g id="link_Another Component_Example 1"><path d="M382.2708,194.1771 C394.8646,231.5938 415.5729,293.1146 429.0521,333.125 " fill="none" id="Another Component-to-Example 1" style="stroke:#5C524E;stroke-width:3.125;"/><polygon fill="#5C524E" points="430.6458,337.8646,431.5972,327.6496,428.981,332.9295,423.701,330.3133,430.6458,337.8646" style="stroke:#5C524E;stroke-width:3.125;"/><text fill="#1E1E20" font-family="Telia Sans" font-size="12.5" lengthAdjust="spacing" textLength="88.5417" x="415.1042" y="250.7333">Some Comment</text></g><!--link Example 1 to Folder 3--><g id="link_Example 1_Folder 3"><path d="M442.1875,407.0208 C442.1875,452.2396 442.1875,533.6354 442.1875,581.9792 " fill="none" id="Example 1-to-Folder 3" style="stroke:#5C524E;stroke-width:3.125;"/><polygon fill="#5C524E" points="442.1875,586.9896,446.3542,577.6146,442.1875,581.7813,438.0208,577.6146,442.1875,586.9896" style="stroke:#5C524E;stroke-width:3.125;"/></g><!--link Folder 3 to Frame 4--><g id="link_Folder 3_Frame 4"><path d="M442.1875,655.7083 C442.1875,683.3958 442.1875,723.25 442.1875,752.6979 " fill="none" id="Folder 3-to-Frame 4" style="stroke:#5C524E;stroke-width:3.125;"/><polygon fill="#5C524E" points="442.1875,757.6146,446.3542,748.2396,442.1875,752.4063,438.0208,748.2396,442.1875,757.6146" style="stroke:#5C524E;stroke-width:3.125;"/></g><!--SRC=[fLhhJ-D84lyS_nKcC1985rt2C0nxOf52I03TJ40afxdJQ3NgE9tGYsDdxSuEkHF_-rM_x7xciGG-n5M_hbTNLtMtSt0qlkj_xSU_nasAKu9QaoB_cJMZA3eWi_X3bjFZ3t-YWg19Yd_WLrBIyhXvT7tRU_ZoyDGyEOaEr0CNKQ2iNA82PxGP7U1iIcPHLBwG36Xe4KzGyZ8lybKsxULfNiHgg0PPbVWQKpIYwnJ7CvIM62mv-dPtF-Os7Wu60v1yTFlK_Gz_FZy_Py-FJ_TVkq-2rE_Tz6_EccpSgDzx6Duenk0Z_5qm-EXVlLv_DEBKTkVYukoKKU-7WmT1Qd- -I2QCzAtxDBmVtdBgRFRBHRlDg3VTuMsVEto8ppgVFoMC-EN-zcuiWJE1UledV-xW3Zxb0xkWTYX0dtgVJi_w2dVzzF1joEcV1-oFMp-e0iinjPi_nlr_ZpLovQRDK7XbsuUKp9yfpeuLvs_nQVj40qgRFqnHyUA1rOfSYHNF1TjI7IYBl4Sa8niGMv03KFxpXAadscUku5J6Ig1ZgXzcwv5vuj4ZEKg00jfw0Z1RZyYyQdIbHT3LQ8cgZ55Al2XRXSXHZoU2eKPBcEs73eeEbaMUuEcgmF5HkKeIN9R7HujoVXB5yUKipsYSi3hmgmhhrUNaYl5vwQZ6cd9cYAJmnIz7kBIBc9-eo4WszukHqTz5ph8W2rIiVvJ9CrxWuvEeCG11ihpfopLgNEV551UILIrwHHy_a-GbWmZ57I3PXT9Oo2trkCcmaXQhXC9NpRGid-BuVr5ZP_cDnXUIOOaHKmiqvk4GBN3S7BEM4O-Ww3U1Nc9MmobWcGxlqBU8_QC2cem0EPPKKDzu6FiCwSXJCZ3UM8ajzSY6RWZM76MKLe42oJ5y_6xQSkhMDSKpj4ffDKnyZC5Uy8ZyLu4xfpfaIMBtqsctDKpvZARvJqXa0mDJhnl6mvFaHOOB3NIX8HvHGKb2bX26HpITIdbdkgRh_5LZgOy1yV2vmHgaosPUp9JsKVEh-KLnWNEwNc8v6JrdegrU957w6ZCR40TqNJ5wXv0OGuZM63ZxtX6Xbri9CPTwLRCvjxyvPoL6bw0t3SuUEYBg3Ye1-lYgTqBsrZ6cXAQy75GLg-5aMxNoLA9oI8qxRRlrg-QstKfcIbVxlpTzbvZYEQmmPbXupgrgQisqNeEbsz51II79ozKaBd-IHOeoVOKe4bUg2rRkspwUHeqn2v_ZdfsMBTrcFiJj3xAcW6swcIYXv4z2rtfe58tPwMazryYsUyIaQLaGDVf6oaID6u8MUJRTjhnqFo01rAXDao0nch_cFjNlzh8kHRhd6ZdWl5R3tDaAHJWlhF2AvhLpVzmrMTo4zDd3YgDXZ-gJjQoFKSFIfeaULCl98xt4Vwnmbc1TWQ8vULyv64fP9qJQqSzCksf4tuucq_bw7JeJSgPk4plpSQeTpCODJj7QeNuXCyps4Cw-osOPCrMnjlMRnYrmbnuBETsnXbFlC0AqdnSEX5GqNM-12EbXq0tK3X-0x_nRHtNtK437DuUfXqvZEXu-uHaqTCYqi7Krn0rfnGiBTa8hojkesaY4zkNXAaH9dZarY16TvUBlEXlNY5Sjd3zId30LfQvO8_kBNq1OHeiyDGLnKg22QlQBNF2A1UEjhYGexn8wOK62WSPjaQIzIp2QOxEHS8AlnX_cC3jpRCxiuI_yesix_CW_VdLPJeq2ovxhRDbyngktS2sPlCucpl1Q7DW3dOII6NGpiva8chU_6IMWuLc1cbvE26JSOfbdLi0huXwfIp9Ojc2i4SkAwFF0seKRBYZUZcsuX4q0P8dH9mN97ph_WHCsIRuzl3c3sYrFA9-cLZvDyUQTiMVRwPOgLgezARbJU98qNqsD2MO4UKpRl4x3GgU8eWag3LyLRVlwtsGiAirIoWXxHp3GMMKVQHdNfu6U8pk26_GkfGMPhAWBDZZybg3JyRkPJtx7vceNb43etc-WjPFVmzHLYHDheYKfTAXnzsYRchfVQm71WEgU6dehed483ZNl7PROEurSWaQhy4XIyBptBXEzHipo562w3OAogMsuLp4xrxxTxG9JZD1mmdkiSXggtdItsWDVgDKZ4DsSmzRkKwNP_cVsFKk6URt2xRoyX8PSh1zpQAfNLxnu1uN2QC_mLqB_-kZaEIS9tZxK4tSuiAwCk7F2FjjYL9Zj2vwzQRJlVgnw0HL8O69M7_RylbRktva5qpLviMOYUTaZR4jSb70SqaeJ9mJxlbV8xqn4ux9aRtUleWPxl25epiI19LoGxxt5MzHOeqMw8_JoxrA-nm1-qSyjLaQekqZEgJNervH5dbEB57u_e2FUZ2UAoXUF63Tqdbl_M7iPekh7zQs3L3VmvnlCa4SIdn8xcQkzuWPhma2MsBVEWdAWfdNwEwGjckjruec4enps63a_JeRZ7DxVXErTm2g6qq6sGqYDMuSGLjJiyp2V_p22K9IIn0jo73UkBdUFwPPvecG1IUzrU_kwC9qzzKvUe2HwflglJ1kSMKey3SnPy8WNN0-XCvtVWBT8VDzKgFWBHZYwr6LAKe85bydT917n2oHDe23iAu_zAiZzGH3_4L7p91Blb6xmCitN2tRcLnNr6w7FCR-bRCNo9qUKAGB9x3S-EuohVa-aziJDKGv9ndbDxiNTUFmOj-Bl0rAKDEwfUuVVWFMz2sNl6NQn6XLs9lmutNpW72we5986Gj28rmnBaYqzRhMks00chpuAV- -_eiKIVEfmHTLPjlbrFVeZ5Lhanhe9UyqoXl_5MfAQSbA-3mJYus-Ho1-nvsqEyho6SDAPG80cZwVSGisWVyGySW1WeOuqZa3MMkklagEK_Hy0]--></g></svg>