<?xml version="1.0" encoding="us-ascii" standalone="no"?><svg xmlns="http://www.w3.org/2000/svg" xmlns:xlink="http://www.w3.org/1999/xlink" contentStyleType="text/css" height="769.7917px" preserveAspectRatio="none" style="width:758px;height:769px;" version="1.1" viewBox="0 0 758 769" width="758.3333px" zoomAndPan="magnify"><defs><linearGradient id="g7fsfvxbqzopl0" x1="50%" x2="50%" y1="0%" y2="100%"><stop offset="0%" stop-color="#FFFFFF"/><stop offset="100%" stop-color="#ECDED4"/></linearGradient><filter height="300%" id="f7fsfvxbqzopl" width="300%" x="-1" y="-1"><feGaussianBlur result="blurOut" stdDeviation="2.0833333333333335"/><feColorMatrix in="blurOut" result="blurOut2" type="matrix" values="0 0 0 0 0 0 0 0 0 0 0 0 0 0 0 0 0 0 .4 0"/><feOffset dx="4.166666666666667" dy="4.166666666666667" in="blurOut2" result="blurOut3"/><feBlend in="SourceGraphic" in2="blurOut3" mode="normal"/></filter><linearGradient id="g7fsfvxbqzopl1" x1="50%" x2="50%" y1="0%" y2="100%"><stop offset="0%" stop-color="#FFFFFF"/><stop offset="100%" stop-color="#FFFFFF"/></linearGradient><linearGradient id="g7fsfvxbqzopl2" x1="50%" x2="50%" y1="0%" y2="100%"><stop offset="0%" stop-color="#0090F4"/><stop offset="100%" stop-color="#0078CB"/></linearGradient><linearGradient id="g7fsfvxbqzopl3" x1="50%" x2="50%" y1="0%" y2="100%"><stop offset="0%" stop-color="#FFFFFF"/><stop offset="100%" stop-color="#F3F3F8"/></linearGradient><linearGradient id="g7fsfvxbqzopl4" x1="50%" x2="50%" y1="0%" y2="100%"><stop offset="0%" stop-color="#FFAD33"/><stop offset="100%" stop-color="#FF9800"/></linearGradient></defs><g><text fill="#5C524E" font-family="Telia Sans" font-size="20.8333" font-weight="bold" lengthAdjust="spacing" textLength="401.0417" x="171.3542" y="40.6667">Deployment Diagram - telia-brown theme</text><!--entity actor--><g id="elem_actor"><ellipse cx="61.9792" cy="81.5625" fill="url(#g7fsfvxbqzopl0)" filter="url(#f7fsfvxbqzopl)" rx="8.3333" ry="8.3333" style="stroke:#5C524E;stroke-width:2.0833333333333335;"/><path d="M61.9792,89.8958 L61.9792,118.0208 M48.4375,98.2292 L75.5208,98.2292 M61.9792,118.0208 L48.4375,133.6458 M61.9792,118.0208 L75.5208,133.6458 " fill="none" filter="url(#f7fsfvxbqzopl)" style="stroke:#5C524E;stroke-width:2.0833333333333335;"/><text fill="#1E1E20" font-family="Telia Sans" font-size="12.5" lengthAdjust="spacing" textLength="28.125" x="47.9167" y="162.2125">actor</text></g><!--entity actor/--><g id="elem_actor/"><ellipse cx="149.4792" cy="81.5625" fill="url(#g7fsfvxbqzopl0)" filter="url(#f7fsfvxbqzopl)" rx="8.3333" ry="8.3333" style="stroke:#5C524E;stroke-width:2.0833333333333335;"/><line style="stroke:#5C524E;stroke-width:2.0833333333333335;" x1="147.4543" x2="157.5628" y1="89.6461" y2="79.5377"/><path d="M149.4792,89.8958 L149.4792,118.0208 M135.9375,98.2292 L163.0208,98.2292 M149.4792,118.0208 L135.9375,133.6458 M149.4792,118.0208 L163.0208,133.6458 " fill="none" filter="url(#f7fsfvxbqzopl)" style="stroke:#5C524E;stroke-width:2.0833333333333335;"/><text fill="#1E1E20" font-family="Telia Sans" font-size="12.5" lengthAdjust="spacing" textLength="32.2917" x="133.3333" y="162.2125">actor/</text></g><!--entity agent--><g id="elem_agent"><rect fill="#FFA500" filter="url(#f7fsfvxbqzopl)" height="56.2292" rx="4.1667" ry="4.1667" style="stroke:#999999;stroke-width:0.0;" width="72.9167" x="211.9792" y="95.1042"/><text fill="#333333" font-family="Telia Sans" font-size="12.5" lengthAdjust="spacing" textLength="31.25" x="232.8125" y="127.8375">agent</text></g><!--entity artifact--><g id="elem_artifact"><rect fill="url(#g7fsfvxbqzopl1)" filter="url(#f7fsfvxbqzopl)" height="59.3542" rx="4.1667" ry="4.1667" style="stroke:#666666;stroke-width:0.0;" width="90.625" x="320.8333" y="93.5417"/><polygon fill="url(#g7fsfvxbqzopl1)" points="393.75,98.75,393.75,113.3333,406.25,113.3333,406.25,105,400,98.75,393.75,98.75" style="stroke:#666666;stroke-width:0.0;"/><line style="stroke:#666666;stroke-width:0.0;" x1="400" x2="400" y1="98.75" y2="105"/><line style="stroke:#666666;stroke-width:0.0;" x1="406.25" x2="400" y1="105" y2="105"/><text fill="#666666" font-family="Telia Sans" font-size="12.5" lengthAdjust="spacing" textLength="38.5417" x="341.6667" y="129.4">artifact</text></g><!--entity boundary--><g id="elem_boundary"><path d="M463.5417,93.0208 L463.5417,118.0208 M463.5417,105.5208 L481.25,105.5208 " fill="none" filter="url(#f7fsfvxbqzopl)" style="stroke:#7F7F7F;stroke-width:1.0416666666666667;"/><ellipse cx="493.75" cy="105.5208" fill="url(#g7fsfvxbqzopl0)" filter="url(#f7fsfvxbqzopl)" rx="12.5" ry="12.5" style="stroke:#7F7F7F;stroke-width:1.0416666666666667;"/><text fill="#FFFFFF" font-family="Telia Sans" font-size="12.5" lengthAdjust="spacing" textLength="53.125" x="458.3333" y="144.5042">boundary</text></g><!--entity card--><g id="elem_card"><rect fill="url(#g7fsfvxbqzopl2)" filter="url(#f7fsfvxbqzopl)" height="41.6458" rx="4.1667" ry="4.1667" style="stroke:#0078CB;stroke-width:0.0;" width="65.625" x="558.3333" y="102.3958"/><text fill="#FFFFFF" font-family="Telia Sans" font-size="12.5" lengthAdjust="spacing" textLength="23.9583" x="579.1667" y="127.8375">card</text></g><!--entity circle--><g id="elem_circle"><ellipse cx="61.9792" cy="285.7083" fill="#B6124A" filter="url(#f7fsfvxbqzopl)" rx="8.3333" ry="8.3333" style="stroke:#E4175C;stroke-width:0.0;"/><text fill="#1E1E20" font-family="Telia Sans" font-size="12.5" lengthAdjust="spacing" textLength="29.1667" x="47.3958" y="325.7333">circle</text></g><!--entity cloud--><g id="elem_cloud"><path d="M140.6935,260.8471 C144.4983,251.8037 152.4165,253.6823 156.9658,260.0616 C161.5889,249.9928 168.0257,249.5118 174.9896,257.758 C180.4044,250.7646 188.2725,249.7561 192.2985,259.2188 C197.5479,253.8712 203.5103,254.3256 206.7759,261.5104 C213.0365,262.8759 215.5239,267.6681 211.6113,273.2308 C218.4334,275.4008 218.6606,281.4703 214.1516,285.9104 C220.7929,291.7474 219.3515,296.4399 211.8075,299.9 C215.6425,305.3629 214.7713,309.8458 207.8908,311.7741 C204.4577,319.4506 197.1849,320.6356 191.512,314.4137 C187.7425,323.6916 180.6944,325.511 174.2449,317.0177 C168.77,324.0713 161.3739,324.8616 157.5178,315.3801 C150.8803,321.9694 145.1705,319.8725 141.8676,311.8167 C135.7896,308.9171 134.2442,303.8057 139.3502,298.7512 C133.7275,295.0805 134.7925,291.3719 139.6137,287.9562 C133.2022,284.0291 134.8279,278.6541 140.1378,275.2091 C134.4516,270.1168 132.6416,265.4078 140.6935,260.8471 " fill="url(#g7fsfvxbqzopl0)" filter="url(#f7fsfvxbqzopl)" style="stroke:#7F7F7F;stroke-width:1.0416666666666667;"/><text fill="#1E1E20" font-family="Telia Sans" font-size="12.5" lengthAdjust="spacing" textLength="31.25" x="157.8125" y="290.3271">cloud</text></g><!--entity collections--><g id="elem_collections"><rect fill="url(#g7fsfvxbqzopl0)" filter="url(#f7fsfvxbqzopl)" height="52.0625" rx="4.1667" ry="4.1667" style="stroke:#7F7F7F;stroke-width:1.0416666666666667;" width="96.875" x="255.2083" y="261.7604"/><rect fill="url(#g7fsfvxbqzopl0)" height="52.0625" rx="4.1667" ry="4.1667" style="stroke:#7F7F7F;stroke-width:1.0416666666666667;" width="96.875" x="251.0417" y="257.5938"/><text fill="#1E1E20" font-family="Telia Sans" font-size="12.5" lengthAdjust="spacing" textLength="59.375" x="269.7917" y="288.2438">collections</text></g><!--entity component--><g id="elem_component"><rect fill="url(#g7fsfvxbqzopl0)" filter="url(#f7fsfvxbqzopl)" height="66.6458" rx="4.1667" ry="4.1667" style="stroke:#7F7F7F;stroke-width:1.0416666666666667;" width="126.0417" x="388.5417" y="252.3854"/><rect fill="url(#g7fsfvxbqzopl0)" height="10.4167" style="stroke:#7F7F7F;stroke-width:1.0416666666666667;" width="15.625" x="493.75" y="257.5938"/><rect fill="url(#g7fsfvxbqzopl0)" height="2.0833" style="stroke:#7F7F7F;stroke-width:1.0416666666666667;" width="4.1667" x="491.6667" y="259.6771"/><rect fill="url(#g7fsfvxbqzopl0)" height="2.0833" style="stroke:#7F7F7F;stroke-width:1.0416666666666667;" width="4.1667" x="491.6667" y="263.8438"/><text fill="#1E1E20" font-family="Telia Sans" font-size="12.5" lengthAdjust="spacing" textLength="63.5417" x="414.5833" y="295.5354">component</text></g><!--entity control--><g id="elem_control"><ellipse cx="581.7708" cy="268.0104" fill="url(#g7fsfvxbqzopl0)" filter="url(#f7fsfvxbqzopl)" rx="12.5" ry="12.5" style="stroke:#7F7F7F;stroke-width:1.0416666666666667;"/><polygon fill="#7F7F7F" points="577.6042,255.5104,583.8542,250.3021,581.7708,255.5104,583.8542,260.7188,577.6042,255.5104" style="stroke:#7F7F7F;stroke-width:1.0416666666666667;"/><text fill="#FFFFFF" font-family="Telia Sans" font-size="12.5" lengthAdjust="spacing" textLength="39.5833" x="561.9792" y="306.9938">control</text></g><!--entity database--><g id="elem_database"><path d="M648.9583,263.3229 C648.9583,252.9063 694.2708,252.9063 694.2708,252.9063 C694.2708,252.9063 739.5833,252.9063 739.5833,263.3229 L739.5833,308.0938 C739.5833,318.5104 694.2708,318.5104 694.2708,318.5104 C694.2708,318.5104 648.9583,318.5104 648.9583,308.0938 L648.9583,263.3229 " fill="url(#g7fsfvxbqzopl0)" filter="url(#f7fsfvxbqzopl)" style="stroke:#7F7F7F;stroke-width:1.0416666666666667;"/><path d="M648.9583,263.3229 C648.9583,273.7396 694.2708,273.7396 694.2708,273.7396 C694.2708,273.7396 739.5833,273.7396 739.5833,263.3229 " fill="none" style="stroke:#7F7F7F;stroke-width:1.0416666666666667;"/><text fill="#1E1E20" font-family="Telia Sans" font-size="12.5" lengthAdjust="spacing" textLength="48.9583" x="669.7917" y="300.2229">database</text></g><!--entity entity--><g id="elem_entity"><ellipse cx="61.9792" cy="426.3438" fill="url(#g7fsfvxbqzopl0)" filter="url(#f7fsfvxbqzopl)" rx="12.5" ry="12.5" style="stroke:#7F7F7F;stroke-width:1.0416666666666667;"/><line style="stroke:#7F7F7F;stroke-width:1.0416666666666667;" x1="49.4792" x2="74.4792" y1="440.9271" y2="440.9271"/><text fill="#FFFFFF" font-family="Telia Sans" font-size="12.5" lengthAdjust="spacing" textLength="31.25" x="46.3542" y="465.3271">entity</text></g><!--entity file--><g id="elem_file"><path d="M124.4792,420.0938 L124.4792,467.9896 A4.1667,4.1667 0 0 0 128.6458,472.1563 L178.6458,472.1563 A4.1667,4.1667 0 0 0 182.8125,467.9896 L182.8125,426.3438 L172.3958,415.9271 L128.6458,415.9271 A4.1667,4.1667 0 0 0 124.4792,420.0938 " fill="url(#g7fsfvxbqzopl3)" filter="url(#f7fsfvxbqzopl)" style="stroke:#666666;stroke-width:0.0;"/><path d="M172.3958,415.9271 L172.3958,422.1771 A4.1667,4.1667 0 0 0 176.5625,426.3438 L182.8125,426.3438 " fill="url(#g7fsfvxbqzopl3)" style="stroke:#666666;stroke-width:0.0;"/><text fill="#666666" font-family="Telia Sans" font-size="12.5" lengthAdjust="spacing" textLength="16.6667" x="145.3125" y="448.6604">file</text></g><!--entity folder--><g id="elem_folder"><path d="M223.9583,406.5521 L263.5417,406.5521 A6.25,6.25 0 0 1 267.7083,410.7188 L275,428.4271 L300,428.4271 A4.1667,4.1667 0 0 1 304.1667,432.5938 L304.1667,477.3646 A4.1667,4.1667 0 0 1 300,481.5313 L223.9583,481.5313 A4.1667,4.1667 0 0 1 219.7917,477.3646 L219.7917,410.7188 A4.1667,4.1667 0 0 1 223.9583,406.5521 " fill="url(#g7fsfvxbqzopl1)" filter="url(#f7fsfvxbqzopl)" style="stroke:#FF9800;stroke-width:2.0833333333333335;"/><line style="stroke:#FF9800;stroke-width:2.0833333333333335;" x1="219.7917" x2="275" y1="428.4271" y2="428.4271"/><text fill="#FF9800" font-family="Telia Sans" font-size="12.5" lengthAdjust="spacing" textLength="32.2917" x="240.625" y="458.0354">folder</text></g><!--entity frame--><g id="elem_frame"><rect fill="url(#g7fsfvxbqzopl1)" filter="url(#f7fsfvxbqzopl)" height="66.6458" rx="4.1667" ry="4.1667" style="stroke:#0078CB;stroke-width:2.0833333333333335;" width="93.75" x="341.1458" y="410.7188"/><path d="M372.3958,410.7188 L372.3958,415.9271 L365.1042,423.2188 L341.1458,423.2188 " fill="none" style="stroke:#0078CB;stroke-width:2.0833333333333335;"/><text fill="#0078CB" font-family="Telia Sans" font-size="12.5" lengthAdjust="spacing" textLength="31.25" x="367.1875" y="453.8688">frame</text></g><!--entity interface--><g id="elem_interface"><ellipse cx="514.0625" cy="444.0417" fill="#B6124A" filter="url(#f7fsfvxbqzopl)" rx="8.3333" ry="8.3333" style="stroke:#E4175C;stroke-width:0.0;"/><text fill="#1E1E20" font-family="Telia Sans" font-size="12.5" lengthAdjust="spacing" textLength="47.9167" x="490.1042" y="484.0667">interface</text></g><!--entity label--><g id="elem_label"><text fill="#000000" font-family="Telia Sans" font-size="12.5" lengthAdjust="spacing" textLength="26.0417" x="614.5833" y="448.6604">label</text></g><!--entity node--><g id="elem_node"><polygon fill="url(#g7fsfvxbqzopl3)" filter="url(#f7fsfvxbqzopl)" points="16.6667,573.6771,27.0833,563.2604,107.2917,563.2604,107.2917,619.4896,96.875,629.9063,16.6667,629.9063,16.6667,573.6771" style="stroke:#1E1E20;stroke-width:1.0416666666666667;"/><line style="stroke:#1E1E20;stroke-width:1.0416666666666667;" x1="96.875" x2="107.2917" y1="573.6771" y2="563.2604"/><line style="stroke:#1E1E20;stroke-width:1.0416666666666667;" x1="16.6667" x2="96.875" y1="573.6771" y2="573.6771"/><line style="stroke:#1E1E20;stroke-width:1.0416666666666667;" x1="96.875" x2="96.875" y1="573.6771" y2="629.9063"/><text fill="#1E1E20" font-family="Telia Sans" font-size="12.5" lengthAdjust="spacing" textLength="28.125" x="42.7083" y="606.4104">node</text></g><!--entity package--><g id="elem_package"><path d="M147.3958,566.9063 L226.5625,566.9063 A6.25,6.25 0 0 1 230.7292,571.0729 L238.0208,608.5521 L251.5625,608.5521 A4.1667,4.1667 0 0 1 255.7292,612.7188 L255.7292,622.0938 A4.1667,4.1667 0 0 1 251.5625,626.2604 L147.3958,626.2604 A4.1667,4.1667 0 0 1 143.2292,622.0938 L143.2292,571.0729 A4.1667,4.1667 0 0 1 147.3958,566.9063 " fill="url(#g7fsfvxbqzopl3)" filter="url(#f7fsfvxbqzopl)" style="stroke:#7F7F7F;stroke-width:2.0833333333333335;"/><line style="stroke:#7F7F7F;stroke-width:2.0833333333333335;" x1="143.2292" x2="238.0208" y1="608.5521" y2="608.5521"/><text fill="#1E1E20" font-family="Telia Sans" font-size="12.5" font-weight="bold" lengthAdjust="spacing" textLength="47.9167" x="164.0625" y="592.3479">package</text></g><!--entity person--><g id="elem_person"><ellipse cx="331.7708" cy="568.4694" fill="url(#g7fsfvxbqzopl0)" filter="url(#f7fsfvxbqzopl)" rx="14.0111" ry="14.0111" style="stroke:#7F7F7F;stroke-width:1.0416666666666667;"/><rect fill="url(#g7fsfvxbqzopl0)" filter="url(#f7fsfvxbqzopl)" height="56.2292" rx="14.0111" ry="14.0111" style="stroke:#7F7F7F;stroke-width:1.0416666666666667;" width="79.1667" x="292.1875" y="582.4805"/><text fill="#1E1E20" font-family="Telia Sans" font-size="12.5" lengthAdjust="spacing" textLength="37.5" x="313.0208" y="615.2138">person</text></g><!--entity queue--><g id="elem_queue"><path d="M413.5417,573.6771 L479.1667,573.6771 C484.375,573.6771 484.375,596.5833 484.375,596.5833 C484.375,596.5833 484.375,619.4896 479.1667,619.4896 L413.5417,619.4896 C408.3333,619.4896 408.3333,596.5833 408.3333,596.5833 C408.3333,596.5833 408.3333,573.6771 413.5417,573.6771 " fill="url(#g7fsfvxbqzopl0)" filter="url(#f7fsfvxbqzopl)" style="stroke:#7F7F7F;stroke-width:1.0416666666666667;"/><path d="M479.1667,573.6771 C473.9583,573.6771 473.9583,596.5833 473.9583,596.5833 C473.9583,619.4896 479.1667,619.4896 479.1667,619.4896 " fill="none" style="stroke:#7F7F7F;stroke-width:1.0416666666666667;"/><text fill="#1E1E20" font-family="Telia Sans" font-size="12.5" lengthAdjust="spacing" textLength="34.375" x="423.9583" y="601.2021">queue</text></g><!--entity rectangle--><g id="elem_rectangle"><rect fill="url(#g7fsfvxbqzopl3)" filter="url(#f7fsfvxbqzopl)" height="56.2292" rx="4.1667" ry="4.1667" style="stroke:#181818;stroke-width:2.0833333333333335;" width="92.7083" x="520.8333" y="568.4688"/><text fill="#1E1E20" font-family="Telia Sans" font-size="12.5" lengthAdjust="spacing" textLength="51.0417" x="541.6667" y="601.2021">rectangle</text></g><!--entity stack--><g id="elem_stack"><rect fill="url(#g7fsfvxbqzopl0)" height="56.2292" rx="4.1667" ry="4.1667" style="stroke:none;stroke-width:1.0416666666666667;" width="69.7917" x="665.625" y="568.4688"/><path d="M650,568.4688 L661.4583,568.4688 A4.1667,4.1667 0 0 1 665.625,572.6354 L665.625,620.5313 A4.1667,4.1667 0 0 0 669.7917,624.6979 L731.25,624.6979 A4.1667,4.1667 0 0 0 735.4167,620.5313 L735.4167,572.6354 A4.1667,4.1667 0 0 1 739.5833,568.4688 L751.0417,568.4688 " fill="none" filter="url(#f7fsfvxbqzopl)" style="stroke:#7F7F7F;stroke-width:1.0416666666666667;"/><text fill="#1E1E20" font-family="Telia Sans" font-size="12.5" lengthAdjust="spacing" textLength="28.125" x="686.4583" y="601.2021">stack</text></g><!--entity storage--><g id="elem_storage"><rect fill="url(#g7fsfvxbqzopl4)" filter="url(#f7fsfvxbqzopl)" height="56.2292" rx="36.4583" ry="36.4583" style="stroke:#FF9800;stroke-width:0.0;" width="82.2917" x="20.8333" y="701.25"/><text fill="#FFFFFF" font-family="Telia Sans" font-size="12.5" lengthAdjust="spacing" textLength="40.625" x="41.6667" y="733.9833">storage</text></g><g id="elem_usecase"><ellipse cx="196.3529" cy="729.362" fill="url(#g7fsfvxbqzopl0)" filter="url(#f7fsfvxbqzopl)" rx="56.8946" ry="28.1536" style="stroke:#7F7F7F;stroke-width:2.0833333333333335;"/><text fill="#1E1E20" font-family="Telia Sans" font-size="12.5" lengthAdjust="spacing" textLength="42.7083" x="174.9987" y="731.8974">usecase</text></g><g id="elem_usecase/"><ellipse cx="349.4763" cy="729.362" fill="url(#g7fsfvxbqzopl0)" filter="url(#f7fsfvxbqzopl)" rx="59.8409" ry="28.1536" style="stroke:#7F7F7F;stroke-width:2.0833333333333335;"/><text fill="#1E1E20" font-family="Telia Sans" font-size="12.5" lengthAdjust="spacing" textLength="46.875" x="326.0388" y="731.8974">usecase/</text></g><line style="stroke:#7F7F7F;stroke-width:2.0833333333333335;" x1="404.5476" x2="368.759" y1="719.5476" y2="755.3362"/><!--SRC=[fHffJzj8z7FyAqm0BKYBcb1AgKIHW2I0beOgoQgxdwg9FGbJ73jhJmhP5Vzzv_QSEKfQaVZDctVDctSbEtkZs-wNRlmvRcAO8N0qBeldl1b5qGwQnFjvWG_sVu8IWN46lyCNLE7geBbtTNFzSFymQ1uUHZloWP4eGLxDGGbpt8nsO9wYIHHLJoWdC32Bno1vcfR58a-lYwmeOxbLGrbKy0fYCCJB3COJa5MGIBBtxVPkn6JSxVLwXFBUpU3oR_PyUdfAdxyExhvS3ZYeUztfTawQTD-mU_tGxyY5tdloxuoY3_-ylkuEXmpQQf-TdHnJw5s_zy11hOzdoPY2lbqE-dVz6mQTJ3wTjLeKshdittIPmhlmfFtnGqA1ztStjoE1EE5OWp_OSnksuJ7RU4dOzZdIX-iFnoTTYNSrUFZMP_2FFVgFITzJXcKujPhVHzs_HXfOgMalI7mfstw6feyOvWTovVVuk7Me8GgPzrDGFddGQaOkHRNc8jjK7LHgUGz92ZPGR48EWjIVEKnzq3vn-OeILY0welhHR3x2Jpnyn8ea815jFW4qcm_tFBLRSU5mkLjWAM4a4o-MpOBxg4SJlY1t2pHR3nqfsfcNHGBJHGdZlMgH9B2g3lPcrVGmYkFpIP7ZEA5nuBCqwyNv-8Akiz2Xzffq9W1bv8EV3bTf4pBFeCnHFlMJ4TRVXCwyH3DGBhzNoIESmOF3gD4ZX4HuqwzhrBWgoXIMOabTUWaVFQBaAISMYji4P0TAuo8VoSTLWbMuN2IOVDH4ouiKnlz5ZOtfDnhtA8S2XnyjWL4D-s06u-Q8fenuI89-ay0hI6Cu9hYKXtVhQqJ_Wv8a6OxaIA9GVVl9taVYZimb0_kDctWa7-dM5SQQWXnZPIX2EIOllvesdJfrfN025XbMs_ZBsEn57g9_9NBxM4UPezXzjLij3QTw16dnJ1pPm257hml6p9CKPGvB3UbCm_WAIemID2Tc-0hILD0xqJbT5I_QadmPA9vr9h26SabFdf-KzfBdg-c5OGaBl9n3SHZNpa5RkKXWwNVCJ40CuT8besS8WMCGqH83MxvpIEZXLg2OLrt5RBRQNUsp0aUde2SDjjntIDGPL23e-rNk9DvRsnWZdB5me29Mm_4sTVEaepAK6k-uvSQlUhNbHZAJkgp_NlKgCODJSiEeOE4pjwAfTT9w31PgHpiL9avUBSPnzOnc6SZr6o91ZAbEMAflwtWSDKRKV8vwjbiUwJApBMv-4365oAQB2HACVYAyr4qZOLHEJ-gv0hRSGqfDyuAeqJLS9cfq49WLURhkUkbw40UGkrOTWi3Hz3NhLB_QypeKwPfhu83oMWnpJojauQAqpCkJryRvSLDdSHtI9myDZeOyCa_MjDv73OkRHhgdhfE7UWN_MS0yWJe32NFyNYaOSbd7H5hhPxgTsj6rhKbvlbo5UaAsgCj4Upu6jOtPwC0CB1teFPf0MaCuTPUzP9oKMbgNRnetP7NkaP317MaOz1O2WkrV2nj2C4gNQr0uzJ1IXyGE7mAh_8_swkmX4HtTd4NTTDgYe-40JaX29vuMbgv6SKsgriA47TFoy3PKXKIeBWz78OoAt8b15EXS5t_MMNb7l6n9_v71XBAeTCOQs1_y0iHoN1QPIOY10X5Kav_xWfSi4TxAIXpo9g9ZQYIoqPWM2TYR28CfD1C90_XY_6v1JcSApPFT_SHUEhVTz-pbPvSNs0YmzBdsbjKzNbt27GddTOeuGslUi0So2KOJaitCPC9XtlncX826vmPgV1aWu76pUP5R1bV0BLmNvUJQ4c4DMogWJmEh2ZTKa6iRfk6A5074IumyoK5-q_aRJb8a-MfuymIrAK_8drBBdrAukZBsb9rkgAAXskEI6vadoOf5QXmm1OWsRVKz3HDD0GPZK1cwIjZw-xzAM52PePG2jhPW8BEAF79aZ4y3EKTa1DVebnYNQBp0BhAnmgO4xRPVpMBy0vgtdKC2fdkxW5ObluMeYmecra4BKAYfSMkqLKdTpxKanY3HFJFuAg3H18UIzmPNx8r2pWb7A_08KB3VUvE8NY4cHKRGT1auP5NQS4Sn6yU-pUKYeXYcOO2tIEKaL3tfhfM7VC1MZW1ujGzRrQTqi-rxzYr3XZbUONAUdvE4N2w_5YIfNbomu1qaIdPxjhyW_EkxayS29N3zLe_TISEwCEpE0DkKnQ0qqnTvzhhHjlMO-W8guC38Z3xq-Msft5-P1TqrUR9E8ddQmcnpM5Qa7T924mC4yxwNo0zAed5UqMztBw86VUmWCANaY2ICaEzxYzUeiGIpR4FKytU2laS0DkXd4aiXv2oIhTGSz35bMHJO0eM_7z0nNeqd3Aed3ndNT9wfVwnz6IBZnzMDWoadyAShn10jYO-9xSogLbmXJHYHElQDSw4SL5Cw_JkaDPphU-AnXCESr1W5QoV3TWxNDs5vP-GMa-uWty2anjGXXCjZzcbudVqm0c6GeSIBv2XkZ2utj-cQSy9eHfpUg_RwUs4gU-mzl418z1prhnmRwLagc0REBDZY1Uz3gAVp2_0QyS-h0XNxWf6qBdMO4f1WmALqLr44R82a4UI0RUdHNmMvFmXYFo9g7aRyEwKEd6V5SaPxVXbHZsBnGoDCoHDwz9Sz8Mprqo4-aETpUlRtNTpaxys83tBuV4VDDjJWGmsFr6I9vNcM_1DK9eGlVuju-ygxMdtGfi_YwXb6FUAGipGvPbFjgkfbnLnC3CnOlcT5W2YeHQNDwrXUtlxs25_0b1oAU8_gcKSz4id066On-nknUG0R4iXEGJOH8ZsBjCsB95uxrMrFtHNnQe0N2NBO8USWiZsJdPju9qSXFpN_1m00]--></g></svg>