<?xml version="1.0" encoding="us-ascii" standalone="no"?><svg xmlns="http://www.w3.org/2000/svg" xmlns:xlink="http://www.w3.org/1999/xlink" contentStyleType="text/css" height="651.0417px" preserveAspectRatio="none" style="width:877px;height:651px;" version="1.1" viewBox="0 0 877 651" width="877.0833px" zoomAndPan="magnify"><defs><linearGradient id="g19xp9npzh3sf70" x1="50%" x2="50%" y1="0%" y2="100%"><stop offset="0%" stop-color="#FFFFFF"/><stop offset="100%" stop-color="#ECDED4"/></linearGradient><filter height="300%" id="f19xp9npzh3sf7" width="300%" x="-1" y="-1"><feGaussianBlur result="blurOut" stdDeviation="2.0833333333333335"/><feColorMatrix in="blurOut" result="blurOut2" type="matrix" values="0 0 0 0 0 0 0 0 0 0 0 0 0 0 0 0 0 0 .4 0"/><feOffset dx="4.166666666666667" dy="4.166666666666667" in="blurOut2" result="blurOut3"/><feBlend in="SourceGraphic" in2="blurOut3" mode="normal"/></filter></defs><g><text fill="#5C524E" font-family="Telia Sans" font-size="20.8333" font-weight="bold" lengthAdjust="spacing" textLength="393.75" x="240.1042" y="45.875">Sequence Diagram 2 - telia-brown theme</text><line style="stroke:#1E1E20;stroke-width:0.5208333333333334;stroke-dasharray:5.0,5.0;" x1="95.8333" x2="95.8333" y1="176.3333" y2="547.0208"/><line style="stroke:#1E1E20;stroke-width:0.5208333333333334;stroke-dasharray:5.0,5.0;" x1="225" x2="225" y1="176.3333" y2="547.0208"/><line style="stroke:#1E1E20;stroke-width:0.5208333333333334;stroke-dasharray:5.0,5.0;" x1="305.2083" x2="305.2083" y1="176.3333" y2="547.0208"/><line style="stroke:#1E1E20;stroke-width:0.5208333333333334;stroke-dasharray:5.0,5.0;" x1="390.625" x2="390.625" y1="176.3333" y2="547.0208"/><line style="stroke:#1E1E20;stroke-width:0.5208333333333334;stroke-dasharray:5.0,5.0;" x1="464.5833" x2="464.5833" y1="176.3333" y2="547.0208"/><line style="stroke:#1E1E20;stroke-width:0.5208333333333334;stroke-dasharray:5.0,5.0;" x1="543.75" x2="543.75" y1="176.3333" y2="547.0208"/><line style="stroke:#1E1E20;stroke-width:0.5208333333333334;stroke-dasharray:5.0,5.0;" x1="687.5" x2="687.5" y1="176.3333" y2="547.0208"/><line style="stroke:#1E1E20;stroke-width:0.5208333333333334;stroke-dasharray:5.0,5.0;" x1="830.2083" x2="830.2083" y1="176.3333" y2="547.0208"/><rect fill="url(#g19xp9npzh3sf70)" filter="url(#f19xp9npzh3sf7)" height="49.9792" rx="4.1667" ry="4.1667" style="stroke:#7F7F7F;stroke-width:1.0416666666666667;" width="94.7917" x="46.875" y="122.1875"/><text fill="#1E1E20" font-family="Telia Sans" font-size="12.5" lengthAdjust="spacing" textLength="59.375" x="64.5833" y="151.7958">Participant</text><rect fill="url(#g19xp9npzh3sf70)" filter="url(#f19xp9npzh3sf7)" height="49.9792" rx="4.1667" ry="4.1667" style="stroke:#7F7F7F;stroke-width:1.0416666666666667;" width="94.7917" x="46.875" y="545.9792"/><text fill="#1E1E20" font-family="Telia Sans" font-size="12.5" lengthAdjust="spacing" textLength="59.375" x="64.5833" y="575.5875">Participant</text><text fill="#1E1E20" font-family="Telia Sans" font-size="12.5" lengthAdjust="spacing" textLength="30.2083" x="207.2917" y="163.2542">Actor</text><ellipse cx="225.5208" cy="82.6042" fill="url(#g19xp9npzh3sf70)" filter="url(#f19xp9npzh3sf7)" rx="8.3333" ry="8.3333" style="stroke:#5C524E;stroke-width:2.0833333333333335;"/><path d="M225.5208,90.9375 L225.5208,119.0625 M211.9792,99.2708 L239.0625,99.2708 M225.5208,119.0625 L211.9792,134.6875 M225.5208,119.0625 L239.0625,134.6875 " fill="none" filter="url(#f19xp9npzh3sf7)" style="stroke:#5C524E;stroke-width:2.0833333333333335;"/><text fill="#1E1E20" font-family="Telia Sans" font-size="12.5" lengthAdjust="spacing" textLength="30.2083" x="207.2917" y="568.2958">Actor</text><ellipse cx="225.5208" cy="591.7917" fill="url(#g19xp9npzh3sf70)" filter="url(#f19xp9npzh3sf7)" rx="8.3333" ry="8.3333" style="stroke:#5C524E;stroke-width:2.0833333333333335;"/><path d="M225.5208,600.125 L225.5208,628.25 M211.9792,608.4583 L239.0625,608.4583 M225.5208,628.25 L211.9792,643.875 M225.5208,628.25 L239.0625,643.875 " fill="none" filter="url(#f19xp9npzh3sf7)" style="stroke:#5C524E;stroke-width:2.0833333333333335;"/><text fill="#FFFFFF" font-family="Telia Sans" font-size="12.5" lengthAdjust="spacing" textLength="54.1667" x="275" y="163.2542">Boundary</text><path d="M283.8542,111.7708 L283.8542,136.7708 M283.8542,124.2708 L301.5625,124.2708 " fill="none" filter="url(#f19xp9npzh3sf7)" style="stroke:#7F7F7F;stroke-width:1.0416666666666667;"/><ellipse cx="314.0625" cy="124.2708" fill="url(#g19xp9npzh3sf70)" filter="url(#f19xp9npzh3sf7)" rx="12.5" ry="12.5" style="stroke:#7F7F7F;stroke-width:1.0416666666666667;"/><text fill="#FFFFFF" font-family="Telia Sans" font-size="12.5" lengthAdjust="spacing" textLength="54.1667" x="275" y="568.2958">Boundary</text><path d="M283.8542,585.5417 L283.8542,610.5417 M283.8542,598.0417 L301.5625,598.0417 " fill="none" filter="url(#f19xp9npzh3sf7)" style="stroke:#7F7F7F;stroke-width:1.0416666666666667;"/><ellipse cx="314.0625" cy="598.0417" fill="url(#g19xp9npzh3sf70)" filter="url(#f19xp9npzh3sf7)" rx="12.5" ry="12.5" style="stroke:#7F7F7F;stroke-width:1.0416666666666667;"/><text fill="#FFFFFF" font-family="Telia Sans" font-size="12.5" lengthAdjust="spacing" textLength="41.6667" x="366.6667" y="163.2542">Control</text><ellipse cx="390.625" cy="124.2708" fill="url(#g19xp9npzh3sf70)" filter="url(#f19xp9npzh3sf7)" rx="12.5" ry="12.5" style="stroke:#7F7F7F;stroke-width:1.0416666666666667;"/><polygon fill="#7F7F7F" points="386.4583,111.7708,392.7083,106.5625,390.625,111.7708,392.7083,116.9792,386.4583,111.7708" style="stroke:#7F7F7F;stroke-width:1.0416666666666667;"/><text fill="#FFFFFF" font-family="Telia Sans" font-size="12.5" lengthAdjust="spacing" textLength="41.6667" x="366.6667" y="568.2958">Control</text><ellipse cx="390.625" cy="598.0417" fill="url(#g19xp9npzh3sf70)" filter="url(#f19xp9npzh3sf7)" rx="12.5" ry="12.5" style="stroke:#7F7F7F;stroke-width:1.0416666666666667;"/><polygon fill="#7F7F7F" points="386.4583,585.5417,392.7083,580.3333,390.625,585.5417,392.7083,590.75,386.4583,585.5417" style="stroke:#7F7F7F;stroke-width:1.0416666666666667;"/><text fill="#FFFFFF" font-family="Telia Sans" font-size="12.5" lengthAdjust="spacing" textLength="32.2917" x="445.8333" y="163.2542">Entity</text><ellipse cx="465.1042" cy="124.2708" fill="url(#g19xp9npzh3sf70)" filter="url(#f19xp9npzh3sf7)" rx="12.5" ry="12.5" style="stroke:#7F7F7F;stroke-width:1.0416666666666667;"/><line style="stroke:#7F7F7F;stroke-width:1.0416666666666667;" x1="452.6042" x2="477.6042" y1="138.8542" y2="138.8542"/><text fill="#FFFFFF" font-family="Telia Sans" font-size="12.5" lengthAdjust="spacing" textLength="32.2917" x="445.8333" y="568.2958">Entity</text><ellipse cx="465.1042" cy="598.0417" fill="url(#g19xp9npzh3sf70)" filter="url(#f19xp9npzh3sf7)" rx="12.5" ry="12.5" style="stroke:#7F7F7F;stroke-width:1.0416666666666667;"/><line style="stroke:#7F7F7F;stroke-width:1.0416666666666667;" x1="452.6042" x2="477.6042" y1="612.625" y2="612.625"/><text fill="#1E1E20" font-family="Telia Sans" font-size="12.5" lengthAdjust="spacing" textLength="51.0417" x="515.625" y="163.2542">Database</text><path d="M525.5208,103.4375 C525.5208,93.0208 544.2708,93.0208 544.2708,93.0208 C544.2708,93.0208 563.0208,93.0208 563.0208,103.4375 L563.0208,130.5208 C563.0208,140.9375 544.2708,140.9375 544.2708,140.9375 C544.2708,140.9375 525.5208,140.9375 525.5208,130.5208 L525.5208,103.4375 " fill="url(#g19xp9npzh3sf70)" filter="url(#f19xp9npzh3sf7)" style="stroke:#7F7F7F;stroke-width:1.5625;"/><path d="M525.5208,103.4375 C525.5208,113.8542 544.2708,113.8542 544.2708,113.8542 C544.2708,113.8542 563.0208,113.8542 563.0208,103.4375 " fill="none" style="stroke:#7F7F7F;stroke-width:1.5625;"/><text fill="#1E1E20" font-family="Telia Sans" font-size="12.5" lengthAdjust="spacing" textLength="51.0417" x="515.625" y="568.2958">Database</text><path d="M525.5208,591.7917 C525.5208,581.375 544.2708,581.375 544.2708,581.375 C544.2708,581.375 563.0208,581.375 563.0208,591.7917 L563.0208,618.875 C563.0208,629.2917 544.2708,629.2917 544.2708,629.2917 C544.2708,629.2917 525.5208,629.2917 525.5208,618.875 L525.5208,591.7917 " fill="url(#g19xp9npzh3sf70)" filter="url(#f19xp9npzh3sf7)" style="stroke:#7F7F7F;stroke-width:1.5625;"/><path d="M525.5208,591.7917 C525.5208,602.2083 544.2708,602.2083 544.2708,602.2083 C544.2708,602.2083 563.0208,602.2083 563.0208,591.7917 " fill="none" style="stroke:#7F7F7F;stroke-width:1.5625;"/><rect fill="url(#g19xp9npzh3sf70)" filter="url(#f19xp9npzh3sf7)" height="49.9792" rx="4.1667" ry="4.1667" style="stroke:#7F7F7F;stroke-width:1.0416666666666667;" width="96.875" x="639.5833" y="118.0208"/><rect fill="url(#g19xp9npzh3sf70)" filter="url(#f19xp9npzh3sf7)" height="49.9792" rx="4.1667" ry="4.1667" style="stroke:#7F7F7F;stroke-width:1.0416666666666667;" width="96.875" x="635.4167" y="122.1875"/><text fill="#1E1E20" font-family="Telia Sans" font-size="12.5" lengthAdjust="spacing" textLength="61.4583" x="653.125" y="151.7958">Collections</text><rect fill="url(#g19xp9npzh3sf70)" filter="url(#f19xp9npzh3sf7)" height="49.9792" rx="4.1667" ry="4.1667" style="stroke:#7F7F7F;stroke-width:1.0416666666666667;" width="96.875" x="639.5833" y="545.9792"/><rect fill="url(#g19xp9npzh3sf70)" filter="url(#f19xp9npzh3sf7)" height="49.9792" rx="4.1667" ry="4.1667" style="stroke:#7F7F7F;stroke-width:1.0416666666666667;" width="96.875" x="635.4167" y="550.1458"/><text fill="#1E1E20" font-family="Telia Sans" font-size="12.5" lengthAdjust="spacing" textLength="61.4583" x="653.125" y="579.7542">Collections</text><path d="M796.875,130.5208 L864.5833,130.5208 C869.7917,130.5208 869.7917,153.4271 869.7917,153.4271 C869.7917,153.4271 869.7917,176.3333 864.5833,176.3333 L796.875,176.3333 C791.6667,176.3333 791.6667,153.4271 791.6667,153.4271 C791.6667,153.4271 791.6667,130.5208 796.875,130.5208 " fill="url(#g19xp9npzh3sf70)" filter="url(#f19xp9npzh3sf7)" style="stroke:#7F7F7F;stroke-width:1.0416666666666667;"/><path d="M864.5833,130.5208 C859.375,130.5208 859.375,153.4271 859.375,153.4271 C859.375,176.3333 864.5833,176.3333 864.5833,176.3333 " fill="none" style="stroke:#7F7F7F;stroke-width:1.0416666666666667;"/><text fill="#1E1E20" font-family="Telia Sans" font-size="12.5" lengthAdjust="spacing" textLength="36.4583" x="807.2917" y="158.0458">Queue</text><path d="M796.875,545.9792 L864.5833,545.9792 C869.7917,545.9792 869.7917,568.8854 869.7917,568.8854 C869.7917,568.8854 869.7917,591.7917 864.5833,591.7917 L796.875,591.7917 C791.6667,591.7917 791.6667,568.8854 791.6667,568.8854 C791.6667,568.8854 791.6667,545.9792 796.875,545.9792 " fill="url(#g19xp9npzh3sf70)" filter="url(#f19xp9npzh3sf7)" style="stroke:#7F7F7F;stroke-width:1.0416666666666667;"/><path d="M864.5833,545.9792 C859.375,545.9792 859.375,568.8854 859.375,568.8854 C859.375,591.7917 864.5833,591.7917 864.5833,591.7917 " fill="none" style="stroke:#7F7F7F;stroke-width:1.0416666666666667;"/><text fill="#1E1E20" font-family="Telia Sans" font-size="12.5" lengthAdjust="spacing" textLength="36.4583" x="807.2917" y="573.5042">Queue</text><polygon fill="#5C524E" points="213.0208,224.2292,223.4375,228.3958,213.0208,232.5625,217.1875,228.3958" style="stroke:#5C524E;stroke-width:1.0416666666666667;"/><line style="stroke:#5C524E;stroke-width:3.125;" x1="95.8333" x2="219.2708" y1="228.3958" y2="228.3958"/><text fill="#1E1E20" font-family="Telia Sans" font-size="12.5" lengthAdjust="spacing" textLength="45.8333" x="113.5417" y="213.2333">To actor</text><polygon fill="#5C524E" points="292.7083,274.2083,303.125,278.375,292.7083,282.5417,296.875,278.375" style="stroke:#5C524E;stroke-width:1.0416666666666667;"/><line style="stroke:#5C524E;stroke-width:3.125;" x1="95.8333" x2="298.9583" y1="278.375" y2="278.375"/><text fill="#1E1E20" font-family="Telia Sans" font-size="12.5" lengthAdjust="spacing" textLength="70.8333" x="113.5417" y="263.2125">To boundary</text><polygon fill="#5C524E" points="378.125,324.1875,388.5417,328.3542,378.125,332.5208,382.2917,328.3542" style="stroke:#5C524E;stroke-width:1.0416666666666667;"/><line style="stroke:#5C524E;stroke-width:3.125;" x1="95.8333" x2="384.375" y1="328.3542" y2="328.3542"/><text fill="#1E1E20" font-family="Telia Sans" font-size="12.5" lengthAdjust="spacing" textLength="57.2917" x="113.5417" y="313.1917">To control</text><polygon fill="#5C524E" points="452.6042,374.1667,463.0208,378.3333,452.6042,382.5,456.7708,378.3333" style="stroke:#5C524E;stroke-width:1.0416666666666667;"/><line style="stroke:#5C524E;stroke-width:3.125;" x1="95.8333" x2="458.8542" y1="378.3333" y2="378.3333"/><text fill="#1E1E20" font-family="Telia Sans" font-size="12.5" lengthAdjust="spacing" textLength="48.9583" x="113.5417" y="363.1708">To entity</text><polygon fill="#5C524E" points="531.7708,424.1458,542.1875,428.3125,531.7708,432.4792,535.9375,428.3125" style="stroke:#5C524E;stroke-width:1.0416666666666667;"/><line style="stroke:#5C524E;stroke-width:3.125;" x1="95.8333" x2="538.0208" y1="428.3125" y2="428.3125"/><text fill="#1E1E20" font-family="Telia Sans" font-size="12.5" lengthAdjust="spacing" textLength="66.6667" x="113.5417" y="413.15">To database</text><polygon fill="#5C524E" points="675,474.125,685.4167,478.2917,675,482.4583,679.1667,478.2917" style="stroke:#5C524E;stroke-width:1.0416666666666667;"/><line style="stroke:#5C524E;stroke-width:3.125;" x1="95.8333" x2="681.25" y1="478.2917" y2="478.2917"/><text fill="#1E1E20" font-family="Telia Sans" font-size="12.5" lengthAdjust="spacing" textLength="77.0833" x="113.5417" y="463.1292">To collections</text><polygon fill="#5C524E" points="818.2292,524.1042,828.6458,528.2708,818.2292,532.4375,822.3958,528.2708" style="stroke:#5C524E;stroke-width:1.0416666666666667;"/><line style="stroke:#5C524E;stroke-width:3.125;" x1="95.8333" x2="824.4792" y1="528.2708" y2="528.2708"/><text fill="#1E1E20" font-family="Telia Sans" font-size="12.5" lengthAdjust="spacing" textLength="52.0833" x="113.5417" y="513.1083">To queue</text><!--SRC=[fLhhRzis4Fzi_HMAam89C6Esy-oG1d0SEmtMEbtieTkdWfPeHuqiUHBTDXloluzFwVZoev63GBhxyNXtFDwHbFOE9ky77mVXkx19S9gWrhJ8lsVD80Zsabdu9il9uPjlg4ZGDCLVy8-a9ELXy-3wjd__uVwXUNGKxAa7Bg90MRb41Sv8CzZ3MPpCWg1yIZ9AGujmYgAdUP6lihYVftaHggO0iYhnDIPeJ9vJ7CvGMcAgoS7dztSJhkF-S3YaaWzk7tf_y-UpipFs_EdXxcFlGP06_Pl1pKcJjHiF-lUZ6yKO7jFV1OEF_-pt1-CnfxOx5nSdNKQz6mtl1QbzVX5D6Ubpxs5qDxhbrDdixKMxpQWtlT7jW1kyZqywvwSH8twuktq_aS2PG3typfyxk8Exl66FTZiIeDF-QVTae73N3_UVHvn-FcG_hlsmSYp7r6P-cGp-cW1oPQR9K7YbsviqcJyId1qgpYzXjtq4W5BdDp4gdXomkYDROiMpmQPK2yeyxn39o1h456G1bFqyOEg1TgahE9Mo4cYfweQP_SWuSVGZEKg00fhzU61cFoBogjPLBuAkMajKfOpgn8aokn0nwh14C5Hh2JFjWA1WRrda4OvN1GuFobKKuR8yF5YKywCW32zdUKR2YEM1TygjLvVJAyRdgQDggykPeIIbDsuvmgHjn7n7HPPaSxSOwVrjv2oBP86Avozbz8WN-F0eQ0of89dUu7GD6jTv4UD2igf9h-YJnoHwogY7mWubcObIcyWjzRXEiP8KguZGMw1QbiSu_2zeR2s_qVYGP5XYnD1I6hDmX1OuR4vOoGZ7DEatARt4B8SJYcLzE9k-1EmF5RJ8292bIGLrjQTj7sauyf3qjDTcOaizigPhd3L76I6LewZaa5vkCqqvTUcAyGojKb8r4vVMs0aU9_ygSASB8SiajAzEkmqmvIEAy-yqa3KC7Nge67TFb1SPBW3e0Y0-eO8aKRAaRlY4ubZAEu4zNUS_04jT6iJ1vme3I8-Dl1WfSAdn1NOHNE2SF2-n78o-DT16BP8eECVq0iG1FLiCh10Iema1XO6pxomHCDrAY3xLgvpDkOFrCIinK08i6fmziaJK5LG2OFkgTjBehNrC4fBoT51bh8OLRTNCKu7A8JMksxRpLyrjsvbCbwxMVozmbPZYEPrXJ37_c1lPr1Xfc8EbsS5UIMYGbwjfM7vF5YdAu0nH9Duf5ApCDsti1eq9SvzbdXcMBQWpRsBN1vbJg6vGJHIHv5j2dg5h58tfwIWzryZKUyoaWIW86WCjP8B6JO8MUHPlcbxG3Xe0gjMwGP0OOA- -JdMRlQnJ4RGSa3t6WnncZvRFmtbXk5SKhwthuxR1OWUaIn-M73LzL9siPHq73QCt87fOJIU7z1B_iy9PX647YcR5VMMWBsGj5u6jdnvsLOk1wKtMvuzhtvwGCw5ERC_7gQOp6pSuHSyMzKComsmDOQsxJ9OsKXLhKxrft5Bkqg4XfrlQSEfxZ2ZQpVCxGdOKFs-02Eb-q0tD7Iu0N_ct3khgeO2MRHOJkWumBGiVy8mMT1ffVkrgYEtIYkSNRBbMfBTnjP3mhSlzMOWaUMRb84QqfekxwgoT8yvkwVuZnH7heeGT0x8x-Nc4PQJ8KrqG9taoAD1Vn89JB5NUg4g2yYgXK-Oasb0xBPAqLmb6SwmN4avmvVZzd8xE7EiZk_-MNx2t_MD-kRlBSg8bMFPSHylwFLwzX6l9uBKMSPhLOiFkgIGacT5gfXSJGNFMDoq5D1mp4FJB2Pw8Moppp71uHTmXT9ECJbkghERBYkYom5Y5QoOetfPbkAIB01ebMfqK9BVht1jEkaXohU7r4GIdFBvuYeruYl7wbR5ZsMcdAfQg7I6vbNkYD5_5sW0pWjochP-dVg4n8cYAIirMHTiy_zSfYqezbJB2pXxqL5PPHrhQyQcdviYAO3kzHqYHJ5V41ciSVahGwRZDpATViJxR1SNZkjShQApaTr1rLUB866X9ycrgx3NQkgBkxhMWpg3PFTNwhOZQ9jXNlBUOOgzKSabxD1AF97dtUwzIqQd4B4yf3EeWAElAXdqKitNksrulgehc6avuZLPMGOL5TwC-z8OODGAHzJ5ih3vLcEs-PzynPUZ7ArpFoqjQa8ldJpajgbTNF7bxXTBMZkO_4lBphQF7F8dmvgOElzCDwqhpEoViiYn6XLw-wBCpZ7PTZrKle3m1dEZPXps_hfIxLsRUS8sUZ968ddPmsn8N9TqEWTJ42TwwxnJobObeN9RixUvLq62FDmcQCt5K4ox8zTxY9MWyeqMw9VJoLodVeG0_wESQAoNKMIJdr3t0OyeYpub1yhyVW8WNxOcWyiaXndQTuzG_12z3LFwulhMGwWJ-R8qQSalYwiGCvcgjk4ORFv05zgqreIoehXryXxIXvtgUE3nXTKxN63dVJlhzx5_V-FLTq5bCTmVP5YxLJXryM96pp_ny_c54Gb2QH4wGPRXsTBczJpUC4qaMDEYTPc-U5xgnNUVWULAYOwX_PjZedgN4iMVCl5iyxtpmxUdS2hm4udvTek8l6EdMfKvJak9Dk4pkEec87o01WOAmeppnMP3zHH3_YgXv58YNIcDrhgmIQZTiXV9B8yBaKu7iqnuVklfs21xxWmF-49NKvtaW3kp5rGFtWjq9gYCalj-jxmM_6wZpCFxk4DmB_d4WJxRuDG3tWdyIL5jKTlG9xWN_D807TtrmB_XdWLYxYEiFS2_uvm7z5xQkk2tXR-4absye0BqhwDNvMSqv5Xnr2bWpJWH3dkFLz5D1hxRYDUTCYQfF9slckM1oK_u7]--></g></svg>