<?xml version="1.0" encoding="us-ascii" standalone="no"?><svg xmlns="http://www.w3.org/2000/svg" xmlns:xlink="http://www.w3.org/1999/xlink" contentStyleType="text/css" height="1759.375px" preserveAspectRatio="none" style="width:1422px;height:1759px;" version="1.1" viewBox="0 0 1422 1759" width="1422.9167px" zoomAndPan="magnify"><defs><filter height="300%" id="fd7sws09qm41q" width="300%" x="-1" y="-1"><feGaussianBlur result="blurOut" stdDeviation="2.0833333333333335"/><feColorMatrix in="blurOut" result="blurOut2" type="matrix" values="0 0 0 0 0 0 0 0 0 0 0 0 0 0 0 0 0 0 .4 0"/><feOffset dx="4.166666666666667" dy="4.166666666666667" in="blurOut2" result="blurOut3"/><feBlend in="SourceGraphic" in2="blurOut3" mode="normal"/></filter><linearGradient id="gd7sws09qm41q0" x1="50%" x2="50%" y1="0%" y2="100%"><stop offset="0%" stop-color="#FFFFFF"/><stop offset="100%" stop-color="#ECDED4"/></linearGradient><linearGradient id="gd7sws09qm41q1" x1="50%" x2="50%" y1="0%" y2="100%"><stop offset="0%" stop-color="#FFFFFF"/><stop offset="100%" stop-color="#FFFFFF"/></linearGradient><linearGradient id="gd7sws09qm41q2" x1="50%" x2="50%" y1="0%" y2="100%"><stop offset="0%" stop-color="#0090F4"/><stop offset="100%" stop-color="#0078CB"/></linearGradient></defs><g><text fill="#5C524E" font-family="Telia Sans" font-size="20.8333" font-weight="bold" lengthAdjust="spacing" textLength="376.0417" x="519.2708" y="79.8854">Sequence Diagram - telia-brown theme</text><rect fill="none" height="1610.75" rx="4.1667" ry="4.1667" style="stroke:#666666;stroke-width:0.5208333333333334;" width="402.0833" x="970.8333" y="107.2396"/><text fill="#1E1E20" font-family="Telia Sans" font-size="12.5" font-weight="bold" lengthAdjust="spacing" textLength="90.625" x="1126.5625" y="129.5563">Internal Service</text><rect fill="#FFFFFF" filter="url(#fd7sws09qm41q)" height="263.4167" style="stroke:#1E1E20;stroke-width:1.0416666666666667;" width="10.4167" x="396.875" y="408.1562"/><rect fill="none" filter="url(#fd7sws09qm41q)" height="615.3333" rx="4.1667" ry="4.1667" style="stroke:#7F7F7F;stroke-width:1.5625;" width="1389.5833" x="10.4167" y="889.1979"/><rect fill="none" filter="url(#fd7sws09qm41q)" height="159.2917" rx="4.1667" ry="4.1667" style="stroke:#7F7F7F;stroke-width:1.5625;" width="1368.75" x="20.8333" y="1250.4896"/><rect fill="none" filter="url(#fd7sws09qm41q)" height="107.2292" rx="4.1667" ry="4.1667" style="stroke:#7F7F7F;stroke-width:1.5625;" width="1347.9167" x="31.25" y="1295.2604"/><line style="stroke:#1E1E20;stroke-width:0.5208333333333334;stroke-dasharray:5.0,5.0;" x1="68.75" x2="68.75" y1="215.5104" y2="717.3854"/><line style="stroke:#1E1E20;stroke-width:1.0416666666666667;stroke-dasharray:1.0,4.0;" x1="68.75" x2="68.75" y1="717.3854" y2="781.9479"/><line style="stroke:#1E1E20;stroke-width:0.5208333333333334;stroke-dasharray:5.0,5.0;" x1="68.75" x2="68.75" y1="781.9479" y2="1610.7187"/><line style="stroke:#1E1E20;stroke-width:0.5208333333333334;stroke-dasharray:5.0,5.0;" x1="241.6667" x2="241.6667" y1="215.5104" y2="717.3854"/><line style="stroke:#1E1E20;stroke-width:1.0416666666666667;stroke-dasharray:1.0,4.0;" x1="241.6667" x2="241.6667" y1="717.3854" y2="781.9479"/><line style="stroke:#1E1E20;stroke-width:0.5208333333333334;stroke-dasharray:5.0,5.0;" x1="241.6667" x2="241.6667" y1="781.9479" y2="1610.7187"/><line style="stroke:#1E1E20;stroke-width:0.5208333333333334;stroke-dasharray:5.0,5.0;" x1="402.0833" x2="402.0833" y1="215.5104" y2="717.3854"/><line style="stroke:#1E1E20;stroke-width:1.0416666666666667;stroke-dasharray:1.0,4.0;" x1="402.0833" x2="402.0833" y1="717.3854" y2="781.9479"/><line style="stroke:#1E1E20;stroke-width:0.5208333333333334;stroke-dasharray:5.0,5.0;" x1="402.0833" x2="402.0833" y1="781.9479" y2="1610.7187"/><line style="stroke:#1E1E20;stroke-width:0.5208333333333334;stroke-dasharray:5.0,5.0;" x1="559.375" x2="559.375" y1="215.5104" y2="717.3854"/><line style="stroke:#1E1E20;stroke-width:1.0416666666666667;stroke-dasharray:1.0,4.0;" x1="559.375" x2="559.375" y1="717.3854" y2="781.9479"/><line style="stroke:#1E1E20;stroke-width:0.5208333333333334;stroke-dasharray:5.0,5.0;" x1="559.375" x2="559.375" y1="781.9479" y2="1610.7187"/><line style="stroke:#1E1E20;stroke-width:0.5208333333333334;stroke-dasharray:5.0,5.0;" x1="729.1667" x2="729.1667" y1="215.5104" y2="717.3854"/><line style="stroke:#1E1E20;stroke-width:1.0416666666666667;stroke-dasharray:1.0,4.0;" x1="729.1667" x2="729.1667" y1="717.3854" y2="781.9479"/><line style="stroke:#1E1E20;stroke-width:0.5208333333333334;stroke-dasharray:5.0,5.0;" x1="729.1667" x2="729.1667" y1="781.9479" y2="1610.7187"/><line style="stroke:#1E1E20;stroke-width:0.5208333333333334;stroke-dasharray:5.0,5.0;" x1="844.7917" x2="844.7917" y1="215.5104" y2="717.3854"/><line style="stroke:#1E1E20;stroke-width:1.0416666666666667;stroke-dasharray:1.0,4.0;" x1="844.7917" x2="844.7917" y1="717.3854" y2="781.9479"/><line style="stroke:#1E1E20;stroke-width:0.5208333333333334;stroke-dasharray:5.0,5.0;" x1="844.7917" x2="844.7917" y1="781.9479" y2="1610.7187"/><line style="stroke:#1E1E20;stroke-width:0.5208333333333334;stroke-dasharray:5.0,5.0;" x1="1061.4583" x2="1061.4583" y1="215.5104" y2="717.3854"/><line style="stroke:#1E1E20;stroke-width:1.0416666666666667;stroke-dasharray:1.0,4.0;" x1="1061.4583" x2="1061.4583" y1="717.3854" y2="781.9479"/><line style="stroke:#1E1E20;stroke-width:0.5208333333333334;stroke-dasharray:5.0,5.0;" x1="1061.4583" x2="1061.4583" y1="781.9479" y2="1610.7187"/><line style="stroke:#1E1E20;stroke-width:0.5208333333333334;stroke-dasharray:5.0,5.0;" x1="1263.5417" x2="1263.5417" y1="215.5104" y2="717.3854"/><line style="stroke:#1E1E20;stroke-width:1.0416666666666667;stroke-dasharray:1.0,4.0;" x1="1263.5417" x2="1263.5417" y1="717.3854" y2="781.9479"/><line style="stroke:#1E1E20;stroke-width:0.5208333333333334;stroke-dasharray:5.0,5.0;" x1="1263.5417" x2="1263.5417" y1="781.9479" y2="1610.7187"/><text fill="#1E1E20" font-family="Telia Sans" font-size="12.5" lengthAdjust="spacing" textLength="27.0833" x="52.0833" y="202.4313">Foo1</text><ellipse cx="68.75" cy="121.7813" fill="url(#gd7sws09qm41q0)" filter="url(#fd7sws09qm41q)" rx="8.3333" ry="8.3333" style="stroke:#5C524E;stroke-width:2.0833333333333335;"/><path d="M68.75,130.1146 L68.75,158.2396 M55.2083,138.4479 L82.2917,138.4479 M68.75,158.2396 L55.2083,173.8646 M68.75,158.2396 L82.2917,173.8646 " fill="none" filter="url(#fd7sws09qm41q)" style="stroke:#5C524E;stroke-width:2.0833333333333335;"/><text fill="#1E1E20" font-family="Telia Sans" font-size="12.5" lengthAdjust="spacing" textLength="27.0833" x="52.0833" y="1631.9937">Foo1</text><ellipse cx="68.75" cy="1655.4896" fill="url(#gd7sws09qm41q0)" filter="url(#fd7sws09qm41q)" rx="8.3333" ry="8.3333" style="stroke:#5C524E;stroke-width:2.0833333333333335;"/><path d="M68.75,1663.8229 L68.75,1691.9479 M55.2083,1672.1562 L82.2917,1672.1562 M68.75,1691.9479 L55.2083,1707.5729 M68.75,1691.9479 L82.2917,1707.5729 " fill="none" filter="url(#fd7sws09qm41q)" style="stroke:#5C524E;stroke-width:2.0833333333333335;"/><text fill="#FFFFFF" font-family="Telia Sans" font-size="12.5" lengthAdjust="spacing" textLength="29.1667" x="223.9583" y="202.4313">Foo2</text><path d="M220.3125,150.9479 L220.3125,175.9479 M220.3125,163.4479 L238.0208,163.4479 " fill="none" filter="url(#fd7sws09qm41q)" style="stroke:#7F7F7F;stroke-width:1.0416666666666667;"/><ellipse cx="250.5208" cy="163.4479" fill="url(#gd7sws09qm41q0)" filter="url(#fd7sws09qm41q)" rx="12.5" ry="12.5" style="stroke:#7F7F7F;stroke-width:1.0416666666666667;"/><text fill="#FFFFFF" font-family="Telia Sans" font-size="12.5" lengthAdjust="spacing" textLength="29.1667" x="223.9583" y="1631.9937">Foo2</text><path d="M220.3125,1649.2396 L220.3125,1674.2396 M220.3125,1661.7396 L238.0208,1661.7396 " fill="none" filter="url(#fd7sws09qm41q)" style="stroke:#7F7F7F;stroke-width:1.0416666666666667;"/><ellipse cx="250.5208" cy="1661.7396" fill="url(#gd7sws09qm41q0)" filter="url(#fd7sws09qm41q)" rx="12.5" ry="12.5" style="stroke:#7F7F7F;stroke-width:1.0416666666666667;"/><text fill="#FFFFFF" font-family="Telia Sans" font-size="12.5" lengthAdjust="spacing" textLength="29.1667" x="384.375" y="202.4313">Foo3</text><ellipse cx="402.0833" cy="163.4479" fill="url(#gd7sws09qm41q0)" filter="url(#fd7sws09qm41q)" rx="12.5" ry="12.5" style="stroke:#7F7F7F;stroke-width:1.0416666666666667;"/><polygon fill="#7F7F7F" points="397.9167,150.9479,404.1667,145.7396,402.0833,150.9479,404.1667,156.1563,397.9167,150.9479" style="stroke:#7F7F7F;stroke-width:1.0416666666666667;"/><text fill="#FFFFFF" font-family="Telia Sans" font-size="12.5" lengthAdjust="spacing" textLength="29.1667" x="384.375" y="1631.9937">Foo3</text><ellipse cx="402.0833" cy="1661.7396" fill="url(#gd7sws09qm41q0)" filter="url(#fd7sws09qm41q)" rx="12.5" ry="12.5" style="stroke:#7F7F7F;stroke-width:1.0416666666666667;"/><polygon fill="#7F7F7F" points="397.9167,1649.2396,404.1667,1644.0312,402.0833,1649.2396,404.1667,1654.4479,397.9167,1649.2396" style="stroke:#7F7F7F;stroke-width:1.0416666666666667;"/><text fill="#FFFFFF" font-family="Telia Sans" font-size="12.5" lengthAdjust="spacing" textLength="29.1667" x="541.6667" y="202.4313">Foo4</text><ellipse cx="559.375" cy="163.4479" fill="url(#gd7sws09qm41q0)" filter="url(#fd7sws09qm41q)" rx="12.5" ry="12.5" style="stroke:#7F7F7F;stroke-width:1.0416666666666667;"/><line style="stroke:#7F7F7F;stroke-width:1.0416666666666667;" x1="546.875" x2="571.875" y1="178.0313" y2="178.0313"/><text fill="#FFFFFF" font-family="Telia Sans" font-size="12.5" lengthAdjust="spacing" textLength="29.1667" x="541.6667" y="1631.9937">Foo4</text><ellipse cx="559.375" cy="1661.7396" fill="url(#gd7sws09qm41q0)" filter="url(#fd7sws09qm41q)" rx="12.5" ry="12.5" style="stroke:#7F7F7F;stroke-width:1.0416666666666667;"/><line style="stroke:#7F7F7F;stroke-width:1.0416666666666667;" x1="546.875" x2="571.875" y1="1676.3229" y2="1676.3229"/><text fill="#1E1E20" font-family="Telia Sans" font-size="12.5" lengthAdjust="spacing" textLength="29.1667" x="711.4583" y="202.4313">Foo5</text><path d="M710.4167,142.6146 C710.4167,132.1979 729.1667,132.1979 729.1667,132.1979 C729.1667,132.1979 747.9167,132.1979 747.9167,142.6146 L747.9167,169.6979 C747.9167,180.1146 729.1667,180.1146 729.1667,180.1146 C729.1667,180.1146 710.4167,180.1146 710.4167,169.6979 L710.4167,142.6146 " fill="url(#gd7sws09qm41q0)" filter="url(#fd7sws09qm41q)" style="stroke:#7F7F7F;stroke-width:1.5625;"/><path d="M710.4167,142.6146 C710.4167,153.0313 729.1667,153.0313 729.1667,153.0313 C729.1667,153.0313 747.9167,153.0313 747.9167,142.6146 " fill="none" style="stroke:#7F7F7F;stroke-width:1.5625;"/><text fill="#1E1E20" font-family="Telia Sans" font-size="12.5" lengthAdjust="spacing" textLength="29.1667" x="711.4583" y="1631.9937">Foo5</text><path d="M710.4167,1655.4896 C710.4167,1645.0729 729.1667,1645.0729 729.1667,1645.0729 C729.1667,1645.0729 747.9167,1645.0729 747.9167,1655.4896 L747.9167,1682.5729 C747.9167,1692.9896 729.1667,1692.9896 729.1667,1692.9896 C729.1667,1692.9896 710.4167,1692.9896 710.4167,1682.5729 L710.4167,1655.4896 " fill="url(#gd7sws09qm41q0)" filter="url(#fd7sws09qm41q)" style="stroke:#7F7F7F;stroke-width:1.5625;"/><path d="M710.4167,1655.4896 C710.4167,1665.9062 729.1667,1665.9062 729.1667,1665.9062 C729.1667,1665.9062 747.9167,1665.9062 747.9167,1655.4896 " fill="none" style="stroke:#7F7F7F;stroke-width:1.5625;"/><rect fill="url(#gd7sws09qm41q0)" filter="url(#fd7sws09qm41q)" height="49.9792" rx="4.1667" ry="4.1667" style="stroke:#7F7F7F;stroke-width:1.0416666666666667;" width="64.5833" x="813.5417" y="157.1979"/><rect fill="url(#gd7sws09qm41q0)" filter="url(#fd7sws09qm41q)" height="49.9792" rx="4.1667" ry="4.1667" style="stroke:#7F7F7F;stroke-width:1.0416666666666667;" width="64.5833" x="809.375" y="161.3646"/><text fill="#1E1E20" font-family="Telia Sans" font-size="12.5" lengthAdjust="spacing" textLength="29.1667" x="827.0833" y="190.9729">Foo6</text><rect fill="url(#gd7sws09qm41q0)" filter="url(#fd7sws09qm41q)" height="49.9792" rx="4.1667" ry="4.1667" style="stroke:#7F7F7F;stroke-width:1.0416666666666667;" width="64.5833" x="813.5417" y="1609.6771"/><rect fill="url(#gd7sws09qm41q0)" filter="url(#fd7sws09qm41q)" height="49.9792" rx="4.1667" ry="4.1667" style="stroke:#7F7F7F;stroke-width:1.0416666666666667;" width="64.5833" x="809.375" y="1613.8437"/><text fill="#1E1E20" font-family="Telia Sans" font-size="12.5" lengthAdjust="spacing" textLength="29.1667" x="827.0833" y="1643.4521">Foo6</text><rect fill="url(#gd7sws09qm41q0)" filter="url(#fd7sws09qm41q)" height="64.5417" rx="4.1667" ry="4.1667" style="stroke:#7F7F7F;stroke-width:1.0416666666666667;" width="87.5" x="1016.6667" y="146.8021"/><text fill="#1E1E20" font-family="Telia Sans" font-size="12.5" font-style="italic" lengthAdjust="spacing" textLength="52.0833" x="1034.375" y="176.4104">&#171;Person&#187;</text><text fill="#1E1E20" font-family="Telia Sans" font-size="12.5" lengthAdjust="spacing" textLength="22.9167" x="1048.9583" y="190.9729">Bob</text><rect fill="url(#gd7sws09qm41q0)" filter="url(#fd7sws09qm41q)" height="64.5417" rx="4.1667" ry="4.1667" style="stroke:#7F7F7F;stroke-width:1.0416666666666667;" width="87.5" x="1016.6667" y="1609.6771"/><text fill="#1E1E20" font-family="Telia Sans" font-size="12.5" font-style="italic" lengthAdjust="spacing" textLength="52.0833" x="1034.375" y="1639.2854">&#171;Person&#187;</text><text fill="#1E1E20" font-family="Telia Sans" font-size="12.5" lengthAdjust="spacing" textLength="22.9167" x="1048.9583" y="1653.8479">Bob</text><rect fill="url(#gd7sws09qm41q0)" filter="url(#fd7sws09qm41q)" height="64.5417" rx="4.1667" ry="4.1667" style="stroke:#7F7F7F;stroke-width:1.0416666666666667;" width="122.9167" x="1201.0417" y="146.8021"/><ellipse cx="1218.75" cy="164.5104" fill="#ADD1B2" rx="10.4167" ry="10.4167" style="stroke:#7F7F7F;stroke-width:1.0416666666666667;"/><path d="M1220.6604,168.9355 Q1220.2332,169.1552 1219.7632,169.2651 Q1219.2932,169.3749 1218.7744,169.3749 Q1216.9312,169.3749 1215.9607,168.1603 Q1214.9902,166.9457 1214.9902,164.6508 Q1214.9902,162.3498 1215.9607,161.1352 Q1216.9312,159.9206 1218.7744,159.9206 Q1219.2932,159.9206 1219.7693,160.0304 Q1220.2454,160.1403 1220.6604,160.36 L1220.6604,162.362 Q1220.1965,161.9347 1219.7601,161.7364 Q1219.3237,161.538 1218.8599,161.538 Q1217.8711,161.538 1217.3676,162.3223 Q1216.864,163.1066 1216.864,164.6508 Q1216.864,166.1889 1217.3676,166.9732 Q1217.8711,167.7575 1218.8599,167.7575 Q1219.3237,167.7575 1219.7601,167.5591 Q1220.1965,167.3608 1220.6604,166.9335 Z " fill="#1E1E20"/><text fill="#1E1E20" font-family="Telia Sans" font-size="12.5" font-style="italic" lengthAdjust="spacing" textLength="60.4167" x="1245.8333" y="176.4104">&#171;Testable&#187;</text><text fill="#1E1E20" font-family="Telia Sans" font-size="12.5" lengthAdjust="spacing" textLength="27.0833" x="1262.5" y="190.9729">Alice</text><rect fill="url(#gd7sws09qm41q0)" filter="url(#fd7sws09qm41q)" height="64.5417" rx="4.1667" ry="4.1667" style="stroke:#7F7F7F;stroke-width:1.0416666666666667;" width="122.9167" x="1201.0417" y="1609.6771"/><ellipse cx="1218.75" cy="1627.3854" fill="#ADD1B2" rx="10.4167" ry="10.4167" style="stroke:#7F7F7F;stroke-width:1.0416666666666667;"/><path d="M1220.6604,1631.8105 Q1220.2332,1632.0302 1219.7632,1632.14 Q1219.2932,1632.2499 1218.7744,1632.2499 Q1216.9312,1632.2499 1215.9607,1631.0353 Q1214.9902,1629.8207 1214.9902,1627.5258 Q1214.9902,1625.2248 1215.9607,1624.0102 Q1216.9312,1622.7956 1218.7744,1622.7956 Q1219.2932,1622.7956 1219.7693,1622.9054 Q1220.2454,1623.0153 1220.6604,1623.235 L1220.6604,1625.237 Q1220.1965,1624.8097 1219.7601,1624.6114 Q1219.3237,1624.413 1218.8599,1624.413 Q1217.8711,1624.413 1217.3676,1625.1973 Q1216.864,1625.9816 1216.864,1627.5258 Q1216.864,1629.0639 1217.3676,1629.8482 Q1217.8711,1630.6325 1218.8599,1630.6325 Q1219.3237,1630.6325 1219.7601,1630.4341 Q1220.1965,1630.2357 1220.6604,1629.8085 Z " fill="#1E1E20"/><text fill="#1E1E20" font-family="Telia Sans" font-size="12.5" font-style="italic" lengthAdjust="spacing" textLength="60.4167" x="1245.8333" y="1639.2854">&#171;Testable&#187;</text><text fill="#1E1E20" font-family="Telia Sans" font-size="12.5" lengthAdjust="spacing" textLength="27.0833" x="1262.5" y="1653.8479">Alice</text><rect fill="#FFFFFF" filter="url(#fd7sws09qm41q)" height="263.4167" style="stroke:#1E1E20;stroke-width:1.0416666666666667;" width="10.4167" x="396.875" y="408.1562"/><rect fill="url(#gd7sws09qm41q1)" filter="url(#fd7sws09qm41q)" height="3.125" rx="4.1667" ry="4.1667" style="stroke:url(#gd7sws09qm41q1);stroke-width:1.0416666666666667;" width="1415.625" x="0" y="257.1667"/><line style="stroke:#666666;stroke-width:1.0416666666666667;" x1="0" x2="1415.625" y1="257.1667" y2="257.1667"/><line style="stroke:#666666;stroke-width:1.0416666666666667;" x1="0" x2="1415.625" y1="260.2917" y2="260.2917"/><rect fill="url(#gd7sws09qm41q1)" filter="url(#fd7sws09qm41q)" height="43.7292" rx="4.1667" ry="4.1667" style="stroke:#666666;stroke-width:2.0833333333333335;" width="107.2917" x="654.1667" y="236.3438"/><text fill="#1E1E20" font-family="Telia Sans" font-size="12.5" font-weight="bold" lengthAdjust="spacing" textLength="68.75" x="670.8333" y="262.8271">Initialization</text><polygon fill="#5C524E" points="229.1667,327.9687,239.5833,332.1354,229.1667,336.3021,233.3333,332.1354" style="stroke:#5C524E;stroke-width:1.0416666666666667;"/><line style="stroke:#5C524E;stroke-width:3.125;" x1="68.75" x2="235.4167" y1="332.1354" y2="332.1354"/><text fill="#1E1E20" font-family="Telia Sans" font-size="12.5" font-weight="bold" lengthAdjust="spacing" textLength="31.25" x="86.4583" y="316.9729">[001]</text><text fill="#1E1E20" font-family="Telia Sans" font-size="12.5" lengthAdjust="spacing" textLength="70.8333" x="142.7083" y="316.9729">To boundary</text><polygon fill="#5C524E" points="384.375,403.9896,394.7917,408.1562,384.375,412.3229,388.5417,408.1562" style="stroke:#5C524E;stroke-width:1.0416666666666667;"/><line style="stroke:#5C524E;stroke-width:3.125;" x1="241.6667" x2="390.625" y1="408.1562" y2="408.1562"/><text fill="#1E1E20" font-family="Telia Sans" font-size="12.5" font-weight="bold" lengthAdjust="spacing" textLength="32.2917" x="259.375" y="392.9937">[002]</text><text fill="#1E1E20" font-family="Telia Sans" font-size="12.5" lengthAdjust="spacing" textLength="57.2917" x="316.6667" y="392.9937">To control</text><rect fill="none" filter="url(#fd7sws09qm41q)" height="95.7708" rx="4.1667" ry="4.1667" style="stroke:#666666;stroke-width:1.5625;" width="229.1667" x="528.125" y="416.4896"/><path d="M532.2917,416.4896 L612.5,416.4896 L612.5,442.5312 L602.0833,452.9479 L528.125,452.9479 L528.125,420.6562 A4.1667,4.1667 0 0 1 532.2917,416.4896 " fill="#EEEEEE" style="stroke:#666666;stroke-width:2.0833333333333335;"/><text fill="#1E1E20" font-family="Telia Sans" font-size="12.5" font-weight="bold" lengthAdjust="spacing" textLength="16.6667" x="552.0833" y="440.8896">ref</text><text fill="#1E1E20" font-family="Telia Sans" font-size="12.5" lengthAdjust="spacing" textLength="80.2083" x="604.1667" y="479.4312">This can be on</text><text fill="#1E1E20" font-family="Telia Sans" font-size="12.5" lengthAdjust="spacing" textLength="65.625" x="611.4583" y="493.9937">several lines</text><polygon fill="#5C524E" points="546.875,554.9479,557.2917,559.1146,546.875,563.2812,551.0417,559.1146" style="stroke:#5C524E;stroke-width:1.0416666666666667;"/><line style="stroke:#5C524E;stroke-width:3.125;" x1="407.2917" x2="553.125" y1="559.1146" y2="559.1146"/><text fill="#1E1E20" font-family="Telia Sans" font-size="12.5" font-weight="bold" lengthAdjust="spacing" textLength="32.2917" x="425" y="543.9521">[003]</text><text fill="#1E1E20" font-family="Telia Sans" font-size="12.5" lengthAdjust="spacing" textLength="48.9583" x="482.2917" y="543.9521">To entity</text><polygon fill="#5C524E" points="716.6667,604.9271,727.0833,609.0937,716.6667,613.2604,720.8333,609.0937" style="stroke:#5C524E;stroke-width:1.0416666666666667;"/><line style="stroke:#5C524E;stroke-width:3.125;" x1="559.375" x2="722.9167" y1="609.0937" y2="609.0937"/><text fill="#1E1E20" font-family="Telia Sans" font-size="12.5" font-weight="bold" lengthAdjust="spacing" textLength="32.2917" x="577.0833" y="593.9312">[004]</text><text fill="#1E1E20" font-family="Telia Sans" font-size="12.5" lengthAdjust="spacing" textLength="66.6667" x="634.375" y="593.9312">To database</text><polygon fill="#5C524E" points="418.75,617.4271,408.3333,621.5937,418.75,625.7604,414.5833,621.5937" style="stroke:#5C524E;stroke-width:1.0416666666666667;"/><line style="stroke:#5C524E;stroke-width:3.125;stroke-dasharray:2.0,2.0;" x1="412.5" x2="728.125" y1="621.5937" y2="621.5937"/><text fill="#1E1E20" font-family="Telia Sans" font-size="12.5" font-weight="bold" lengthAdjust="spacing" textLength="32.2917" x="435.4167" y="644.9521">[005]</text><text fill="#1E1E20" font-family="Telia Sans" font-size="12.5" lengthAdjust="spacing" textLength="33.3333" x="492.7083" y="644.9521">return</text><polygon fill="#5C524E" points="253.125,667.4062,242.7083,671.5729,253.125,675.7396,248.9583,671.5729" style="stroke:#5C524E;stroke-width:1.0416666666666667;"/><line style="stroke:#5C524E;stroke-width:3.125;stroke-dasharray:2.0,2.0;" x1="246.875" x2="401.0417" y1="671.5729" y2="671.5729"/><text fill="#1E1E20" font-family="Telia Sans" font-size="12.5" font-weight="bold" lengthAdjust="spacing" textLength="32.2917" x="269.7917" y="694.9312">[006]</text><text fill="#1E1E20" font-family="Telia Sans" font-size="12.5" lengthAdjust="spacing" textLength="33.3333" x="327.0833" y="694.9312">return</text><text fill="#000000" font-family="Telia Sans" font-size="12.5" lengthAdjust="spacing" textLength="31.25" x="620.5729" y="754.2854">Some</text><text fill="#000000" font-family="Telia Sans" font-size="12.5" lengthAdjust="spacing" text-decoration="wavy underline" textLength="57.2917" x="654.9479" y="754.2854">long delay</text><text fill="#000000" font-family="Telia Sans" font-size="12.5" lengthAdjust="spacing" textLength="3.125" x="712.2396" y="754.2854">&#160;</text><polygon fill="#5C524E" points="832.8125,819.4271,843.2292,823.5937,832.8125,827.7604,836.9792,823.5937" style="stroke:#5C524E;stroke-width:1.0416666666666667;"/><line style="stroke:#5C524E;stroke-width:3.125;" x1="68.75" x2="839.0625" y1="823.5937" y2="823.5937"/><text fill="#1E1E20" font-family="Telia Sans" font-size="12.5" font-weight="bold" lengthAdjust="spacing" textLength="32.2917" x="86.4583" y="808.4312">[007]</text><text fill="#1E1E20" font-family="Telia Sans" font-size="12.5" lengthAdjust="spacing" textLength="77.0833" x="143.75" y="808.4312">To collections</text><polygon fill="#5C524E" points="570.8333,831.9271,560.4167,836.0937,570.8333,840.2604,566.6667,836.0937" style="stroke:#5C524E;stroke-width:1.0416666666666667;"/><line style="stroke:#5C524E;stroke-width:3.125;stroke-dasharray:2.0,2.0;" x1="564.5833" x2="844.2708" y1="836.0937" y2="836.0937"/><text fill="#1E1E20" font-family="Telia Sans" font-size="12.5" font-weight="bold" lengthAdjust="spacing" textLength="32.2917" x="587.5" y="859.4521">[008]</text><text fill="#018842" font-family="Telia Sans" font-size="12.5" font-weight="bold" lengthAdjust="spacing" textLength="45.8333" x="644.7917" y="859.4521">success</text><path d="M14.5833,889.1979 L94.7917,889.1979 L94.7917,916.2604 L84.375,926.6771 L10.4167,926.6771 L10.4167,893.3646 A4.1667,4.1667 0 0 1 14.5833,889.1979 " fill="none" style="stroke:#666666;stroke-width:1.5625;"/><rect fill="none" height="615.3333" rx="4.1667" ry="4.1667" style="stroke:#7F7F7F;stroke-width:1.5625;" width="1389.5833" x="10.4167" y="889.1979"/><text fill="#1E1E20" font-family="Telia Sans" font-size="12.5" font-weight="bold" lengthAdjust="spacing" textLength="13.5417" x="36.4583" y="912.5562">alt</text><text fill="#1E1E20" font-family="Telia Sans" font-size="12.5" font-weight="bold" lengthAdjust="spacing" textLength="97.9167" x="120.8333" y="913.5979">[successful case]</text><polygon fill="#5C524E" points="1251.5625,983.9271,1261.9792,988.0937,1251.5625,992.2604,1255.7292,988.0937" style="stroke:#5C524E;stroke-width:1.0416666666666667;"/><line style="stroke:#5C524E;stroke-width:3.125;" x1="68.75" x2="1257.8125" y1="988.0937" y2="988.0937"/><text fill="#1E1E20" font-family="Telia Sans" font-size="12.5" font-weight="bold" lengthAdjust="spacing" textLength="32.2917" x="86.4583" y="972.9312">[009]</text><text fill="#1E1E20" font-family="Telia Sans" font-size="12.5" lengthAdjust="spacing" textLength="137.5" x="143.75" y="972.9312">Authentication Accepted</text><polygon fill="#5C524E" points="80.2083,996.4271,69.7917,1000.5937,80.2083,1004.7604,76.0417,1000.5937" style="stroke:#5C524E;stroke-width:1.0416666666666667;"/><line style="stroke:#5C524E;stroke-width:3.125;stroke-dasharray:2.0,2.0;" x1="73.9583" x2="1263.0208" y1="1000.5937" y2="1000.5937"/><text fill="#1E1E20" font-family="Telia Sans" font-size="12.5" font-weight="bold" lengthAdjust="spacing" textLength="31.25" x="96.875" y="1023.9521">[010]</text><text fill="#1E1E20" font-family="Telia Sans" font-size="12.5" lengthAdjust="spacing" textLength="41.6667" x="153.125" y="1023.9521">success</text><path d="M1119.7917,1055.7812 L1119.7917,1092.2396 A4.1667,4.1667 0 0 0 1123.9583,1096.4062 L1251.0417,1096.4062 A4.1667,4.1667 0 0 0 1255.2083,1092.2396 L1255.2083,1062.0312 L1244.7917,1051.6146 L1123.9583,1051.6146 A4.1667,4.1667 0 0 0 1119.7917,1055.7812 " fill="url(#gd7sws09qm41q2)" filter="url(#fd7sws09qm41q)" style="stroke:#0078CB;stroke-width:1.0416666666666667;"/><path d="M1244.7917,1051.6146 L1244.7917,1059.9479 A2.0833,2.0833 0 0 0 1246.875,1062.0312 L1255.2083,1062.0312 L1244.7917,1051.6146 " fill="url(#gd7sws09qm41q2)" style="stroke:#0078CB;stroke-width:1.0416666666666667;"/><text fill="#FFFFFF" font-family="Telia Sans" font-size="12.5" lengthAdjust="spacing" textLength="92.7083" x="1136.4583" y="1079.1396">this is a first note</text><line style="stroke:#7F7F7F;stroke-width:1.0416666666666667;stroke-dasharray:2.0,2.0;" x1="10.4167" x2="1400" y1="1106.8021" y2="1106.8021"/><text fill="#1E1E20" font-family="Telia Sans" font-size="12.5" font-weight="bold" lengthAdjust="spacing" textLength="121.875" x="26.0417" y="1129.1187">[some kind of failure]</text><polygon fill="#5C524E" points="1251.5625,1180.7187,1261.9792,1184.8854,1251.5625,1189.0521,1255.7292,1184.8854" style="stroke:#5C524E;stroke-width:1.0416666666666667;"/><line style="stroke:#5C524E;stroke-width:3.125;" x1="68.75" x2="1257.8125" y1="1184.8854" y2="1184.8854"/><text fill="#1E1E20" font-family="Telia Sans" font-size="12.5" font-weight="bold" lengthAdjust="spacing" textLength="29.1667" x="86.4583" y="1169.7229">[011]</text><text fill="#1E1E20" font-family="Telia Sans" font-size="12.5" lengthAdjust="spacing" textLength="122.9167" x="140.625" y="1169.7229">Authentication Failure</text><polygon fill="#5C524E" points="80.2083,1193.2187,69.7917,1197.3854,80.2083,1201.5521,76.0417,1197.3854" style="stroke:#5C524E;stroke-width:1.0416666666666667;"/><line style="stroke:#5C524E;stroke-width:3.125;stroke-dasharray:2.0,2.0;" x1="73.9583" x2="1263.0208" y1="1197.3854" y2="1197.3854"/><text fill="#1E1E20" font-family="Telia Sans" font-size="12.5" font-weight="bold" lengthAdjust="spacing" textLength="30.2083" x="96.875" y="1220.7437">[012]</text><text fill="#E4175C" font-family="Telia Sans" font-size="12.5" font-weight="bold" lengthAdjust="spacing" textLength="69.7917" x="152.0833" y="1220.7437">Bad request</text><path d="M25,1250.4896 L164.5833,1250.4896 L164.5833,1277.5521 L154.1667,1287.9687 L20.8333,1287.9687 L20.8333,1254.6562 A4.1667,4.1667 0 0 1 25,1250.4896 " fill="none" style="stroke:#666666;stroke-width:1.5625;"/><rect fill="none" height="159.2917" rx="4.1667" ry="4.1667" style="stroke:#7F7F7F;stroke-width:1.5625;" width="1368.75" x="20.8333" y="1250.4896"/><text fill="#1E1E20" font-family="Telia Sans" font-size="12.5" font-weight="bold" lengthAdjust="spacing" textLength="76.0417" x="46.875" y="1273.8479">My own label</text><path d="M35.4167,1295.2604 L123.9583,1295.2604 L123.9583,1322.3229 L113.5417,1332.7396 L31.25,1332.7396 L31.25,1299.4271 A4.1667,4.1667 0 0 1 35.4167,1295.2604 " fill="none" style="stroke:#666666;stroke-width:1.5625;"/><rect fill="none" height="107.2292" rx="4.1667" ry="4.1667" style="stroke:#7F7F7F;stroke-width:1.5625;" width="1347.9167" x="31.25" y="1295.2604"/><text fill="#1E1E20" font-family="Telia Sans" font-size="12.5" font-weight="bold" lengthAdjust="spacing" textLength="25" x="57.2917" y="1318.6187">loop</text><text fill="#1E1E20" font-family="Telia Sans" font-size="12.5" font-weight="bold" lengthAdjust="spacing" textLength="73.9583" x="150" y="1319.6604">[1000 times]</text><polygon fill="#5C524E" points="80.2083,1352.5104,69.7917,1356.6771,80.2083,1360.8437,76.0417,1356.6771" style="stroke:#5C524E;stroke-width:1.0416666666666667;"/><line style="stroke:#5C524E;stroke-width:3.125;" x1="73.9583" x2="1263.0208" y1="1356.6771" y2="1356.6771"/><text fill="#1E1E20" font-family="Telia Sans" font-size="12.5" font-weight="bold" lengthAdjust="spacing" textLength="30.2083" x="96.875" y="1380.0354">[013]</text><text fill="#1E1E20" font-family="Telia Sans" font-size="12.5" lengthAdjust="spacing" textLength="64.5833" x="152.0833" y="1380.0354">DNS Attack</text><line style="stroke:#7F7F7F;stroke-width:1.0416666666666667;stroke-dasharray:2.0,2.0;" x1="10.4167" x2="1400" y1="1418.1146" y2="1418.1146"/><text fill="#1E1E20" font-family="Telia Sans" font-size="12.5" font-weight="bold" lengthAdjust="spacing" textLength="93.75" x="26.0417" y="1440.4312">[Just a Warning]</text><polygon fill="#5C524E" points="1251.5625,1492.0312,1261.9792,1496.1979,1251.5625,1500.3646,1255.7292,1496.1979" style="stroke:#5C524E;stroke-width:1.0416666666666667;"/><line style="stroke:#5C524E;stroke-width:3.125;" x1="68.75" x2="1257.8125" y1="1496.1979" y2="1496.1979"/><text fill="#1E1E20" font-family="Telia Sans" font-size="12.5" font-weight="bold" lengthAdjust="spacing" textLength="30.2083" x="86.4583" y="1481.0354">[014]</text><text fill="#FF9800" font-family="Telia Sans" font-size="12.5" font-weight="bold" lengthAdjust="spacing" textLength="78.125" x="141.6667" y="1481.0354">Please repeat</text><path d="M43.75,1521.1979 L43.75,1586.8229 A4.1667,4.1667 0 0 0 47.9167,1590.9896 L262.5,1590.9896 A4.1667,4.1667 0 0 0 266.6667,1586.8229 L266.6667,1527.4479 L256.25,1517.0312 L47.9167,1517.0312 A4.1667,4.1667 0 0 0 43.75,1521.1979 " fill="url(#gd7sws09qm41q2)" filter="url(#fd7sws09qm41q)" style="stroke:#0078CB;stroke-width:1.0416666666666667;"/><path d="M256.25,1517.0312 L256.25,1525.3646 A2.0833,2.0833 0 0 0 258.3333,1527.4479 L266.6667,1527.4479 L256.25,1517.0312 " fill="url(#gd7sws09qm41q2)" style="stroke:#0078CB;stroke-width:1.0416666666666667;"/><text fill="#FFFFFF" font-family="Telia Sans" font-size="12.5" lengthAdjust="spacing" textLength="111.4583" x="93.2292" y="1544.5562">this is a second note</text><text fill="#FFFFFF" font-family="Telia Sans" font-size="12.5" lengthAdjust="spacing" textLength="65.625" x="93.2292" y="1559.1187">that is really</text><text fill="#FFFFFF" font-family="Telia Sans" font-size="12.5" lengthAdjust="spacing" textLength="25" x="93.2292" y="1573.6812">long</text><text fill="#888888" font-family="Telia Sans" font-size="10.4167" lengthAdjust="spacing" textLength="57.2917" x="1346.875" y="25.5417">Page Header</text><text fill="#888888" font-family="Telia Sans" font-size="10.4167" lengthAdjust="spacing" textLength="46.875" x="683.8542" y="1739.3646">Page 1 of 1</text><!--SRC=[fHfhKnivyhFrAuI1EgYDSpQli2cWoiOsuIu12dELkzhQIibZ6MOPp_Xcv01x8R_zMgyPQIGPiqnIbAUxrUfkzKlIh6tSV1fy6U1Zt6GqYKbhd6SFQHCXj1PFyMQQiQtDxoIFoJYXt-XZNB1YgxdHEpkz_7nvtTpUHclwHR38ILhCIKvJraHhD9t4KuIA-pW569dXCOdkR_DiaKvEioJBiHvga2mAsgECZDXJGl6K90K5IJQ-VZg_4JAk3uT3uBnnTjtzZtW_E3ZWxrVNvr-wrn8qEEqF-djDFcuqEBsyw6l4S1V-7NBoqRzEJmUZaO2sEuU7UpiSUdunl9IWzeV3QCn1NxlN5-SNPm8wdVvws6vpQBzxSJOG2g_JlSw7_OW3Fv-VVRfHX5D9TVrFyTwX7ReZ1dPXsWj9j7-wlxCtq7Izwykl5mB-OSZ_2Uc7fM45JQNcjvl1lsyCSAbc7Q7fjMoRINnxnsYwfJ7ly4vxso1KCczEI7xl8QicSZcME9UupjKXvPRtiEHWYwJEo27G-Wk7gHRQ9wx4bC8gGaTKFrbz7kKdddaKHZFGXFLv0cJrUQJdbQFBMIHSZrPKfJ1w4YzLVGhfenvD94AFLcHrFKmYj3RFiuXE5Zd56yKYYcXHR6tCYjjjXF7HD4iPZdWUEDPcFJaQdt2yI1tbM9lFbCG9_F3paIgjmkQ1v6cStlhPAEklmcUUnpEIFtqheZiwerlRg344HYgzcU6A6hqidz1SeSgWr_2RkpYwJy52k0EWUgAq0hcbNvS9Lh1y4J7uQOYMPXEA_uSQA_DlD3x7ALKqSca1nZMy83EAcpUyPE0H9Fqcm0lASpW3MZw7T-Wpulz93aL64ZcIbAI-yJ3s3jnHk6HWl1M9BVtAXounrYr96IiD1PmnF7urwtogqZMXKx98M3bCFjPWB_4e_bCJTtPCadcCtQVJRXiqnHsPP0_Wo1ODBBqfc31FbEKfpGsYGuFYYkGiZk8vcE6AJ2QAtvuvKozxD53wiKWyU26mGTBbAozNodZq-XfwCPhJZ3tDgLgCKsUXQxL8KPanPXSWGT1rsPWLGj5OJ8p28D3d3WiptIeIEzJBd2smW-K-gsXC3cRH4EWBXqLLGHM1ERwidU2zbOrPp1AH3igCrN2yhOmyxQY2fABRQRlvgyAstKncSzVztxFP9IRq5YAC2nPUyreshQsqcOELscYjOE3anMACYuTubf3KZ10D4fEQZBNwTHrtKEE6cyzHh-wMBLDcCSIj3ogdW6occ2HYyVUOFPccqJ0kfwVqz4XTxX7dPdW1QWmibq6DVancMJfvARnCFS01zAXbYw1e37tjFjMlzhnAHQRc1ZYWl973tDKAMJZBQ-QLnMlb-hYgixWEwPE79qTB7bqdArwxg56RpM0zBCF9mxsW_rtGDABc11hc-7sfOCXb7HCPMp_RxSeHWxer-PoFlT2UK21DcVYUJq3hncpqQKAU7EZdU4fv3-7qNNMKjL8bwgLwqpW3xDmZeO0xqWZe9qg0seyB6q9DD7bwWKHo3nFr8NVu24JdtzgegeScT7HpaARf3AIZuJMTGa47JmjBLv6u9YrnOSQEQMLw6vMDHAWl3sSX5cUfauCuq0aNVzLP6YFUQM7_aT28Jr6O4njWV_8BC4jPdYKs8m4AP513VkaBNhOWVAqgISYRc8wvaM2WTLgaO6zYJ6wfNKW4m9VZrpDOdLjgh-pwh-8nPrlV5Oz_kZHZLeBbxvMtBD_ZLIrSIpclqyHPMiiDUw2Ii7WArSmk9XBchMzM2cXu8j2OLm027ZURPsdDu2Nm5QuRfn2s8AnbonBeqw3MXLigQDoAPRY09W2ynAgJ4kGtdN_32KsIhuUtLz0uvGdvqwJcJnEwl3Fsj9rkgkAfskEIAvadIhB5n5fW3b3RjELn6cOw8OoCIM7fgc4ln_yoOKbXfr8EUBK50vLLrP6MTNmQg3cg8hX6xpAMn-C5SuajZ3Wbw7JyQcRZFwWTxH8ICDtR1QnrygyGTL7GgBRG2XJQrBWzshAYxfyr1sD0Ta-iUKkWjGaE5UyLGkoDGivXnbhYKQ3WVkzD8dg5c6O9a9aoICYoik4UnQoS-rQN2qInJ2C0Rv7AAQXcqNrH7lZ1QZM2iEK-NEi-jPkzVi_-ofHX7wy8EO-Ee23dJrSP5DMJ4v6yWqnXj6VuOyp- -kZeBeiZ-l9GZzrXmxgmx2u0hscBIMwNBtZtkj5h-x7o0YhWmB6TVVZxsqgvlpCBkcjqNrk9wFuLPflJl83ja96Q121OzxrC_k0i6aS5lzqzGGt-se_9BMS7aWX6ldkBPzHu8hDaHTAZlol-7W74GR-GM0kXpo85ffh1FARCiupLGE7x0PFYsNfZfBZti75DvpdrnyPbYCuVlJE7Kf_07omHGsr9V9FKdRdi5PT84oRaZdtc19H3QajdtY6zC7CL9nvBE9D3Zv69xMJOpk7-9Ypl3A8OTWVf2YQrJXr2j39d7uJnuiE8c94aZhn4ZkBMqUNgDdrXdLWy0wVtglroNDZAxdWNBv0IFKlzLvODzYm5dGJMBBZ52yP3Q4_d5-0PoT_B4fMuO8IjIvMc52IOS3dVPHo9E40o64h0Q_dnhuBS3uB4HqJDRIJlb4RwM5ddqnPMdnanpXouyUzw_BJbPqD_C-uUbvoZcUryCS_IWdu1Aq7FtAD9zY3k6-LzA28BYDF5R0ozRFDeVF9Rkzt-lOdGdTZRGUg4Dblkyz0K4hu6RSxXxoREG6tOEZBn1hp4JS4mopgeFAQ2jnsaJzZWPHUfWp7ulOVAtIoyxIFpH0y01yYyt-XbOtnqXAzaWJqviP1T27pAqLkdxzQx_NwdjxEDRo07yGNXn23G8swUyyEIb2HWt_mxZ6YYHcqA6o3O8dxl1iCHEZx6vsdCOaWpVnBX9iV7YAkBMoT2KVmHtsJLiTsF7p-G04lqBlxb5q6Wpo1pEiNPTofCjlTEsW1ZQB8BwBzIFAOON9DdVw01eNbcAOGqC109XfBndfnNdq4AYCJiIqnva210BIrEgmNed4Apa2fsMezMgqIyV_yUZp98N3z_9XbKqGc_LlZv4mFSrFq0AzMgire1LIptFbOVkpJL3uWCXBW7pp596FvDWQUB1FETx- -ev2_MuIFkBY1IGCb86hyBv7D69qYklfgfyn4hHWY9gfxGAUEUgfWmRbxuJw3Np0kc3YTvxE62gmcHC-7awfCQn7l9PL8C5Psu9Ay9KdwNq-mHlceGr0K3jHjIwozFE7j8SKB6D97TMv9bS_unGrkKaWALjyQAisRSlnZn7GBlNWK9E0LgY3zIatyiG3E2lyhlUH0IsTZIelpMftcLK1w1EPrJmeK3MkvaodhQFpllP2XNvfEzWxGVkoECGtDAakG9SKSHZYgG_mS0]--></g></svg>