<?xml version="1.0" encoding="us-ascii" standalone="no"?><svg xmlns="http://www.w3.org/2000/svg" xmlns:xlink="http://www.w3.org/1999/xlink" contentStyleType="text/css" height="620.8333px" preserveAspectRatio="none" style="width:492px;height:620px;" version="1.1" viewBox="0 0 492 620" width="492.7083px" zoomAndPan="magnify"><defs><filter height="300%" id="fq1k3bdmmp7id" width="300%" x="-1" y="-1"><feGaussianBlur result="blurOut" stdDeviation="2.0833333333333335"/><feColorMatrix in="blurOut" result="blurOut2" type="matrix" values="0 0 0 0 0 0 0 0 0 0 0 0 0 0 0 0 0 0 .4 0"/><feOffset dx="4.166666666666667" dy="4.166666666666667" in="blurOut2" result="blurOut3"/><feBlend in="SourceGraphic" in2="blurOut3" mode="normal"/></filter><linearGradient id="gq1k3bdmmp7id0" x1="50%" x2="50%" y1="0%" y2="100%"><stop offset="0%" stop-color="#FFFFFF"/><stop offset="100%" stop-color="#ECDED4"/></linearGradient></defs><g><text fill="#5C524E" font-family="Telia Sans" font-size="20.8333" font-weight="bold" lengthAdjust="spacing" textLength="442.7083" x="20.8333" y="40.6667">State Diagram With Point  - telia-brown theme</text><!--cluster Somp--><g id="cluster_Somp"><rect fill="none" filter="url(#fq1k3bdmmp7id)" height="257.5313" rx="4.1667" ry="4.1667" style="stroke:#D1AE96;stroke-width:1.0416666666666667;" width="188.5417" x="114.3229" y="194.4792"/><path d="M118.4896,194.4792 L298.6979,194.4792 A4.1667,4.1667 0 0 1 302.8646,198.6458 L302.8646,233.8698 L114.3229,233.8698 L114.3229,198.6458 A4.1667,4.1667 0 0 1 118.4896,194.4792 " fill="url(#gq1k3bdmmp7id0)" style="stroke:url(#gq1k3bdmmp7id0);stroke-width:1.0416666666666667;"/><rect fill="none" height="257.5313" rx="4.1667" ry="4.1667" style="stroke:#D1AE96;stroke-width:1.0416666666666667;" width="188.5417" x="114.3229" y="194.4792"/><line style="stroke:#D1AE96;stroke-width:1.0416666666666667;" x1="114.3229" x2="302.8646" y1="233.8698" y2="233.8698"/><text fill="#1E1E20" font-family="Telia Sans" font-size="11.4583" lengthAdjust="spacing" textLength="29.1667" x="194.0104" y="221.0125">Somp</text></g><text fill="#1E1E20" font-family="Telia Sans" font-size="11.4583" lengthAdjust="spacing" textLength="31.25" x="233.0729" y="162.8719">entry1</text><ellipse cx="248.6979" cy="194.4792" fill="url(#gq1k3bdmmp7id0)" rx="6.25" ry="6.25" style="stroke:#D1AE96;stroke-width:1.5625;"/><text fill="#1E1E20" font-family="Telia Sans" font-size="11.4583" lengthAdjust="spacing" textLength="32.2917" x="139.8438" y="162.8719">entry2</text><ellipse cx="155.9896" cy="194.4792" fill="url(#gq1k3bdmmp7id0)" rx="6.25" ry="6.25" style="stroke:#D1AE96;stroke-width:1.5625;"/><g id="Somp.sin"><rect fill="url(#gq1k3bdmmp7id0)" filter="url(#fq1k3bdmmp7id)" height="75.849" rx="4.1667" ry="4.1667" style="stroke:#D1AE96;stroke-width:1.0416666666666667;" width="56.25" x="130.9896" y="294.9063"/><line style="stroke:#D1AE96;stroke-width:1.0416666666666667;" x1="130.9896" x2="187.2396" y1="339.5052" y2="339.5052"/><text fill="#1E1E20" font-family="Telia Sans" font-size="11.4583" lengthAdjust="spacing" textLength="14.5833" x="151.8229" y="321.4396">sin</text></g><g id="Somp.sin2"><rect fill="url(#gq1k3bdmmp7id0)" filter="url(#fq1k3bdmmp7id)" height="75.849" rx="4.1667" ry="4.1667" style="stroke:#D1AE96;stroke-width:1.0416666666666667;" width="62.5" x="223.6979" y="294.9063"/><line style="stroke:#D1AE96;stroke-width:1.0416666666666667;" x1="223.6979" x2="286.1979" y1="339.5052" y2="339.5052"/><text fill="#1E1E20" font-family="Telia Sans" font-size="11.4583" lengthAdjust="spacing" textLength="20.8333" x="244.5313" y="321.4396">sin2</text></g><text fill="#1E1E20" font-family="Telia Sans" font-size="11.4583" lengthAdjust="spacing" textLength="26.0417" x="241.9271" y="479.5854">exitA</text><ellipse cx="254.9479" cy="452.0104" fill="url(#gq1k3bdmmp7id0)" rx="6.25" ry="6.25" style="stroke:#D1AE96;stroke-width:1.5625;"/><line style="stroke:#D1AE96;stroke-width:1.5625;" x1="259.5199" x2="251.4176" y1="456.5824" y2="448.4801"/><line style="stroke:#D1AE96;stroke-width:1.5625;" x1="259.5199" x2="251.4176" y1="448.4801" y2="456.5824"/><ellipse cx="248.6979" cy="83.6458" fill="#181818" filter="url(#fq1k3bdmmp7id)" rx="10.4167" ry="10.4167" style="stroke:none;stroke-width:1.0416666666666667;"/><g id="Foo"><rect fill="url(#gq1k3bdmmp7id0)" filter="url(#fq1k3bdmmp7id)" height="75.849" rx="4.1667" ry="4.1667" style="stroke:#D1AE96;stroke-width:1.0416666666666667;" width="60.4167" x="224.7396" y="533.2604"/><line style="stroke:#D1AE96;stroke-width:1.0416666666666667;" x1="224.7396" x2="285.1563" y1="577.8594" y2="577.8594"/><text fill="#1E1E20" font-family="Telia Sans" font-size="11.4583" lengthAdjust="spacing" textLength="18.75" x="245.5729" y="559.7938">Foo</text></g><g id="Foo1"><rect fill="url(#gq1k3bdmmp7id0)" filter="url(#fq1k3bdmmp7id)" height="75.849" rx="4.1667" ry="4.1667" style="stroke:#D1AE96;stroke-width:1.0416666666666667;" width="65.625" x="313.8021" y="156.5625"/><line style="stroke:#D1AE96;stroke-width:1.0416666666666667;" x1="313.8021" x2="379.4271" y1="201.1615" y2="201.1615"/><text fill="#1E1E20" font-family="Telia Sans" font-size="11.4583" lengthAdjust="spacing" textLength="23.9583" x="334.6354" y="183.0958">Foo1</text></g><!--link entry1 to sin--><g id="link_entry1_sin"><path d="M244.4479,200.4583 C236.4688,209.8229 218.8958,230.9479 205.9896,250.1146 C197.7604,262.3438 189.5104,276.0938 182.2708,288.7813 " fill="none" id="entry1-to-sin" style="stroke:#5C524E;stroke-width:3.125;"/><polygon fill="#5C524E" points="179.8021,293.1458,188.0451,287.0381,182.3668,288.6128,180.7922,282.9345,179.8021,293.1458" style="stroke:#5C524E;stroke-width:3.125;"/></g><!--link entry2 to sin--><g id="link_entry2_sin"><path d="M156.1042,200.6979 C156.4375,214.9063 157.3646,255.5938 158.1042,287.9167 " fill="none" id="entry2-to-sin" style="stroke:#5C524E;stroke-width:3.125;"/><polygon fill="#5C524E" points="158.2292,293.0938,162.1805,283.626,158.1102,287.8868,153.8494,283.8164,158.2292,293.0938" style="stroke:#5C524E;stroke-width:3.125;"/></g><!--link sin to sin2--><g id="link_sin_sin2"><path d="M187.5625,332.8333 C197.2604,332.8333 206.9583,332.8333 216.6458,332.8333 " fill="none" id="sin-to-sin2" style="stroke:#5C524E;stroke-width:3.125;"/><polygon fill="#5C524E" points="221.7813,332.8333,212.4063,328.6667,216.5729,332.8333,212.4063,337,221.7813,332.8333" style="stroke:#5C524E;stroke-width:3.125;"/></g><!--link sin2 to exitA--><g id="link_sin2_exitA"><path d="M254.9479,371.2396 C254.9479,394.7083 254.9479,423.4271 254.9479,439.1875 " fill="none" id="sin2-to-exitA" style="stroke:#5C524E;stroke-width:3.125;"/><polygon fill="#5C524E" points="254.9479,444.2396,259.1146,434.8646,254.9479,439.0313,250.7813,434.8646,254.9479,444.2396" style="stroke:#5C524E;stroke-width:3.125;"/></g><!--link *start* to entry1--><g id="link_*start*_entry1"><path d="M248.6979,94.3333 C248.6979,114.3333 248.6979,160.2396 248.6979,181.8229 " fill="none" id="*start*-to-entry1" style="stroke:#5C524E;stroke-width:3.125;"/><polygon fill="#5C524E" points="248.6979,187.0104,252.8646,177.6354,248.6979,181.8021,244.5313,177.6354,248.6979,187.0104" style="stroke:#5C524E;stroke-width:3.125;"/></g><!--link exitA to Foo--><g id="link_exitA_Foo"><path d="M254.9479,458.0833 C254.9479,469.8646 254.9479,500.2292 254.9479,526.3854 " fill="none" id="exitA-to-Foo" style="stroke:#5C524E;stroke-width:3.125;"/><polygon fill="#5C524E" points="254.9479,531.3542,259.1146,521.9792,254.9479,526.1458,250.7813,521.9792,254.9479,531.3542" style="stroke:#5C524E;stroke-width:3.125;"/></g><!--link Foo1 to entry2--><g id="link_Foo1_entry2"><path d="M325.7917,156.1563 C317.0625,143.9896 305.7083,131.9792 291.9271,125.3125 C263.5938,111.5833 249.9896,112.8229 221.0938,125.3125 C193.8542,137.0729 172.75,166.4688 162.6042,182.8958 " fill="none" id="Foo1-to-entry2" style="stroke:#5C524E;stroke-width:3.125;"/><polygon fill="#5C524E" points="160.1875,186.9583,168.5693,181.0425,162.8562,182.4857,161.413,176.7726,160.1875,186.9583" style="stroke:#5C524E;stroke-width:3.125;"/></g><!--SRC=[fLfjRzis4Fvi_Gh5IO5ac37RJTCKI0CuYPq4IvqYpj0Dmr3G4krmaILFejjaG_xxZXGfyLMs6_S5vjt3k-FnU7UKlBDtVpNyD0m_XcsA4u8wqppxdhQ38DWXi_1Dcj7zDzzGJj0qmL_n4obeiT_UExiylxsvlMiV70GxSi15v2WjbYZ7AMq7EpYDoIm8YaUI0WqjmYcA7kTvjahZyop9yb1ELI2h0fzXYYRqES7X32K51alslbnTttCRTqUZ4KZUkxmR_C77HqT7RFpvxlhJuAua3SylXXU7RJPlCZo_7Lz8nkWj_3bcyCblv-V3oOHJkxtZuyC-erwFHxSbgVl-E9eoqfV1tVXwVCcfizc7uswNKIy6uyiXN_0kFkozVnSnuitrvTMz0CvArDslVDp3FTpd4mUWTbo2tfs_wnyE9UxixlRBcDFVZzWVRlseSYp7rClyUZ_y_LuXLyiq6H8lRNkJaFa3nUc-vFmSzhi72b3O_2P6-QC3LYko9LOy6snAjQ3CymwHZAn1J44MGAwV1qozqIvpIqvbh01QfhfXfXuH9muzWYC5IA2fnmCpzPIHLyskj9HqELkWAcEa4YVAL576g6Cb9KFE5Z1p7Iees5dcMOJZLOx3lM8LHRWezlSMnVmW2CEJMPRIC69vuADqw-d9z9JnUUgevkfoPeWayCKjfrpI9cA-epmbwTmjHdX_4pdBd2nG_lorY1xm0kyV1AqH21BfJJskGUiiosES2rPrw2Nz_e54ZobuAEm1oKoKsa7ko66JOGNDLn65huffQHRZyB-WjR7yLkk6f5XWogq56blX62rmsBvd9IESGD9l0xt0B8TJm38Tpgal0VkBSYWo9SYof8AwviFS1mX77fAU-Tf9xCWXczhWh3bAAQqS1P93-BYNQSgfIrUCPsYLq6fQ-T4cEy4Jygy4z_egP4b2-zFhTXLCyO3Yx3i4ieQ1hLSDu-w9iZp5kG8wLX2VKKv9H9RWXiyeZeMyGrNJMVQaiEH7WpZut605Cc0xN-wKyf7xgwoBuXndz7c9nMQSMnjjr2A1Ki-ONe0uO62BKIk4m6X2bCB0sTUM23NT2eX-rAkSpRd3vfWL65M2MZGuUso9g2ke0AZpgze9qLlxc1AQy7HGPQoM5MtLoPE1oY4rhj-ryrVDxTgPJ9Sk-xyNjKjCy1nE63FCl-T6DZLsMit1Ojd1Ja4Xo8lLD2o-aqM2KlM4I19NgWgMopVNs0zQzynzrlBCiEoeDlCfTdqGEGLiKyr44INV27rMNIDfp4v7wJb3fjqJ9as9Wg0rr48cQ5qGjCZIUDtnKjS10I1dDMs2m2ZhrVjKzxANTIfILwwGFOjNSfYzMpuFPxdXth9uRLmVDmqMEo1Tzh3agDaZwsGjwstGChGfeaVLSN98B_0_Avn6M5KWQLRSLmlqXQpb8kNgfuTTDMDeUfFfV3hptGavKxM9tVaurNHcwm8dwDcYtf0PPZs4rNUPB6sdAjQwUjEw1ExIOI6dMzPmwXL6W7Rp_8uGYkBdDP1IkXzq0Rd31U2TVsUlhXuIQAtDOggkKvZM2k_m30ewH9hVkXfYkxJY-GLRhYtJswHg97nzkJyBKPAbLWvYHEkukAjEunbngeNxHu8Zfg9G5IjaT_Bp24jfdYMw84xoP535_Z8Md6B1UACgbPHN2Pqo9y54xMcHeBrAC9fZlP1mWYl7xsQmEtEix-pk1_vHjUs-vH-tkZIZMe9bupfQckzuTGlN4S5hDN7QgiiBkwUIK3A3QgONavBch6zQ2cWvJg2YbnCy4RTOPgdXy8guHUYI58uj6AlviYAwLc1quTeI96_3Cbn04m1HejN9akHsdVl22KsIguVNTr1vokEBfzY8fnWtTyQEjjDELInLEq9o8_T4IRQAjGrc175DQpwdVg4necYA2csjahR-_3SPYmezbJB2rXxqL5PHHphQurDFpH4LmNRwWDASJ5VK1ciS_fIWrtClCvl-ZVNJNb8yhdkzWKOdluMfgm97naOBakzIO_TeJKNThJK7Pq1sJpIz5L6x1FkAzmP7x9L6Ba6ZaNW4oNlVUvM9JYDcMG8mrOQIqbGsx4Sn6-U-pUq2KpJNSC9hhB8Agbfqrze3NwXH8n1jZc6Z-vHXjlsTVSkKeJzUuNQUd411pfy_Pr1KJqzvylOAXTcEwK-4_lZiw24Z4Lu_rU5tkB2kDBzpmZPjCShryWLZPnXjsuzLBw0y0KpqxCF6holbxixC6wxHex4JqUCMRblYl83ha9AQEC5Rzvr2_cOYMYS5Uxjx6hJOy8AWEHC7bd11hlSMBq7h6IsI3Q4dlmZv3WFuWtvkiJH2Felad5g3-fWopp9gaFpl1rJ4YpQYg7XqYB5TvtZg7oelGsJ-EBkqaF89_5636U9Aub9Y1dFLApPOumUomBwq3fG5rQrJto6jqLoV4uSdBENGOsJyEkdtix-_yTkxW5CCjuDq0vTgJnrys39d7_dv_8SHXAA4H4wGjN3jqUNcFbspJvGi8EYTorv_BlJ5zfsRvqc9Zgt-aMs3Eqk1Oy-UUQzutlFWkzEv3NW9okzDYOg_O8IhIvsc1CMRS9dS9ec8Fq1I19Q4RUMnNmNPFmZYFo9g7mJbEwK9RuLaClr2w4F8UuKmx8JYzqQKQG6nx0S-pPFgtn5nm2HRBBdDvP2tCRrGxsTqRj_7BKWAtuM4JkTK9VJ3QWp_Yq6_7FKvc7L0Wr3hX5Ypy-TFVvLiBZOeKOmmoh80_lL2oUp_3m00]--></g></svg>