<?xml version="1.0" encoding="us-ascii" standalone="no"?><svg xmlns="http://www.w3.org/2000/svg" xmlns:xlink="http://www.w3.org/1999/xlink" contentStyleType="text/css" height="1411.4583px" preserveAspectRatio="none" style="width:381px;height:1411px;" version="1.1" viewBox="0 0 381 1411" width="381.25px" zoomAndPan="magnify"><defs><filter height="300%" id="fcwnu7bvuhzpw" width="300%" x="-1" y="-1"><feGaussianBlur result="blurOut" stdDeviation="2.0833333333333335"/><feColorMatrix in="blurOut" result="blurOut2" type="matrix" values="0 0 0 0 0 0 0 0 0 0 0 0 0 0 0 0 0 0 .4 0"/><feOffset dx="4.166666666666667" dy="4.166666666666667" in="blurOut2" result="blurOut3"/><feBlend in="SourceGraphic" in2="blurOut3" mode="normal"/></filter><linearGradient id="gcwnu7bvuhzpw0" x1="50%" x2="50%" y1="0%" y2="100%"><stop offset="0%" stop-color="#FFFFFF"/><stop offset="100%" stop-color="#ECDED4"/></linearGradient></defs><g><text fill="#5C524E" font-family="Telia Sans" font-size="20.8333" font-weight="bold" lengthAdjust="spacing" textLength="331.25" x="20.8333" y="40.6667">State Diagram - telia-brown theme</text><rect fill="#5C524E" filter="url(#fcwnu7bvuhzpw)" height="8.3333" style="stroke:none;stroke-width:1.0416666666666667;" width="83.3333" x="148.4375" y="156.5625"/><ellipse cx="190.1042" cy="83.6458" fill="#181818" filter="url(#fcwnu7bvuhzpw)" rx="10.4167" ry="10.4167" style="stroke:none;stroke-width:1.0416666666666667;"/><g id="State2"><rect fill="url(#gcwnu7bvuhzpw0)" filter="url(#fcwnu7bvuhzpw)" height="75.849" rx="4.1667" ry="4.1667" style="stroke:#D1AE96;stroke-width:1.0416666666666667;" width="75" x="97.3958" y="227.3958"/><line style="stroke:#D1AE96;stroke-width:1.0416666666666667;" x1="97.3958" x2="172.3958" y1="271.9948" y2="271.9948"/><text fill="#1E1E20" font-family="Telia Sans" font-size="11.4583" lengthAdjust="spacing" textLength="33.3333" x="118.2292" y="253.9292">State2</text></g><g id="State3"><rect fill="url(#gcwnu7bvuhzpw0)" filter="url(#fcwnu7bvuhzpw)" height="75.849" rx="4.1667" ry="4.1667" style="stroke:#D1AE96;stroke-width:1.0416666666666667;" width="75" x="217.1875" y="227.3958"/><line style="stroke:#D1AE96;stroke-width:1.0416666666666667;" x1="217.1875" x2="292.1875" y1="271.9948" y2="271.9948"/><text fill="#1E1E20" font-family="Telia Sans" font-size="11.4583" lengthAdjust="spacing" textLength="33.3333" x="238.0208" y="253.9292">State3</text></g><rect fill="#5C524E" filter="url(#fcwnu7bvuhzpw)" height="8.3333" style="stroke:none;stroke-width:1.0416666666666667;" width="83.3333" x="149.4792" y="402.2083"/><g id="State4"><rect fill="url(#gcwnu7bvuhzpw0)" filter="url(#fcwnu7bvuhzpw)" height="75.849" rx="4.1667" ry="4.1667" style="stroke:#D1AE96;stroke-width:1.0416666666666667;" width="76.0417" x="153.125" y="473.0417"/><line style="stroke:#D1AE96;stroke-width:1.0416666666666667;" x1="153.125" x2="229.1667" y1="517.6406" y2="517.6406"/><text fill="#1E1E20" font-family="Telia Sans" font-size="11.4583" lengthAdjust="spacing" textLength="34.375" x="173.9583" y="499.575">State4</text></g><rect fill="none" filter="url(#fcwnu7bvuhzpw)" height="788.25" rx="4.1667" ry="4.1667" style="stroke:#D1AE96;stroke-width:1.0416666666666667;" width="307.2917" x="37.5" y="611.3854"/><path d="M41.6667,611.3854 L340.625,611.3854 A4.1667,4.1667 0 0 1 344.7917,615.5521 L344.7917,655.9844 L37.5,655.9844 L37.5,615.5521 A4.1667,4.1667 0 0 1 41.6667,611.3854 " fill="url(#gcwnu7bvuhzpw0)" style="stroke:url(#gcwnu7bvuhzpw0);stroke-width:1.0416666666666667;"/><rect fill="none" height="788.25" rx="4.1667" ry="4.1667" style="stroke:#D1AE96;stroke-width:1.0416666666666667;" width="307.2917" x="37.5" y="611.3854"/><line style="stroke:#D1AE96;stroke-width:1.0416666666666667;" x1="37.5" x2="344.7917" y1="655.9844" y2="655.9844"/><text fill="#1E1E20" font-family="Telia Sans" font-size="11.4583" lengthAdjust="spacing" textLength="31.25" x="175.5208" y="637.9188">Active</text><ellipse cx="59.375" cy="706.4115" fill="#181818" filter="url(#fcwnu7bvuhzpw)" rx="10.4167" ry="10.4167" style="stroke:none;stroke-width:1.0416666666666667;"/><g id="Active.NumLockOff"><rect fill="url(#gcwnu7bvuhzpw0)" filter="url(#fcwnu7bvuhzpw)" height="75.849" rx="4.1667" ry="4.1667" style="stroke:#D1AE96;stroke-width:1.0416666666666667;" width="106.25" x="88.5417" y="668.4844"/><line style="stroke:#D1AE96;stroke-width:1.0416666666666667;" x1="88.5417" x2="194.7917" y1="713.0833" y2="713.0833"/><text fill="#1E1E20" font-family="Telia Sans" font-size="11.4583" lengthAdjust="spacing" textLength="64.5833" x="109.375" y="695.0177">NumLockOff</text></g><g id="Active.NumLockOn"><rect fill="url(#gcwnu7bvuhzpw0)" filter="url(#fcwnu7bvuhzpw)" height="75.849" rx="4.1667" ry="4.1667" style="stroke:#D1AE96;stroke-width:1.0416666666666667;" width="104.1667" x="89.5833" y="818.2969"/><line style="stroke:#D1AE96;stroke-width:1.0416666666666667;" x1="89.5833" x2="193.75" y1="862.8958" y2="862.8958"/><text fill="#1E1E20" font-family="Telia Sans" font-size="11.4583" lengthAdjust="spacing" textLength="62.5" x="110.4167" y="844.8302">NumLockOn</text></g><!--link *start*Active to NumLockOff--><g id="link_*start*Active_NumLockOff"><path d="M70.1354,706.4115 C73.4688,706.4115 77.4063,706.4115 81.6979,706.4115 " fill="none" id="*start*Active-to-NumLockOff" style="stroke:#5C524E;stroke-width:3.125;"/><polygon fill="#5C524E" points="86.6146,706.4115,77.2515,702.218,81.4063,706.3966,77.2277,710.5513,86.6146,706.4115" style="stroke:#5C524E;stroke-width:3.125;"/></g><!--link NumLockOff to NumLockOn--><g id="link_NumLockOff_NumLockOn"><path d="M88.3125,740.6927 C77.125,748.7969 67.7396,756.9115 64.5833,763.0885 C57.2083,777.5052 57.2083,785.1198 64.5833,799.5469 C69.3125,808.7865 76.375,816.849 84.3438,823.7552 " fill="none" id="NumLockOff-to-NumLockOn" style="stroke:#5C524E;stroke-width:3.125;"/><polygon fill="#5C524E" points="88.1875,826.901,83.5757,817.7368,84.1585,823.6005,78.2948,824.1833,88.1875,826.901" style="stroke:#5C524E;stroke-width:3.125;"/><text fill="#1E1E20" font-family="Telia Sans" font-size="12.5" lengthAdjust="spacing" textLength="109.375" x="76.0417" y="786.4469">EvNumLockPressed</text></g><!--link NumLockOn to NumLockOff--><g id="link_NumLockOn_NumLockOff"><path d="M185.8333,817.9635 C190.3021,812.2656 194.1771,806.0885 196.875,799.5469 C203.0521,784.5573 203.0521,778.0677 196.875,763.0885 C195.0208,758.5885 192.6146,754.2552 189.8333,750.1406 " fill="none" id="NumLockOn-to-NumLockOff" style="stroke:#5C524E;stroke-width:3.125;"/><polygon fill="#5C524E" points="186.7604,745.9427,188.9491,755.9658,189.8424,750.1413,195.6668,751.0346,186.7604,745.9427" style="stroke:#5C524E;stroke-width:3.125;"/><text fill="#1E1E20" font-family="Telia Sans" font-size="12.5" lengthAdjust="spacing" textLength="109.375" x="212.5" y="786.4469">EvNumLockPressed</text></g><line style="stroke:#D1AE96;stroke-width:1.5625;stroke-dasharray:8.0,10.0;" x1="42.7083" x2="337.5" y1="905.6042" y2="905.6042"/><ellipse cx="59.375" cy="950.8229" fill="#181818" filter="url(#fcwnu7bvuhzpw)" rx="10.4167" ry="10.4167" style="stroke:none;stroke-width:1.0416666666666667;"/><g id="Active.CONC22.CapsLockOff"><rect fill="url(#gcwnu7bvuhzpw0)" filter="url(#fcwnu7bvuhzpw)" height="75.849" rx="4.1667" ry="4.1667" style="stroke:#D1AE96;stroke-width:1.0416666666666667;" width="108.3333" x="88.5417" y="912.8958"/><line style="stroke:#D1AE96;stroke-width:1.0416666666666667;" x1="88.5417" x2="196.875" y1="957.4948" y2="957.4948"/><text fill="#1E1E20" font-family="Telia Sans" font-size="11.4583" lengthAdjust="spacing" textLength="66.6667" x="109.375" y="939.4292">CapsLockOff</text></g><g id="Active.CONC22.CapsLockOn"><rect fill="url(#gcwnu7bvuhzpw0)" filter="url(#fcwnu7bvuhzpw)" height="75.849" rx="4.1667" ry="4.1667" style="stroke:#D1AE96;stroke-width:1.0416666666666667;" width="106.25" x="89.5833" y="1062.7083"/><line style="stroke:#D1AE96;stroke-width:1.0416666666666667;" x1="89.5833" x2="195.8333" y1="1107.3073" y2="1107.3073"/><text fill="#1E1E20" font-family="Telia Sans" font-size="11.4583" lengthAdjust="spacing" textLength="64.5833" x="110.4167" y="1089.2417">CapsLockOn</text></g><!--link *start*CONC22 to CapsLockOff--><g id="link_*start*CONC22_CapsLockOff"><path d="M70.2708,950.8229 C73.5104,950.8229 77.3125,950.8229 81.4583,950.8229 " fill="none" id="*start*CONC22-to-CapsLockOff" style="stroke:#5C524E;stroke-width:3.125;"/><polygon fill="#5C524E" points="86.625,950.8229,77.25,946.6563,81.4167,950.8229,77.25,954.9896,86.625,950.8229" style="stroke:#5C524E;stroke-width:3.125;"/></g><!--link CapsLockOff to CapsLockOn--><g id="link_CapsLockOff_CapsLockOn"><path d="M88.0938,981 C79.0313,988.3854 70.8854,997.2083 65.625,1007.5 C58.25,1021.9167 58.25,1029.5313 65.625,1043.9583 C70.1667,1052.8333 76.8646,1060.625 84.4479,1067.3438 " fill="none" id="CapsLockOff-to-CapsLockOn" style="stroke:#5C524E;stroke-width:3.125;"/><polygon fill="#5C524E" points="88.0521,1070.375,83.5511,1061.1558,84.0632,1067.0261,78.1929,1067.5381,88.0521,1070.375" style="stroke:#5C524E;stroke-width:3.125;"/><text fill="#1E1E20" font-family="Telia Sans" font-size="12.5" lengthAdjust="spacing" textLength="109.375" x="77.0833" y="1030.8583">EvCapsLockPressed</text></g><!--link CapsLockOn to CapsLockOff--><g id="link_CapsLockOn_CapsLockOff"><path d="M186.875,1062.375 C191.3438,1056.6771 195.2188,1050.5 197.9167,1043.9583 C204.0938,1028.9688 204.0938,1022.4792 197.9167,1007.5 C196.0625,1003 193.6563,998.6667 190.875,994.5521 " fill="none" id="CapsLockOn-to-CapsLockOff" style="stroke:#5C524E;stroke-width:3.125;"/><polygon fill="#5C524E" points="187.8021,990.3542,189.9907,1000.3772,190.884,994.5528,196.7085,995.4461,187.8021,990.3542" style="stroke:#5C524E;stroke-width:3.125;"/><text fill="#1E1E20" font-family="Telia Sans" font-size="12.5" lengthAdjust="spacing" textLength="109.375" x="213.5417" y="1030.8583">EvCapsLockPressed</text></g><line style="stroke:#D1AE96;stroke-width:1.5625;stroke-dasharray:8.0,10.0;" x1="42.7083" x2="337.5" y1="1150.0156" y2="1150.0156"/><ellipse cx="59.375" cy="1195.2344" fill="#181818" filter="url(#fcwnu7bvuhzpw)" rx="10.4167" ry="10.4167" style="stroke:none;stroke-width:1.0416666666666667;"/><g id="Active.CONC30.ScrollLockOff"><rect fill="url(#gcwnu7bvuhzpw0)" filter="url(#fcwnu7bvuhzpw)" height="75.849" rx="4.1667" ry="4.1667" style="stroke:#D1AE96;stroke-width:1.0416666666666667;" width="110.4167" x="88.5417" y="1157.3073"/><line style="stroke:#D1AE96;stroke-width:1.0416666666666667;" x1="88.5417" x2="198.9583" y1="1201.9063" y2="1201.9063"/><text fill="#1E1E20" font-family="Telia Sans" font-size="11.4583" lengthAdjust="spacing" textLength="68.75" x="109.375" y="1183.8406">ScrollLockOff</text></g><g id="Active.CONC30.ScrollLockOn"><rect fill="url(#gcwnu7bvuhzpw0)" filter="url(#fcwnu7bvuhzpw)" height="75.849" rx="4.1667" ry="4.1667" style="stroke:#D1AE96;stroke-width:1.0416666666666667;" width="108.3333" x="89.5833" y="1307.1198"/><line style="stroke:#D1AE96;stroke-width:1.0416666666666667;" x1="89.5833" x2="197.9167" y1="1351.7188" y2="1351.7188"/><text fill="#1E1E20" font-family="Telia Sans" font-size="11.4583" lengthAdjust="spacing" textLength="66.6667" x="110.4167" y="1333.6531">ScrollLockOn</text></g><!--link *start*CONC30 to ScrollLockOff--><g id="link_*start*CONC30_ScrollLockOff"><path d="M70.0625,1195.2344 C73.3958,1195.2344 77.3438,1195.2344 81.6563,1195.2344 " fill="none" id="*start*CONC30-to-ScrollLockOff" style="stroke:#5C524E;stroke-width:3.125;"/><polygon fill="#5C524E" points="86.6146,1195.2344,77.2396,1191.0677,81.4063,1195.2344,77.2396,1199.401,86.6146,1195.2344" style="stroke:#5C524E;stroke-width:3.125;"/></g><!--link ScrollLockOff to ScrollLockOn--><g id="link_ScrollLockOff_ScrollLockOn"><path d="M88.3646,1226.0469 C79.6146,1233.3073 71.7813,1241.9115 66.6667,1251.9115 C59.2917,1266.3281 59.2917,1273.9427 66.6667,1288.3698 C70.9375,1296.724 77.125,1304.1094 84.1458,1310.5469 " fill="none" id="ScrollLockOff-to-ScrollLockOn" style="stroke:#5C524E;stroke-width:3.125;"/><polygon fill="#5C524E" points="87.9479,1313.8281,83.5588,1304.5552,83.9998,1310.4312,78.1237,1310.8722,87.9479,1313.8281" style="stroke:#5C524E;stroke-width:3.125;"/><text fill="#1E1E20" font-family="Telia Sans" font-size="12.5" lengthAdjust="spacing" textLength="109.375" x="78.125" y="1275.2698">EvCapsLockPressed</text></g><!--link ScrollLockOn to ScrollLockOff--><g id="link_ScrollLockOn_ScrollLockOff"><path d="M187.9167,1306.7865 C192.3854,1301.0885 196.2604,1294.9115 198.9583,1288.3698 C205.1354,1273.3802 205.1354,1266.8906 198.9583,1251.9115 C197.1042,1247.4115 194.6979,1243.0781 191.9167,1238.9635 " fill="none" id="ScrollLockOn-to-ScrollLockOff" style="stroke:#5C524E;stroke-width:3.125;"/><polygon fill="#5C524E" points="188.8438,1234.7656,191.0324,1244.7887,191.9257,1238.9642,197.7502,1239.8576,188.8438,1234.7656" style="stroke:#5C524E;stroke-width:3.125;"/><text fill="#1E1E20" font-family="Telia Sans" font-size="12.5" lengthAdjust="spacing" textLength="109.375" x="214.5833" y="1275.2698">EvCapsLockPressed</text></g><!--link *start* to fork_state--><g id="link_*start*_fork_state"><path d="M190.1042,94.4896 C190.1042,108.6979 190.1042,134.8854 190.1042,149.3646 " fill="none" id="*start*-to-fork_state" style="stroke:#5C524E;stroke-width:3.125;"/><polygon fill="#5C524E" points="190.1042,154.4896,194.2708,145.1146,190.1042,149.2813,185.9375,145.1146,190.1042,154.4896" style="stroke:#5C524E;stroke-width:3.125;"/></g><!--link fork_state to State2--><g id="link_fork_state_State2"><path d="M188.2708,165.1771 C183.4896,174.0521 170.2188,198.6979 158.1042,221.1875 " fill="none" id="fork_state-to-State2" style="stroke:#5C524E;stroke-width:3.125;"/><polygon fill="#5C524E" points="155.6354,225.7604,163.7512,219.4846,158.1065,221.1756,156.4154,215.5309,155.6354,225.7604" style="stroke:#5C524E;stroke-width:3.125;"/></g><!--link fork_state to State3--><g id="link_fork_state_State3"><path d="M192.25,165.1771 C197.8646,174.0833 213.5,198.9063 227.7188,221.4792 " fill="none" id="fork_state-to-State3" style="stroke:#5C524E;stroke-width:3.125;"/><polygon fill="#5C524E" points="230.4583,225.8229,228.9737,215.6717,227.6766,221.4197,221.9286,220.1225,230.4583,225.8229" style="stroke:#5C524E;stroke-width:3.125;"/></g><!--link State2 to join_state--><g id="link_State2_join_state"><path d="M115.9583,303.75 C108.0833,324.9271 103.3958,351.0833 116.1458,370.9583 C126.3229,386.8125 145.8438,395.4479 162.4167,400.0938 " fill="none" id="State2-to-join_state" style="stroke:#5C524E;stroke-width:3.125;"/><polygon fill="#5C524E" points="167.3021,401.3542,159.2747,394.9656,162.2608,400.0455,157.1809,403.0316,167.3021,401.3542" style="stroke:#5C524E;stroke-width:3.125;"/><text fill="#1E1E20" font-family="Telia Sans" font-size="12.5" lengthAdjust="spacing" textLength="79.1667" x="127.6042" y="357.8583">some message</text></g><!--link State3 to join_state--><g id="link_State3_join_state"><path d="M247.4688,303.3021 C242.3958,324.0833 234.3646,349.9896 222.3958,370.9583 C216.5313,381.2188 207.1354,391.0104 200.1771,397.4896 " fill="none" id="State3-to-join_state" style="stroke:#5C524E;stroke-width:3.125;"/><polygon fill="#5C524E" points="196.5938,400.7083,206.3555,397.5525,200.4717,397.2315,200.7927,391.3477,196.5938,400.7083" style="stroke:#5C524E;stroke-width:3.125;"/></g><!--link join_state to State4--><g id="link_join_state_State4"><path d="M191.1458,410.8229 C191.1458,419.6146 191.1458,443.9167 191.1458,466.25 " fill="none" id="join_state-to-State4" style="stroke:#5C524E;stroke-width:3.125;"/><polygon fill="#5C524E" points="191.1458,471.2188,195.3125,461.8438,191.1458,466.0104,186.9792,461.8438,191.1458,471.2188" style="stroke:#5C524E;stroke-width:3.125;"/></g><!--link State4 to Active--><g id="link_State4_Active"><path d="M191.1458,549.0208 C191.1458,564.0208 191.1458,582.9063 191.1458,604.3958 " fill="none" id="State4-to-Active" style="stroke:#5C524E;stroke-width:3.125;"/><polygon fill="#5C524E" points="191.1458,609.5729,195.3125,600.1979,191.1458,604.3646,186.9792,600.1979,191.1458,609.5729" style="stroke:#5C524E;stroke-width:3.125;"/></g><!--SRC=[fLfRRzl64duMVmKjEpXsKQ6IuZXkuGgGPSanwiY6vI8jYY9OaIkP4KMgv2g9pu7_-vczaNlLfPRze9tvTcuxExDBwk3eySFmup3yDMmId2QeDItoRrap28A3P1Q-oN9o_EOhAX8qJV5d_3qfINdSFBgy7jpTtZqqJqw20pbW8WgKbIjKu8mqWmESnSai2Cf5aW4DBSCfYXRp8bzdyI1FyoAKKnN8kiINcA09UKvnE4DfYS6IeqyVRXwPZOUZqGWa7rq_zFzauxEpCpg-VxZvs7_WfE7WQdXrsgJp9iF1tVXACaPluU-SmYU_3mR3oOHHsvtpyzCkfTwCHtUSr7v_7aqfwLF_ONmplcRKsUpdytQRKg_wu-iXS_WGdtRUluieyVRc-iEZ0Cuuwk4tDkxW3kwoYNrGE-QWTuDttTEXn5q-t7qQC_hx4VrZre-gm39CxURdn-4VZmgvSjDaIBoqxKsQp9y8peubvyUmspvHWCBcDp4g5WvOhSYMMF5ii2dLWjB8EqHIiWOn1La0wJzBc7gXNUPoJcMi05gckc6c7f4d3Zs28mL8eAd70pFryCohPbTQE5tE5gZA6Ad4YJ9Ly1nrUC8PShQ0cNweeE1WLUGHZjS53e_ATHJXiZm-MfRpao0CBsPvHiA8re5VPLXx5zCUvRFIKStLvSnGai8NjnpkqYvYlg4YIxAvMuo8_YvoLaMoHCNpvp9wmajyV18qHY18b3TrkmQDoxo8SI5OrQQNzCUd95fa4A6m0oIpK6eRkIM7cmmhIR6E27nLJClo68V_2nexosyqRfCC2mnVMg1H3yTeYSFc8sqPuGIAVXFe9QOrd02Mwd1EVGdeFogWoN2GPKa5TSs7kK-GZYmbFVErdTYIGpfrGx3cA2Ea2XH83k7ZTjEKKxUk6C_GEYNLDFxH9Zl1a-I_4jpfgf1L4jgVJhkjOCed5EVV894r32ozQXWBJvGN6IuKqBc2k4S5IQ9a1M6uHt4iv9sgcYxpxmfBVZI8WyyCLY1zkl9yfPIFN5_5Bu8Bd9Fd5HQBCR0MskX50gNkCRq1CK3V5gDs287HX2YDWR5lB15gkHKGVQjNDPjnXvjpLc1K2MhJOEon9QBke0AWpgzw9sHl7MEIa9ILWwfYDQnigtQUJ5G6gN7Tjbs_QcxRhcIwT7d-Ur5FYIcUmmwZXldNtAYcnaghDLYu7HoK19AyN4_3ybkoJ56cxX19OafLmT9zqyTkq7YauRFSCzEofThCfjZzGTGKi4qr4qKa-PgGPpKqaaRjTBIUIsJQFQ7Ib2m86aCjPOB6LOAMUHPlsrwg7v00SjQcHH0OnL_zdEfsUrMN8jLpXUnnNgbXzchv8fmNHdXvyzgvF-wQB7P2kkoXnL6pH_R9MjRRe65eKqIFgktaa5xYVzOuYx2gGDAilAySzAMi5IBbwgUdNJLZQ4QJwln-wRiJCgPg4xtpCQePpCOLJj6pHRrDPfYU8QnpbydILgfYRUitZMlWhXmMChfb3QD-m0ZGRfu_449H_Bm5mgNxGLTGErm0Tl9l7TNTGm8jtooc6Zg5QNduW6VGq27J_DRL43ka5Syls0ejBs-JwY3XEvVxgn19yiogGPHeRHTtrzcuHvnguVwHueYgA5N52jbT_3p2CbBagIw8aJmLLB6Vvu9JB1XlT2LEUPNGAGqIJDIU5WdQgmIZETOR2IEuQlnX3gipn_hA7lxCFggsmxViurQNvKGhi7HSPylcErvzX6k9vBKESPhN_CBkwIGacK4tqvi9fpdxcrO26euTgEXb14_6BLTvPWIy8kwHkaa6snQCrM9P4LqU6ATmpGN9sx4Dbt08W2pH-YGdkKFdld328SbrXjTNK7dAuykdsCYd66y-6JkEdNQfegNQaP8xXITAytMiBJ0bY6lQvdtg5neZWgQer7oLjEtxVvEngDHBAINi7K5FPnLzfAKzFlNq7D4HxA3t2IcIwPhOO8t3dX9qEcuty-aNhEzsJl64xlK66YVvFKnTbpWo5bgGV9SQ-uosgQcxjHOG3AZkgQQt8cgNO5_ptc6BlTB85MWq2eyWUUzxhpBHQSGiJm6csi0fczg6_IXcvzgtkrrWYXOQHdYDLLP3LPlkLdlW2p5w12ARSzWuVSeqs__ElcV9q1-lC3ilBg0X5y_tEJJLNeyLRwzGcEsO_ZqX_tvsz9Gd4Tu-rH5tkB2kjRWpmZx7ObJexGl6pZJQzpnMlO3o972YLnywVbqhTv_ClEaQBOoLY1PxX6s5YnAkGqffOWHlttSA-K95D2vA-dQt5pJey2f1SoeEB662NEyjNeB6CrgcEq8lVXBo7GQm1_tCOcc4V1R9EBK6zJ5baUV48FdV3wY85sr4KBbmYB53vtZg7oelGsJzkBosaF89_Da6CyILnAN4JERghBZ16Z-G9lQrjQ4ig6wT-WvfY-PwdpWYOIc7CqREhfF-EFlFDtvxbx2BuNQGxH1IxQc33yjhzfcVptuOaH2K9f4JP3ckFRhSFQPRreaaIqXwfzlRzuNkRDUvU9wIw5ZgVxDiS6SfSUnPC-yLpxiVV7Swjm4l0V- -gL2n5unmTQdBbA1u2owLkqaYOW-G586SiAyy-giW-mT1x4T4pPE0lrEQiAEGBAQjKFp6Y53988h-gCS1h7umz1_bhUE69sW1Ft7DycBncN-zkA23NY_uwuU_mrQhf_021KOvJ7FNINqh9N-1yqqbcGv0Cf_7m3Nxbx3C8T-Ni3pq_Cwb69X0aLQfEkNOKqRfqvSxM2hd8xOwp9jUE5ulR_DeSJUR0QqUiBboc8M_XCElOdHVW44uLj2P1eQvJdIhLIiTe5LPQrL6J58rvdhbi1Qb05gwDCy4LVSaAl8qhRLhOnx4ckApG8EqJAdEII_1_m40]--></g></svg>