<?xml version="1.0" encoding="us-ascii" standalone="no"?><svg xmlns="http://www.w3.org/2000/svg" xmlns:xlink="http://www.w3.org/1999/xlink" contentStyleType="text/css" height="891.6667px" preserveAspectRatio="none" style="width:427px;height:891px;" version="1.1" viewBox="0 0 427 891" width="427.0833px" zoomAndPan="magnify"><defs><linearGradient id="g1udnnxto7xypc0" x1="50%" x2="50%" y1="0%" y2="100%"><stop offset="0%" stop-color="#FFFFFF"/><stop offset="100%" stop-color="#F3F3F8"/></linearGradient><filter height="300%" id="f1udnnxto7xypc" width="300%" x="-1" y="-1"><feGaussianBlur result="blurOut" stdDeviation="2.0833333333333335"/><feColorMatrix in="blurOut" result="blurOut2" type="matrix" values="0 0 0 0 0 0 0 0 0 0 0 0 0 0 0 0 0 0 .4 0"/><feOffset dx="4.166666666666667" dy="4.166666666666667" in="blurOut2" result="blurOut3"/><feBlend in="SourceGraphic" in2="blurOut3" mode="normal"/></filter><linearGradient id="g1udnnxto7xypc1" x1="50%" x2="50%" y1="0%" y2="100%"><stop offset="0%" stop-color="#FFFFFF"/><stop offset="100%" stop-color="#ECDED4"/></linearGradient></defs><g><text fill="#5C524E" font-family="Telia Sans" font-size="20.8333" font-weight="bold" lengthAdjust="spacing" textLength="348.9583" x="32.0313" y="40.6667">State Diagram 2 - telia-brown theme</text><g id="elem_choice1"><polygon fill="url(#g1udnnxto7xypc0)" filter="url(#f1udnnxto7xypc)" points="283.8542,207.6042,296.3542,220.1042,283.8542,232.6042,271.3542,220.1042,283.8542,207.6042" style="stroke:#B5B5D4;stroke-width:1.0416666666666667;"/></g><rect fill="#5C524E" filter="url(#f1udnnxto7xypc)" height="8.3333" style="stroke:none;stroke-width:1.0416666666666667;" width="83.3333" x="126.5625" y="352.3958"/><rect fill="#5C524E" filter="url(#f1udnnxto7xypc)" height="8.3333" style="stroke:none;stroke-width:1.0416666666666667;" width="83.3333" x="140.1042" y="703.6667"/><ellipse cx="349.4792" cy="356.5625" fill="none" filter="url(#f1udnnxto7xypc)" rx="10.4167" ry="10.4167" style="stroke:#0078CB;stroke-width:1.0416666666666667;"/><ellipse cx="350" cy="357.0833" fill="#0078CB" rx="6.25" ry="6.25" style="stroke:none;stroke-width:1.0416666666666667;"/><ellipse cx="283.8542" cy="83.6458" fill="#181818" filter="url(#f1udnnxto7xypc)" rx="10.4167" ry="10.4167" style="stroke:none;stroke-width:1.0416666666666667;"/><g id="State1"><rect fill="url(#g1udnnxto7xypc1)" filter="url(#f1udnnxto7xypc)" height="75.849" rx="4.1667" ry="4.1667" style="stroke:#D1AE96;stroke-width:1.0416666666666667;" width="73.9583" x="7.2917" y="669.9167"/><line style="stroke:#D1AE96;stroke-width:1.0416666666666667;" x1="7.2917" x2="81.25" y1="714.5156" y2="714.5156"/><text fill="#1E1E20" font-family="Telia Sans" font-size="11.4583" lengthAdjust="spacing" textLength="32.2917" x="28.125" y="696.45">State1</text></g><g id="State2"><rect fill="url(#g1udnnxto7xypc1)" filter="url(#f1udnnxto7xypc)" height="75.849" rx="4.1667" ry="4.1667" style="stroke:#D1AE96;stroke-width:1.0416666666666667;" width="75" x="149.4792" y="480.5208"/><line style="stroke:#D1AE96;stroke-width:1.0416666666666667;" x1="149.4792" x2="224.4792" y1="525.1198" y2="525.1198"/><text fill="#1E1E20" font-family="Telia Sans" font-size="11.4583" lengthAdjust="spacing" textLength="33.3333" x="170.3125" y="507.0542">State2</text></g><ellipse cx="113.0208" cy="869.7188" fill="none" filter="url(#f1udnnxto7xypc)" rx="10.4167" ry="10.4167" style="stroke:#0078CB;stroke-width:1.0416666666666667;"/><ellipse cx="113.5417" cy="870.2396" fill="#0078CB" rx="6.25" ry="6.25" style="stroke:none;stroke-width:1.0416666666666667;"/><!--link *start* to choice1--><g id="link_*start*_choice1"><path d="M283.8542,94.3542 C283.8542,116.5417 283.8542,171.4583 283.8542,200.4479 " fill="none" id="*start*-to-choice1" style="stroke:#5C524E;stroke-width:3.125;"/><polygon fill="#5C524E" points="283.8542,205.6458,288.0208,196.2708,283.8542,200.4375,279.6875,196.2708,283.8542,205.6458" style="stroke:#5C524E;stroke-width:3.125;"/><text fill="#1E1E20" font-family="Telia Sans" font-size="12.5" lengthAdjust="spacing" textLength="53.125" x="295.3125" y="148.6708">from start</text><text fill="#1E1E20" font-family="Telia Sans" font-size="12.5" lengthAdjust="spacing" textLength="51.0417" x="296.3542" y="163.2333">to choice</text></g><!--link choice1 to fork1--><g id="link_choice1_fork1"><path d="M272.1042,221.3958 C247.8125,222.6146 192.3229,229.2604 168.2292,263.8542 C150.875,288.7604 159.3854,327.4479 164.8438,345.5417 " fill="none" id="choice1-to-fork1" style="stroke:#5C524E;stroke-width:3.125;"/><polygon fill="#5C524E" points="166.4375,350.4479,167.5087,340.2448,164.8307,345.4936,159.5818,342.8156,166.4375,350.4479" style="stroke:#5C524E;stroke-width:3.125;"/><text fill="#1E1E20" font-family="Telia Sans" font-size="12.5" lengthAdjust="spacing" textLength="65.625" x="179.6875" y="287.2125">from choice</text><text fill="#1E1E20" font-family="Telia Sans" font-size="12.5" lengthAdjust="spacing" textLength="36.4583" x="194.2708" y="301.775">to fork</text></g><!--link choice1 to join2--><g id="link_choice1_join2"><path d="M285.9688,230.9375 C295.7813,278.7708 333.4063,491.4688 260.9375,638.6667 C246.4063,668.1875 212.6875,690.0938 194.2917,700.3438 " fill="none" id="choice1-to-join2" style="stroke:#5C524E;stroke-width:3.125;"/><polygon fill="#5C524E" points="190.0833,702.6146,200.3129,701.8346,194.6682,700.1435,196.3592,694.4988,190.0833,702.6146" style="stroke:#5C524E;stroke-width:3.125;"/><text fill="#1E1E20" font-family="Telia Sans" font-size="12.5" lengthAdjust="spacing" textLength="65.625" x="315.1042" y="421.5875">from choice</text><text fill="#1E1E20" font-family="Telia Sans" font-size="12.5" lengthAdjust="spacing" textLength="35.4167" x="330.2083" y="436.15">to join</text></g><!--link choice1 to end3--><g id="link_choice1_end3"><path d="M288.5417,228.5625 C293.7708,236.9688 302.3542,251.1563 308.8542,263.8542 C322.3542,290.2083 335.8542,322.0104 343.3854,340.3854 " fill="none" id="choice1-to-end3" style="stroke:#5C524E;stroke-width:3.125;"/><polygon fill="#5C524E" points="345.2917,345.0521,345.6132,334.7979,343.3266,340.2287,337.8958,337.942,345.2917,345.0521" style="stroke:#5C524E;stroke-width:3.125;"/><text fill="#1E1E20" font-family="Telia Sans" font-size="12.5" lengthAdjust="spacing" textLength="65.625" x="343.2292" y="287.2125">from choice</text><text fill="#1E1E20" font-family="Telia Sans" font-size="12.5" lengthAdjust="spacing" textLength="35.4167" x="358.3333" y="301.775">to end</text></g><!--link fork1 to State1--><g id="link_fork1_State1"><path d="M163.1875,361.0938 C144.7813,374.1875 80.9896,422.5833 56.7708,480.5208 C31.9688,539.8542 33.75,615.6771 38.2708,662.7292 " fill="none" id="fork1-to-State1" style="stroke:#5C524E;stroke-width:3.125;"/><polygon fill="#5C524E" points="38.7917,667.8854,41.9744,658.1324,38.2573,662.7046,33.685,658.9874,38.7917,667.8854" style="stroke:#5C524E;stroke-width:3.125;"/><text fill="#1E1E20" font-family="Telia Sans" font-size="12.5" lengthAdjust="spacing" textLength="51.0417" x="68.2292" y="516.2854">from fork</text><text fill="#1E1E20" font-family="Telia Sans" font-size="12.5" lengthAdjust="spacing" textLength="40.625" x="73.4375" y="530.8479">to state</text></g><!--link fork1 to State2--><g id="link_fork1_State2"><path d="M167.8854,360.9688 C167.1875,367.9167 165.6354,384.375 165.1042,398.2292 C164.2292,420.8958 161.5938,426.8542 165.1042,449.2708 C166.375,457.3854 168.4479,465.8646 170.8229,473.9583 " fill="none" id="fork1-to-State2" style="stroke:#5C524E;stroke-width:3.125;"/><polygon fill="#5C524E" points="172.2396,478.5625,173.4949,468.3804,170.7225,473.58,165.5229,470.8077,172.2396,478.5625" style="stroke:#5C524E;stroke-width:3.125;"/><text fill="#1E1E20" font-family="Telia Sans" font-size="12.5" lengthAdjust="spacing" textLength="51.0417" x="176.5625" y="421.5875">from fork</text><text fill="#1E1E20" font-family="Telia Sans" font-size="12.5" lengthAdjust="spacing" textLength="40.625" x="181.7708" y="436.15">to state</text></g><!--link State2 to join2--><g id="link_State2_join2"><path d="M181.6146,556.5417 C180.3854,566.6042 179.2604,577.5104 178.6458,587.625 C176.1771,628.1042 179.3229,676.4479 180.9271,696.8958 " fill="none" id="State2-to-join2" style="stroke:#5C524E;stroke-width:3.125;"/><polygon fill="#5C524E" points="181.3438,701.9063,184.7198,692.2184,180.9125,696.7158,176.4151,692.9085,181.3438,701.9063" style="stroke:#5C524E;stroke-width:3.125;"/><text fill="#1E1E20" font-family="Telia Sans" font-size="12.5" lengthAdjust="spacing" textLength="55.2083" x="190.1042" y="610.9833">from state</text><text fill="#1E1E20" font-family="Telia Sans" font-size="12.5" lengthAdjust="spacing" textLength="35.4167" x="200" y="625.5458">to join</text></g><!--link State1 to *end*--><g id="link_State1_*end*"><path d="M39.6875,746.2292 C38.4479,771.0313 40.4271,803.4271 54.6875,828.0521 C64.3438,844.7188 83.9063,856.1667 97.7083,862.5625 " fill="none" id="State1-to-*end*" style="stroke:#5C524E;stroke-width:3.125;"/><polygon fill="#5C524E" points="102.1458,864.5104,95.2468,856.9173,97.3797,862.4103,91.8867,864.5432,102.1458,864.5104" style="stroke:#5C524E;stroke-width:3.125;"/><text fill="#1E1E20" font-family="Telia Sans" font-size="12.5" lengthAdjust="spacing" textLength="55.2083" x="66.1458" y="800.3688">from state</text><text fill="#1E1E20" font-family="Telia Sans" font-size="12.5" lengthAdjust="spacing" textLength="35.4167" x="76.0417" y="814.9313">to end</text></g><!--link join2 to *end*--><g id="link_join2_*end*"><path d="M180.7292,712.2813 C176.2917,726.6771 158.1563,783.7917 136.9792,828.0521 C132.5313,837.3542 126.6667,847.3333 121.8438,855.0729 " fill="none" id="join2-to-*end*" style="stroke:#5C524E;stroke-width:3.125;"/><polygon fill="#5C524E" points="119.25,859.1771,127.8022,853.5104,122.0491,854.7849,120.7746,849.0318,119.25,859.1771" style="stroke:#5C524E;stroke-width:3.125;"/><text fill="#1E1E20" font-family="Telia Sans" font-size="12.5" lengthAdjust="spacing" textLength="50" x="169.2708" y="800.3688">from join</text><text fill="#1E1E20" font-family="Telia Sans" font-size="12.5" lengthAdjust="spacing" textLength="35.4167" x="176.5625" y="814.9313">to end</text></g><!--SRC=[fLfjK-Cs4FuS_meJO0OwpJG97CTrA3D04c3AXHj2vzffEpUAhGGTZftQoW7jyD-xaYLRhtav31_YtKUxgzLgTsLxQ-V-gl-n7_uIDYbE26gDy-mfRGP1i4KcuMwQqRtTRoWdQ9pWB_YP5BJOQ-wSNrxStjpUDVVtWorvmqNaA2tcACSfRGPRE8t990YAHv823St2COeUftcsIEEBBCdoK0vL88i2dsEAHlGbmU449GK6ItO-NrtVSnkt1uC1IDwvl3lxWzyV7Hsn-qztrn_FxafI_wBNxnqssRXH_-9ss9ECmG7y7JFuwBUBY_venAdjpl7nOPTHhuU3svBKVdySZHdfyzdTy7fuoQcJoOVZTfjHUsV3opwVy3O-xBn_5p7YpVNbrRq0JahKtQ_yleCxkCi7de7QOGbwT_6kUzYNkFExsyz3Jdy_O7_S-a7bM8wff_dbll_xlKAkfcao95xQjfkGwGF5wPxa_1Xss_iAKDYy6wFyqG6h5TaIAvuDDgLQKEPvXqX6rY2c80iWvyy3fbvebxabfp9M02rJtJ1JZuWJXnx1aG8aqDJZWPbwoiYhHbTQIheSBL2LCLA94sMgA6FKCPEI8KSBc3aF5HHipVCiml4Yn-5EiOWYN1HxExDYkX-4uSaaIsaOiJpmYtJhwSdubF5vwgZ6wd8cY2JmmosddD8wOfvGdf9qwXOZlB-Ed7bEPYX_-L943tY6z_Q3nW04YVIcRjUWSPxbCSu5gzhqadx_GAB753mKTe1a9afj8xVaxJB32fel8We_5TFIBCRXVq5ZRVcDnWr9iS2KImiqDiCXck6mUSzAHZY2fDy4Ue5P3gU0PJgSGry3zezoA38boBAaWhh6mzW724SUafxnsavioLisT8cpfYYbj78KI0xXSa_Jb5ENhXXFq2AXrR3oqWOxmIFohmHtkYfaJaBxwhJR2gPuG77s186iOM3fLSEuUw8iJt6kW8uLn2UKKnAHERZX4ufZ8UzGrNIUFIiiUMaG1vyRh43EsCgNAwLSSdsLUL6Suuo-pB5OZ0jheOrQ953g7jCB40USsMBK2Y4mcX2bC73sjIL2JRS2ec_rAcTpRdzvp0gCAa4j6fmzj4JK5LG0rF5LxOJehNrC2KruEgWoLiEAjchdoK3ba1hNRTlvg-QsxKocIvVztwlQ9IPu2ZkC6UPVSoER6Ykjvc0nxM2he13anM8S5azabg1KtI6In9MgWkNqpJbsWyOzSvyrFJCiMwhDV8XT7qHE0TjKCr54oJT2NrJNI1gpqr5wpf5fzuX9Kw8WQFIra0aQFO9cMHglsbxgF200vAXbYo0modprFjKzxNcTYjIPAsJFv9KSPg-MpyDPRhYtB5vhryTrWyKEI9SzB3bgziWwMSiw21g6DaNqeDfE3ka5_cU1qmYh2YJDYljgWhwGjLoa7FtqiAj6z4rlCftFvxup8MUgDh4p7wUQpcpqS89UBEeDcM3MGrXzbydILgfYhQetZKlWpXqMShfb3QTUOGHeDy_l2A4eVba1AQNxGJt87Iu0x_nREtNra41hRXPJTPt2j6PuXoTGq27I_DRL4Dkb5Syls79jcTv6LIFXwylzMOYIBBLo42DQsyLTTPRk4QTQE7yaE68g2bMnGdOdFu-mbEPPeWlY94y6LUmlOy4f5emtgb99UPFGCNCI3DIU5WdQcmIZATOB2IUuSlns1gipnVhARd_Wbwfj-u1VRdLfHhK4o-xhQ5b-ngjRk9O8Ngk9qsPT7jWzbOII2LGplPYKD6Tzqr90mx435RsSu8cusJnB3OTNn0r2bwImRS5OpPSLqJK3emlNfY1vQvRX0fe0Y1AjJfOaj-lS1qveabmzlBw2obCUNpp5HZp5U7bdx6WxxLJ5KhKZ9DToJvHaYrXRO4OGnxJb-zGlD4OKZL6XpLNILk__PSQYGa-bZB2n1psLLTIHblRur5DpH4MmdNv6QKx62sg3DGv_Ij3fkAUPZRzYVRUN58_htcwWqSblOEgYm96nq8BaEzJOFTgoekxMceCp8BidcjwAg1s2VSLxZItsHYFdeD58F8BaFU-zoKId4PCi0PXgGqbPLZRiHp5hvxxrxG9JDDTmmbkiiWggMdHNsWC_g54Z45qUmqRtASDiypFxXYb3Vxp2xJmvWOASltpAeAYUdlBaxHKAent3dmdz_j7HGqOYl7gem-zmO5reVkU4JTfYbElb2-wTORHfFrQzWF84CD6p3xj_MobtTsRUS8qUZPM87ZTmsnpd1Ho7bDJ42TwwxnJobObed1JixUvfq62tFOAcJ1nOmWMvtbky1eqND4lMX9xy9EGx3E0F-hd5qWZvB99pQWtgOyeyowX1yhyVK16lsXr5nQD3ZEqwnrF_K7aP8lF7-QM5b4_WZvQO8OuaBYLcC5UzuX9h_40Ms9VMXhAWkdNgEwGLckjzul24fHnwZ8mV9_r-zlStVdjdi8lXT92kuLBjgOCFM-Ri8p-VVnX1A4f8v0HP4zSUNQxlqnNhHCaCWjuvxTNxGfzirxbudfJeMEhlMJOuinGuzgoPzuZdtG- -CvtRWDUW_BqiKV4NZ71qgTEKe7WJBfExJ2BY3v0KWILXKtdigo3xWo3-4L5pFoZVAOruAoIJQJTiXU8h8yfaWp3sMOyJMdyqnEbbdz09wuv1C2PP_jXXBZnXlohoL-X8kfpCVbLaa7d07GvTJmpKuCyV_kOhqMgTLZf-XeuoutKnft-bD1ECGF8PLgeLs9B5mOoZGQKfDfHnDAWqpuO29mYaqXR3SdzLnZ8M1vRTQ8qKm6xeGGQIxJ2L8sfBXKQEb7wpaDnGASU1P2m9_1y0]--></g></svg>